SplineFontDB: 3.2
FontName: BibleRomanBold
FullName: Bible Roman Bold
FamilyName: Bible Roman
Weight: Bold
Copyright: 2002, Fredrick Nader. All rights reserved. apostrophe@apostrophiclab.com
Version: 1.0; December 2002
ItalicAngle: 0
UnderlinePosition: -150
UnderlineWidth: 40
Ascent: 819
Descent: 205
InvalidEm: 0
sfntRevision: 0x00010000
LayerCount: 2
Layer: 0 1 "Hinten" 1
Layer: 1 1 "Vorne" 0
XUID: [1021 256 -1967491057 14686]
StyleMap: 0x0040
FSType: 0
OS2Version: 2
OS2_WeightWidthSlopeOnly: 0
OS2_UseTypoMetrics: 0
CreationTime: 1039457615
ModificationTime: 1769177396
PfmFamily: 17
TTFWeight: 400
TTFWidth: 5
LineGap: 28
VLineGap: 0
Panose: 2 2 5 0 6 4 11 2 4 3
OS2TypoAscent: 816
OS2TypoAOffset: 0
OS2TypoDescent: -281
OS2TypoDOffset: 0
OS2TypoLinegap: 54
OS2WinAscent: 1026
OS2WinAOffset: 0
OS2WinDescent: 298
OS2WinDOffset: 0
HheadAscent: 1026
HheadAOffset: 0
HheadDescent: -298
HheadDOffset: 0
OS2SubXSize: 717
OS2SubYSize: 666
OS2SubXOff: 0
OS2SubYOff: 143
OS2SupXSize: 717
OS2SupYSize: 666
OS2SupXOff: 0
OS2SupYOff: 488
OS2StrikeYSize: 51
OS2StrikeYPos: 256
OS2FamilyClass: 258
OS2Vendor: 'APOS'
OS2CodePages: 20000111.00000000
OS2UnicodeRanges: 80000027.4000004a.00000000.00000000
Lookup: 1 0 0 "'smcp' Gemeine in Kapit+AOQA-lchen in Lateinisch Nachschlagetabelle 0" { "'smcp' Gemeine in Kapit+AOQA-lchen in Lateinisch Nachschlagetabelle 0 Subtabelle"  } ['smcp' ('latn' <'dflt' > ) ]
Lookup: 1 0 0 "'c2sc' Versalien in Kapit+AOQA-lchen in Lateinisch Nachschlagetabelle 0" { "'c2sc' Versalien in Kapit+AOQA-lchen in Lateinisch Nachschlagetabelle 0 Subtabelle"  } ['c2sc' ('latn' <'dflt' > ) ]
Lookup: 258 0 0 "'kern' Horizontale Unterschneidung in Lateinisch Nachschlagetabelle 0" { "'kern' Horizontale Unterschneidung in Lateinisch Nachschlagetabelle 0 Subtabelle"  } ['kern' ('DFLT' <'dflt' > 'latn' <'dflt' > ) ]
MarkAttachClasses: 1
DEI: 91125
ShortTable: maxp 16
  1
  0
  248
  235
  7
  0
  0
  1
  0
  0
  0
  0
  0
  0
  0
  0
EndShort

StartChar: breve
Encoding: 5 5 4
Width: 480
Flags: W
LayerCount: 2
Fore
SplineSet
124 689 m 1,0,-1
 172 689 l 1,1,-1
 195.151845524 689 l 1,2,-1
 196.92564728 665.940577164 l 2,3,4
 198.501829492 645.450208416 198.501829492 645.450208416 212.426097736 629.327371502 c 0,5,6
 226.502164954 613.028767354 226.502164954 613.028767354 241.803541368 611.935811896 c 2,7,-1
 246.740177761 611.583195011 l 1,8,-1
 247.850435529 611.028066127 l 1,9,10
 270.366390968 611.714797218 270.366390968 611.714797218 285.325796875 626.674203125 c 0,11,12
 303 644.34840625 303 644.34840625 303 664 c 2,13,-1
 303 689 l 1,14,-1
 328 689 l 1,15,-1
 370 689 l 1,16,-1
 395 689 l 1,17,-1
 395 664 l 2,18,19
 395 631.210477829 395 631.210477829 381.778508258 604.166517448 c 0,20,21
 368.557016517 577.122557068 368.557016517 577.122557068 347.757790042 556.917594206 c 0,22,23
 326.958563567 536.712631345 326.958563567 536.712631345 299.527762718 525.382517951 c 0,24,25
 271.97008768 514 271.97008768 514 242 514 c 0,26,27
 235.065377511 514 235.065377511 514 226.767233835 516.224357557 c 0,28,29
 202.03714746 518.202525535 202.03714746 518.202525535 179.260777167 531.98822348 c 0,30,31
 156.484406874 545.773921425 156.484406874 545.773921425 138.964592359 566.797698843 c 0,32,33
 121.444777843 587.821476262 121.444777843 587.821476262 110.843891505 612.556877718 c 0,34,35
 100.243005166 637.292279174 100.243005166 637.292279174 99.0286685528 662.79334806 c 2,36,-1
 97.7807327461 689 l 1,37,-1
 124 689 l 1,0,-1
EndSplineSet
Validated: 1
EndChar

StartChar: dotaccent
Encoding: 6 6 5
Width: 465
Flags: W
LayerCount: 2
Fore
SplineSet
161 641 m 0,0,1
 161 675.153620544 161 675.153620544 186.72784263 701.576810272 c 0,2,3
 212.45568526 728 212.45568526 728 248.126212711 728 c 0,4,5
 283.796740162 728 283.796740162 728 311.898370081 701.954586904 c 0,6,7
 340 675.909173809 340 675.909173809 340 637.687402383 c 0,8,9
 340 599.465630957 340 599.465630957 312.581727714 572.732815478 c 0,10,11
 285.163455429 546 285.163455429 546 248 546 c 0,12,13
 241.409117391 546 241.409117391 546 235.895184182 547.725291215 c 0,14,15
 221.141045078 550.194963168 221.141045078 550.194963168 207.49093101 559.295039442 c 0,16,17
 181.019794932 576.942463937 181.019794932 576.942463937 167.911944036 608.401306088 c 0,18,19
 161 624.989971775 161 624.989971775 161 641 c 0,0,1
EndSplineSet
Validated: 1
EndChar

StartChar: ring
Encoding: 8 8 6
Width: 474
Flags: W
LayerCount: 2
Fore
SplineSet
245.482856552 599.053001525 m 1,0,1
 259.312001608 599.660407858 259.312001608 599.660407858 269.156000804 609.504407054 c 0,2,3
 279 619.34840625 279 619.34840625 279 634.696384933 c 0,4,5
 279 650.044363615 279 650.044363615 267.624083105 660.522181808 c 0,6,7
 256.248166211 671 256.248166211 671 242.907972954 671 c 0,8,9
 229.567779697 671 229.567779697 671 220.283889848 661.434780156 c 0,10,11
 211 651.869560312 211 651.869560312 211 639 c 0,12,13
 211 633.926427191 211 633.926427191 213.926906199 626.771767592 c 0,14,15
 220.121174239 611.630223497 220.121174239 611.630223497 231.842247627 603.816174571 c 0,16,17
 236.551063689 600.676963863 236.551063689 600.676963863 245.482856552 599.053001525 c 1,0,1
362 635 m 0,18,19
 362 609.859291229 362 609.859291229 352.490353911 587.670117021 c 0,20,21
 342.997253277 565.519548875 342.997253277 565.519548875 325.966014708 549.119096919 c 0,22,23
 308.934776139 532.718644964 308.934776139 532.718644964 286.472402182 523.359322482 c 0,24,25
 264.010028225 514 264.010028225 514 240 514 c 0,26,27
 230.69541033 514 230.69541033 514 224.116284426 516.550978856 c 0,28,29
 204.540243819 519.033438319 204.540243819 519.033438319 186.178542822 530.662515485 c 0,30,31
 167.816841825 542.291592652 167.816841825 542.291592652 154.363753465 560.025209126 c 0,32,33
 140.910665105 577.758825601 140.910665105 577.758825601 132.955332552 598.565079969 c 0,34,35
 125 619.371334337 125 619.371334337 125 640.732310647 c 0,36,37
 125 662.093286956 125 662.093286956 133.834774378 682.918112275 c 0,38,39
 142.669548756 703.742937595 142.669548756 703.742937595 157.819554111 720.155443396 c 0,40,41
 172.969559466 736.567949198 172.969559466 736.567949198 193.697080322 746.283974599 c 0,42,43
 214.424601178 756 214.424601178 756 238 756 c 0,44,45
 292.34840625 756 292.34840625 756 327.174203125 721.174203125 c 0,46,47
 362 686.34840625 362 686.34840625 362 635 c 0,18,19
EndSplineSet
Validated: 1
EndChar

StartChar: hungarumlaut
Encoding: 10 10 7
Width: 532
Flags: W
LayerCount: 2
Fore
SplineSet
385.03125 747.5 m 0,0,1
 396.816509484 747.5 396.816509484 747.5 410.957913697 738.072397191 c 0,2,3
 414.187466758 735.381102973 414.187466758 735.381102973 415.899312677 734.242792006 c 0,4,5
 422.16275204 731.480587305 422.16275204 731.480587305 425.813984141 728.5596022 c 0,6,7
 435.739504377 720.619187577 435.739504377 720.619187577 443.972631986 715.069389766 c 0,8,9
 450.850884288 711.843976939 450.850884288 711.843976939 455.695319644 706.522222351 c 0,10,11
 464.529411765 696.817712331 464.529411765 696.817712331 464.529411765 683.366782007 c 0,12,13
 464.529411765 665.353199366 464.529411765 665.353199366 451.827324975 653.402774259 c 0,14,15
 444.76643255 645.157542579 444.76643255 645.157542579 427.132531013 622.757718909 c 0,16,17
 384.076080036 568.064382457 384.076080036 568.064382457 349.79060995 529.017041526 c 0,18,19
 329.417969553 505.81486774 329.417969553 505.81486774 321.334193385 500.849440745 c 0,20,21
 304.325281439 493.836378458 304.325281439 493.836378458 299.607873969 493.836378458 c 0,22,23
 299.28336107 493.836378458 299.28336107 493.836378458 299.017013233 493.869565217 c 0,24,25
 286.907472601 493.869565217 286.907472601 493.869565217 276.737908685 501.327245422 c 0,26,27
 262.333333333 511.89060068 262.333333333 511.89060068 262.333333333 529.617283951 c 0,28,29
 262.333333333 539.12755634 262.333333333 539.12755634 267.057439212 548.997176483 c 0,30,31
 276.913348246 574.32326119 276.913348246 574.32326119 298.248740305 618.700876672 c 0,32,33
 306.5542856 635.976410886 306.5542856 635.976410886 314.09561149 651.357481799 c 1,34,35
 306.772792287 642.625076998 306.772792287 642.625076998 291.132531013 622.757718909 c 0,36,37
 248.076080036 568.064382457 248.076080036 568.064382457 213.79060995 529.017041526 c 0,38,39
 193.415542988 505.812104153 193.415542988 505.812104153 183.995815942 499.840834859 c 0,40,41
 174.576088896 493.869565565 174.576088896 493.869565565 162.880907372 493.869565217 c 0,42,43
 151.064888664 493.869565217 151.064888664 493.869565217 140.86117101 500.884621104 c 0,44,45
 125.733333333 511.285009507 125.733333333 511.285009507 125.733333333 529.215555556 c 0,46,47
 125.733333333 539.448735679 125.733333333 539.448735679 131.331259379 549.698159664 c 0,48,49
 144.343147431 582.886477529 144.343147431 582.886477529 195.030337471 686.465208325 c 0,50,51
 207.057346262 711.042139333 207.057346262 711.042139333 215.958357428 725.392844685 c 0,52,53
 229.67029921 747.5 229.67029921 747.5 249.03125 747.5 c 0,54,55
 260.816509484 747.5 260.816509484 747.5 274.957913697 738.072397191 c 0,56,57
 279.022569132 734.685184329 279.022569132 734.685184329 281.87305328 733.123584186 c 0,58,59
 288.531978273 729.475579959 288.531978273 729.475579959 294.808028908 724.594207243 c 0,60,61
 301.084079544 719.712834527 301.084079544 719.712834527 307.972631986 715.069389766 c 0,62,63
 314.850884288 711.843976939 314.850884288 711.843976939 319.695319644 706.522222351 c 0,64,65
 328.529411765 696.817712331 328.529411765 696.817712331 328.529411765 683.366782007 c 0,66,67
 328.529411765 681.790810691 328.529411765 681.790810691 328.432188001 680.26124774 c 1,68,69
 341.26429137 705.796482662 341.26429137 705.796482662 351.355737637 724.537740504 c 0,70,71
 365.707149822 747.5 365.707149822 747.5 385.03125 747.5 c 0,0,1
EndSplineSet
Validated: 1
EndChar

StartChar: ogonek
Encoding: 11 11 8
Width: 484
Flags: W
LayerCount: 2
Fore
SplineSet
324.934272061 47.3967326219 m 0,0,1
 359.293298013 66.3846153846 359.293298013 66.3846153846 402.985778798 66.3846153846 c 0,2,3
 425.918326548 66.3846153846 425.918326548 66.3846153846 433.901530483 63.7235474061 c 0,4,5
 450.951672394 58.040166769 450.951672394 58.040166769 454.596453336 37.9938715867 c 0,6,7
 455.166666667 34.8576982708 455.166666667 34.8576982708 455.166666667 28.0211270574 c 0,8,9
 455.166666667 21.184555844 455.166666667 21.184555844 446.351555095 -26.417046645 c 1,10,11
 422.79813529 -23.8 422.79813529 -23.8 420.735153996 -23.8 c 0,12,13
 418.672172701 -23.8 418.672172701 -23.8 411.651046735 -26.1403753222 c 0,14,15
 396.796810432 -31.0917874231 396.796810432 -31.0917874231 386.85673797 -45.0078888707 c 0,16,17
 383.266263157 -50.0345536085 383.266263157 -50.0345536085 382.860404306 -53.486416228 c 0,18,19
 382.454545455 -56.9382788475 382.454545455 -56.9382788475 382.454545455 -59.5950413223 c 0,20,21
 382.454545455 -70.9916359694 382.454545455 -70.9916359694 388.983988809 -80.6648853841 c 0,22,23
 395.513432164 -90.3381347988 395.513432164 -90.3381347988 421.651662093 -91.0083458226 c 2,24,-1
 422.10236687 -91.0239185546 l 2,25,26
 429.21890678 -91.3333333333 429.21890678 -91.3333333333 439.111655512 -91.3333333333 c 0,27,28
 466.294058328 -91.3333333333 466.294058328 -91.3333333333 501.493163312 -81.8566512224 c 2,29,-1
 516.949990143 -77.6951978448 l 1,30,-1
 527.212924202 -90.0107187166 l 2,31,32
 537.194353477 -101.988433846 537.194353477 -101.988433846 538.396486309 -115.211894991 c 0,33,34
 538.85827064 -120.29152264 538.85827064 -120.29152264 542.257243331 -147.483304162 c 1,35,36
 499.687549084 -163.446939504 499.687549084 -163.446939504 473.326070932 -173.130742322 c 0,37,38
 443.457560577 -184.102841956 443.457560577 -184.102841956 412.838671218 -184.104052557 c 0,39,40
 382.21978186 -184.105263158 382.21978186 -184.105263158 354.315033583 -174.617648744 c 0,41,42
 326.410285307 -165.13003433 326.410285307 -165.13003433 304.856605576 -146.655451704 c 0,43,44
 283.302925846 -128.180869077 283.302925846 -128.180869077 272.009646089 -101.829882979 c 0,45,46
 263.25 -81.3907087709 263.25 -81.3907087709 263.25 -58.25 c 0,47,48
 263.25 -16.7834002609 263.25 -16.7834002609 284.919191624 12.3866653871 c 0,49,50
 301.171375947 34.2646058221 301.171375947 34.2646058221 324.934272061 47.3967326219 c 0,0,1
EndSplineSet
Validated: 33
EndChar

StartChar: caron
Encoding: 12 12 9
Width: 432
Flags: W
LayerCount: 2
Fore
SplineSet
334 741 m 0,0,1
 350.501074502 741 350.501074502 741 359.447422006 727.953243224 c 0,2,3
 365 719.855733649 365 719.855733649 365 711.594684259 c 0,4,5
 365 703.333634869 365 703.333634869 362.669740499 696.790983192 c 0,6,7
 355.478321138 676.599690373 355.478321138 676.599690373 341.154261065 651.207038426 c 0,8,9
 326.830200993 625.814386478 326.830200993 625.814386478 314.214735233 603.106548111 c 0,10,11
 292.773069139 564.511549141 292.773069139 564.511549141 277.006405695 540.446641779 c 0,12,13
 261.239742251 516.381734418 261.239742251 516.381734418 255.877159034 510.167947515 c 0,14,15
 250.514575817 503.954160613 250.514575817 503.954160613 244.835608279 500.54678009 c 2,16,-1
 232.479941092 493.133379778 l 1,17,-1
 219.885414286 500.130339114 l 2,18,19
 204.097934978 508.901160952 204.097934978 508.901160952 199.620286292 518.673909661 c 1,20,-1
 143.676118075 609.951243423 l 2,21,22
 115.384321029 656.056394164 115.384321029 656.056394164 100.398966198 696.730928705 c 0,23,24
 97 706.927827299 97 706.927827299 97 713 c 0,25,26
 97 728.961407372 97 728.961407372 108.595104564 738.237491024 c 0,27,28
 117.187129674 745.111111111 117.187129674 745.111111111 129.111111111 745.111111111 c 0,29,30
 141.900277032 745.111111111 141.900277032 745.111111111 153.286285722 735.243236912 c 0,31,32
 165.88094523 724.327865339 165.88094523 724.327865339 195.573737748 684.396178849 c 0,33,34
 216.750581397 655.916975322 216.750581397 655.916975322 231.581275107 640.431429423 c 1,35,36
 240.664779115 650.836023486 240.664779115 650.836023486 259.60122384 676.785887495 c 0,37,38
 278.537668564 702.735751505 278.537668564 702.735751505 290.43860242 716.009870037 c 0,39,40
 302.339536276 729.283988568 302.339536276 729.283988568 312.641546328 735.141994284 c 0,41,42
 322.94355638 741 322.94355638 741 334 741 c 0,0,1
EndSplineSet
Validated: 1
EndChar

StartChar: dotlessi
Encoding: 13 13 10
Width: 320
Flags: W
LayerCount: 2
Fore
SplineSet
229 134.33473996 m 1,0,-1
 228.4 91.8 l 2,1,2
 228.4 63.8234138285 228.4 63.8234138285 231.97637857 55.6222196273 c 1,3,4
 239.312946216 51.7360292297 239.312946216 51.7360292297 251.344936803 49.5874594778 c 0,5,6
 263.37692739 47.4388897259 263.37692739 47.4388897259 277.526258368 43.7477599055 c 0,7,8
 291.675589346 40.0566300851 291.675589346 40.0566300851 299.811299431 27.3224751698 c 0,9,10
 306 17.6358134093 306 17.6358134093 306 4.72818723104 c 0,11,12
 306 -8.17943894726 306 -8.17943894726 298.879928169 -17.7268079939 c 0,13,14
 289.478136292 -30.3337561921 289.478136292 -30.3337561921 272.288105009 -31.8964863087 c 0,15,16
 260.149454405 -33 260.149454405 -33 246.201342189 -33 c 0,17,18
 232.253229974 -33 232.253229974 -33 214.253229974 -30.5 c 0,19,20
 196.253229974 -28 196.253229974 -28 175.201342189 -28 c 0,21,22
 154.149454405 -28 154.149454405 -28 126.649454405 -30.5 c 0,23,24
 99.1494544051 -33 99.1494544051 -33 72 -33 c 2,25,-1
 60 -33 l 2,26,27
 48.4808726367 -33 48.4808726367 -33 38.1275229077 -30.0419000774 c 0,28,29
 23.0087781522 -25.7222587187 23.0087781522 -25.7222587187 16.5249519188 -11.1336496937 c 0,30,31
 13 -3.20250787633 13 -3.20250787633 13 8.57294918684 c 0,32,33
 13 20.34840625 13 20.34840625 22.325796875 29.674203125 c 2,34,-1
 26.325796875 33.674203125 l 1,35,-1
 27.4342056478 34.7826118978 l 1,36,37
 42.659883955 46.6248061367 42.659883955 46.6248061367 57.945250269 49.1723671891 c 0,38,39
 73.2306165831 51.7199282414 73.2306165831 51.7199282414 81.5046097693 52.8482000395 c 0,40,41
 89.7786029554 53.9764718376 89.7786029554 53.9764718376 93.8478942467 56.1883652684 c 0,42,43
 94.7696853003 58.228494149 94.7696853003 58.228494149 95.8848426502 63.8620687414 c 0,44,45
 97 69.4956433338 97 69.4956433338 97 72 c 2,46,-1
 97 87 l 1,47,-1
 97.6666666667 130.111111111 l 1,48,-1
 97.3333333333 171.888888889 l 2,49,50
 97.3333333333 193.385330415 97.3333333333 193.385330415 98.0116470421 215.769682804 c 2,51,-1
 98.0202579624 216.014664537 l 2,52,53
 99.0311564045 241.28712559 99.0311564045 241.28712559 100.515578202 265.03979817 c 0,54,55
 102 288.79247075 102 288.79247075 102 305.854060979 c 0,56,57
 102 345.399300139 102 345.399300139 96.4144666933 354.358376664 c 0,58,59
 94.5901813613 355.892760227 94.5901813613 355.892760227 79.6237508327 362.055408092 c 0,60,61
 64.657320304 368.218055957 64.657320304 368.218055957 56.843948875 372.124741671 c 0,62,63
 36 382.546716109 36 382.546716109 36 401.821492302 c 0,64,65
 36 421.096268495 36 421.096268495 53.2939207248 433.068982843 c 0,66,67
 71.0933849783 445.391688865 71.0933849783 445.391688865 105.354832035 454.111604835 c 0,68,69
 113.294618394 456.677007834 113.294618394 456.677007834 137.166314255 470.317976898 c 0,70,71
 176.081819829 492.555408654 176.081819829 492.555408654 184.94313293 495.777704327 c 0,72,73
 193.804446031 499 193.804446031 499 202.018811091 499 c 0,74,75
 210.23317615 499 210.23317615 499 217.990395775 493.82852025 c 0,76,77
 231 485.155450767 231 485.155450767 231 469.365286449 c 0,78,79
 231 438.371507465 231 438.371507465 228.972966628 407.751069457 c 0,80,81
 225.03176748 285.132246442 225.03176748 285.132246442 228.991210172 134.66875343 c 2,82,-1
 229 134.33473996 l 1,0,-1
EndSplineSet
Validated: 33
EndChar

StartChar: fraction
Encoding: 25 25 11
Width: 271
Flags: W
LayerCount: 2
Fore
SplineSet
369 715 m 2,0,1
 387.380663223 715 387.380663223 715 410.555363397 700.00460577 c 0,2,3
 426.767691675 689.514275707 426.767691675 689.514275707 436.945056313 683.962985905 c 2,4,-1
 461.084334389 670.796106954 l 1,5,-1
 445.741516831 648.046411955 l 2,6,7
 416.266424509 604.34196472 416.266424509 604.34196472 384.467675825 563.457859269 c 0,8,9
 352.668927141 522.573753817 352.668927141 522.573753817 319.602678055 481.489148274 c 0,10,11
 223.588828387 358.472823017 223.588828387 358.472823017 128.300997604 238.739409166 c 0,12,13
 33.0067221931 118.997897351 33.0067221931 118.997897351 -67.9980412013 -23.5310465503 c 1,14,-1
 -86.2702227727 -16.2221739218 l 2,15,16
 -93.9738118386 -13.1407382954 -93.9738118386 -13.1407382954 -107.23696453 -3.80740862392 c 0,17,18
 -120.500117221 5.52592104755 -120.500117221 5.52592104755 -140.206383886 12.3802746703 c 2,19,-1
 -172.46359832 23.6001753431 l 1,20,21
 -27.8126472415 217.2458034 -27.8126472415 217.2458034 99.1363886851 376.681956705 c 0,22,23
 226.093961876 536.128832018 226.093961876 536.128832018 356.27830307 715 c 1,24,-1
 369 715 l 2,0,1
EndSplineSet
Validated: 1
EndChar

StartChar: fi
Encoding: 26 26 12
Width: 624
Flags: W
LayerCount: 2
Fore
SplineSet
533 134.33473996 m 1,0,-1
 532.4 91.8 l 2,1,2
 532.4 63.59777029 532.4 63.59777029 535.936784725 55.9385778482 c 1,3,4
 544.005438305 51.7611122656 544.005438305 51.7611122656 555.729705099 49.5899517127 c 0,5,6
 567.453971893 47.4187911598 567.453971893 47.4187911598 581.56478062 43.7377106224 c 0,7,8
 595.675589346 40.0566300851 595.675589346 40.0566300851 603.811299431 27.3224751698 c 0,9,10
 610 17.6358134093 610 17.6358134093 610 4.72818723104 c 0,11,12
 610 -8.17943894726 610 -8.17943894726 602.879928169 -17.7268079939 c 0,13,14
 593.478136292 -30.3337561921 593.478136292 -30.3337561921 576.288105009 -31.8964863087 c 0,15,16
 564.149454405 -33 564.149454405 -33 550.201342189 -33 c 0,17,18
 536.253229974 -33 536.253229974 -33 518.253229974 -30.5 c 0,19,20
 500.253229974 -28 500.253229974 -28 479.201342189 -28 c 0,21,22
 458.149454405 -28 458.149454405 -28 430.649454405 -30.5 c 0,23,24
 403.149454405 -33 403.149454405 -33 376 -33 c 2,25,-1
 365 -33 l 2,26,27
 353.705330015 -33 353.705330015 -33 343.050461189 -30.1587016465 c 0,28,29
 327.728119525 -26.0727438694 327.728119525 -26.0727438694 320.896184798 -11.7256809414 c 0,30,31
 317 -3.54369286666 317 -3.54369286666 317 8.40235669167 c 0,32,33
 317 20.34840625 317 20.34840625 326.325796875 29.674203125 c 2,34,-1
 330.325796875 33.674203125 l 1,35,-1
 331.434205648 34.7826118978 l 1,36,37
 346.659883955 46.6248061367 346.659883955 46.6248061367 361.945250269 49.1723671891 c 0,38,39
 377.230616583 51.7199282414 377.230616583 51.7199282414 385.504609769 52.8482000395 c 0,40,41
 393.778602955 53.9764718376 393.778602955 53.9764718376 397.847894247 56.1883652684 c 0,42,43
 398.7696853 58.2284941489 398.7696853 58.2284941489 399.88484265 63.8620687413 c 0,44,45
 401 69.4956433338 401 69.4956433338 401 72 c 2,46,-1
 401 87 l 1,47,-1
 401.666666667 130.111111111 l 1,48,-1
 401.333333333 171.888888889 l 2,49,50
 401.333333333 193.385330415 401.333333333 193.385330415 402.011647042 215.769682804 c 2,51,-1
 402.020257962 216.014664537 l 2,52,53
 403.031156405 241.28712559 403.031156405 241.28712559 404.515578202 265.03979817 c 0,54,55
 406 288.79247075 406 288.79247075 406 307.44490553 c 0,56,57
 406 345.257239992 406 345.257239992 396.791061543 363.017335587 c 0,58,59
 387.621561906 380.701370602 387.621561906 380.701370602 365.317500875 382 c 1,60,-1
 259 382 l 2,61,62
 237.324879882 382 237.324879882 382 208.58124377 381.296436382 c 1,63,64
 209 367.425076102 209 367.425076102 209 358 c 2,65,-1
 208 82 l 2,66,67
 208 66.7083844857 208 66.7083844857 211.494017549 61.5838254141 c 0,68,69
 218.532762791 51.2603323917 218.532762791 51.2603323917 236.820210125 49.490579424 c 0,70,71
 255.107657458 47.7208264562 255.107657458 47.7208264562 280.633709743 41.7146965067 c 1,72,-1
 285.674203125 36.674203125 l 2,73,74
 297 25.34840625 297 25.34840625 297 8 c 0,75,76
 297 -6.0427980387 297 -6.0427980387 288.529290777 -15.48430037 c 1,77,-1
 286.702625156 -20.964297234 l 1,78,-1
 278.376741435 -25.7219450744 l 2,79,80
 265.640145315 -33 265.640145315 -33 245.878080965 -33 c 0,81,82
 226.116016614 -33 226.116016614 -33 206.116016614 -30 c 0,83,84
 186.116016614 -27 186.116016614 -27 163.200194832 -27 c 0,85,86
 140.28437305 -27 140.28437305 -27 110.78437305 -30 c 0,87,88
 81.2843730501 -33 81.2843730501 -33 62.5403626107 -33 c 0,89,90
 43.7963521714 -33 43.7963521714 -33 32.329925014 -31.9079593183 c 0,91,92
 20.8634978565 -30.8159186367 20.8634978565 -30.8159186367 12.8625089325 -25.1771264426 c 0,93,94
 -1 -15.4073582425 -1 -15.4073582425 -1 2 c 0,95,96
 -1 14.8623675375 -1 14.8623675375 4.64842529602 24.7471118055 c 0,97,98
 12.6407278842 38.7336413349 12.6407278842 38.7336413349 27.1860637584 42.9760309648 c 0,99,100
 41.7313996325 47.2184205948 41.7313996325 47.2184205948 54.4883381874 50.0990196233 c 0,101,102
 67.2452767422 52.9796186518 67.2452767422 52.9796186518 74.4096045582 59.19715006 c 0,103,104
 77.9999982916 65.5426983638 77.9999982916 65.5426983638 78 81 c 2,105,-1
 78 375 l 2,106,107
 78 377.074540984 78 377.074540984 77.9010483103 379.195299487 c 0,108,109
 64.3015124661 380.428700344 64.3015124661 380.428700344 52.7316495999 380.74860719 c 0,110,111
 41.1617867336 381.068514035 41.1617867336 381.068514035 29.0778059311 383.485310147 c 0,112,113
 13.0697403214 386.686923269 13.0697403214 386.686923269 4.85442708412 399.626041618 c 0,114,115
 -1 409 -1 409 -1 421 c 0,116,117
 -1 441.924985254 -1 441.924985254 5.54678009017 452.835608279 c 0,118,119
 13.8013921009 466.593294963 13.8013921009 466.593294963 33.1290498172 471.679520678 c 0,120,121
 48.7105553882 475.779916881 48.7105553882 475.779916881 78.3820419964 478.550969907 c 1,122,123
 80.3820358233 509.036716085 80.3820358233 509.036716085 81.7453181501 546.750356449 c 0,124,125
 83.1086004768 584.463996813 83.1086004768 584.463996813 93.7068025421 625.929141552 c 0,126,127
 103.436748265 667.922112295 103.436748265 667.922112295 123.569880351 706.011821097 c 0,128,129
 143.703012437 744.101529899 143.703012437 744.101529899 173.749017186 773.591127153 c 0,130,131
 203.795021936 803.080724407 203.795021936 803.080724407 242.707467055 820.070665234 c 0,132,133
 281.619912174 837.060606061 281.619912174 837.060606061 325.932966024 837.060606061 c 0,134,135
 354.320416524 837.060606061 354.320416524 837.060606061 378.988905697 833.618491269 c 0,136,137
 403.65739487 830.176376477 403.65739487 830.176376477 425.3399071 819.025370188 c 0,138,139
 447.022419329 807.874363899 447.022419329 807.874363899 462.473942351 789.063814134 c 0,140,141
 477.925465372 770.253264369 477.925465372 770.253264369 479.845235067 741.448967818 c 0,142,143
 480.899999849 736.157972808 480.899999849 736.157972808 480.9 730.845 c 0,144,145
 480.9 715.540268934 480.9 715.540268934 471.501116123 700.099245423 c 0,146,147
 462.102232247 684.658221911 462.102232247 684.658221911 445.906891509 675.088247839 c 0,148,149
 426.930625936 663.875 426.930625936 663.875 406.757574233 663.875 c 0,150,151
 386.58452253 663.875 386.58452253 663.875 372.777580705 675.143054563 c 0,152,153
 360.393540659 684.112867754 360.393540659 684.112867754 354.578338726 703.219944065 c 0,154,155
 352.798224842 709.068889683 352.798224842 709.068889683 346.586208827 715.591506499 c 0,156,157
 340.374192812 722.114123315 340.374192812 722.114123315 324.469497186 729.096672614 c 0,158,159
 308.745251474 736 308.745251474 736 274 736 c 0,160,161
 261.586464757 736 261.586464757 736 253.71365063 728.914467286 c 0,162,163
 232.008863192 709.380158591 232.008863192 709.380158591 219.782104872 659.532605441 c 0,164,165
 206 603.344024041 206 603.344024041 206 518 c 2,166,-1
 206 504 l 2,167,168
 206 493.179074559 206 493.179074559 206.424386428 478 c 1,169,-1
 422 478 l 2,170,171
 440.445196022 478 440.445196022 478 464.774319059 489.585296684 c 0,172,173
 487.981559659 500.636363636 487.981559659 500.636363636 499.281934142 500.636363636 c 0,174,175
 510.582308626 500.636363636 510.582308626 500.636363636 519.040656371 494.007702665 c 0,176,177
 523.874738632 491.78560841 523.874738632 491.78560841 527.485867019 487.993924974 c 0,178,179
 535 480.104085344 535 480.104085344 535 466.839603738 c 0,180,181
 535 438.371507465 535 438.371507465 532.972966628 407.751069457 c 0,182,183
 529.03176748 285.132246442 529.03176748 285.132246442 532.991210172 134.66875343 c 2,184,-1
 533 134.33473996 l 1,0,-1
EndSplineSet
Validated: 33
EndChar

StartChar: fl
Encoding: 27 27 13
Width: 630
Flags: W
LayerCount: 2
Fore
SplineSet
526 798 m 1,0,-1
 527.000000007 741.961555945 l 1,1,-1
 526 79 l 2,2,3
 526 63.1482566255 526 63.1482566255 528.736957406 60.125518952 c 2,4,-1
 529.649276542 59.1179397276 l 1,5,6
 543.90807683 52.3881986533 543.90807683 52.3881986533 566.786605708 49.8461398891 c 2,7,-1
 575.213620502 48.9098049121 l 2,8,9
 589.884824819 47.8892068142 589.884824819 47.8892068142 599.919272534 40.2158056201 c 0,10,11
 615 28.6834846168 615 28.6834846168 615 8 c 0,12,13
 615 -3.78375834719 615 -3.78375834719 609.295245315 -13.3392224442 c 0,14,15
 603.59049063 -22.8946865411 603.59049063 -22.8946865411 592.261523225 -28.0407322842 c 0,16,17
 585.86065487 -32 585.86065487 -32 574 -32 c 2,18,-1
 570 -32 l 2,19,20
 544.657096124 -32 544.657096124 -32 521.157096124 -29.5 c 0,21,22
 497.657096124 -27 497.657096124 -27 471.993012606 -27 c 0,23,24
 446.328929089 -27 446.328929089 -27 417.828929089 -30 c 0,25,26
 389.328929089 -33 389.328929089 -33 358 -33 c 0,27,28
 351.116016614 -33 351.116016614 -33 339.700788199 -31.2877157378 c 0,29,30
 328.285559784 -29.5754314755 328.285559784 -29.5754314755 320.607335415 -23.509634224 c 0,31,32
 308 -13.5498392462 308 -13.5498392462 308 3.22250554143 c 0,33,34
 308 19.9948503291 308 19.9948503291 315.167394939 29.551376915 c 0,35,36
 322.334789879 39.107903501 322.334789879 39.107903501 332.925597809 41.7556054835 c 2,37,-1
 350.942946795 47.9883893902 l 2,38,39
 366.754422302 52.6388233627 366.754422302 52.6388233627 381.605946314 58.6722549925 c 0,40,41
 387.565105967 61.0931636016 387.565105967 61.0931636016 389.968824774 67.3812972955 c 0,42,43
 393.999999987 77.9268605312 393.999999987 77.9268605312 393.999999987 102.046851986 c 2,44,-1
 395 646 l 2,45,46
 395 678.196667302 395 678.196667302 385.224542914 698.138599759 c 0,47,48
 364.136653218 741.157894737 364.136653218 741.157894737 314.177285319 741.157894737 c 0,49,50
 297.725794075 741.157894737 297.725794075 741.157894737 279.902364638 736.702037378 c 0,51,52
 256.945655131 731.136774467 256.945655131 731.136774467 244.356822732 710.505076924 c 0,53,54
 213.591368323 660.083915531 213.591368323 660.083915531 208.446877894 580.858762922 c 0,55,56
 206 543.176843355 206 543.176843355 206 518 c 2,57,-1
 206 504 l 2,58,59
 206 493.179074559 206 493.179074559 206.424386428 478 c 1,60,-1
 302 478 l 2,61,62
 325.34840625 478 325.34840625 478 339.674203125 463.674203125 c 2,63,-1
 347 456.34840625 l 1,64,-1
 347 446 l 1,65,-1
 348 428 l 1,66,67
 348 408.671816338 348 408.671816338 337.01188594 394.020997591 c 2,68,-1
 331.260930879 386.353057509 l 1,69,70
 309.495643334 382 309.495643334 382 294 382 c 2,71,-1
 209.285747918 382 l 1,72,73
 209 367.659402982 209 367.659402982 209 358 c 2,74,-1
 208 82 l 2,75,76
 208 66.7083844857 208 66.7083844857 211.494017549 61.5838254141 c 0,77,78
 218.532762791 51.2603323917 218.532762791 51.2603323917 236.820210125 49.490579424 c 0,79,80
 255.107657458 47.7208264562 255.107657458 47.7208264562 280.633709743 41.7146965067 c 1,81,-1
 285.674203125 36.674203125 l 2,82,83
 297 25.34840625 297 25.34840625 297 8 c 0,84,85
 297 -6.0427980387 297 -6.0427980387 288.529290777 -15.48430037 c 1,86,-1
 286.702625156 -20.964297234 l 1,87,-1
 278.376741435 -25.7219450744 l 2,88,89
 265.640145315 -33 265.640145315 -33 245.878080965 -33 c 0,90,91
 226.116016614 -33 226.116016614 -33 206.116016614 -30 c 0,92,93
 186.116016614 -27 186.116016614 -27 163.200194832 -27 c 0,94,95
 140.28437305 -27 140.28437305 -27 110.78437305 -30 c 0,96,97
 81.2843730501 -33 81.2843730501 -33 62.5403626107 -33 c 0,98,99
 43.7963521714 -33 43.7963521714 -33 32.329925014 -31.9079593183 c 0,100,101
 20.8634978565 -30.8159186367 20.8634978565 -30.8159186367 12.8625089325 -25.1771264426 c 0,102,103
 -1 -15.4073582425 -1 -15.4073582425 -1 2 c 0,104,105
 -1 14.8623675375 -1 14.8623675375 4.64842529602 24.7471118055 c 0,106,107
 12.6407278842 38.7336413349 12.6407278842 38.7336413349 27.1860637584 42.9760309648 c 0,108,109
 41.7313996325 47.2184205948 41.7313996325 47.2184205948 54.4883381874 50.0990196233 c 0,110,111
 67.2452767422 52.9796186518 67.2452767422 52.9796186518 74.4096045582 59.19715006 c 0,112,113
 77.9999982916 65.5426983638 77.9999982916 65.5426983638 78 81 c 2,114,-1
 78 375 l 2,115,116
 78 377.074540984 78 377.074540984 77.9010483103 379.195299487 c 0,117,118
 64.3015124661 380.428700344 64.3015124661 380.428700344 52.7316495999 380.74860719 c 0,119,120
 41.1617867336 381.068514035 41.1617867336 381.068514035 29.0778059311 383.485310147 c 0,121,122
 13.0697403214 386.686923269 13.0697403214 386.686923269 4.85442708412 399.626041618 c 0,123,124
 -1 409 -1 409 -1 421 c 0,125,126
 -1 441.924985254 -1 441.924985254 5.54678009017 452.835608279 c 0,127,128
 13.8013921009 466.593294963 13.8013921009 466.593294963 33.1290498172 471.679520678 c 0,129,130
 48.7105553882 475.779916881 48.7105553882 475.779916881 78.3820419964 478.550969907 c 1,131,132
 80.3820358233 509.036716085 80.3820358233 509.036716085 81.7453181501 546.750356449 c 0,133,134
 83.1086004768 584.463996813 83.1086004768 584.463996813 93.7068025421 625.929141552 c 0,135,136
 103.436748265 667.922112295 103.436748265 667.922112295 123.569880351 706.011821097 c 0,137,138
 143.703012437 744.101529899 143.703012437 744.101529899 173.749017186 773.591127153 c 0,139,140
 203.795021936 803.080724407 203.795021936 803.080724407 242.707467055 820.070665234 c 0,141,142
 281.619912174 837.060606061 281.619912174 837.060606061 325.932966024 837.060606061 c 0,143,144
 328.760903281 837.060606061 328.760903281 837.060606061 331.605255536 836.992801589 c 2,145,-1
 331.819129583 836.98680624 l 2,146,147
 365.675614044 835.89466158 365.675614044 835.89466158 390.880277238 829.20771012 c 0,148,149
 416.084940432 822.520758661 416.084940432 822.520758661 434.489387033 806.793755034 c 1,150,151
 448.578446297 811.81824163 448.578446297 811.81824163 464.355443561 817.787916271 c 0,152,153
 480.132440825 823.757590911 480.132440825 823.757590911 499.24081843 829.217127369 c 1,154,-1
 508.842247627 822.816174571 l 1,155,-1
 514.842247627 818.816174571 l 1,156,-1
 526 811.377672989 l 1,157,-1
 526 798 l 1,0,-1
EndSplineSet
Validated: 33
EndChar

StartChar: Lslash
Encoding: 28 28 14
Width: 642
Flags: W
LayerCount: 2
Fore
SplineSet
18.104852274 300.950886413 m 0,0,1
 15.8571428571 306.059316906 15.8571428571 306.059316906 15.8571428571 313.350725772 c 0,2,3
 15.8571428571 333.88185532 15.8571428571 333.88185532 49.843948875 350.875258329 c 0,4,5
 59.0915710964 355.499069439 59.0915710964 355.499069439 68.1532328714 359.791295552 c 2,6,-1
 84.1701170212 367.990353911 l 2,7,8
 96.6166934773 373.324600964 96.6166934773 373.324600964 107.845706801 380.062008958 c 0,9,10
 119.074720125 386.799416952 119.074720125 386.799416952 128 391.813288496 c 1,11,-1
 128 614 l 2,12,13
 128 636.903175875 128 636.903175875 123.52519066 654.802413234 c 0,14,15
 121.689340752 665.358550204 121.689340752 665.358550204 116.670117021 667.509646089 c 0,16,17
 102.390910993 673.629305815 102.390910993 673.629305815 83.7546086038 675.958843614 c 0,18,19
 65.1183062143 678.288381413 65.1183062143 678.288381413 49.8034016593 681.159926017 c 0,20,21
 34.4884971042 684.031470621 34.4884971042 684.031470621 25.355067467 692.137389424 c 0,22,23
 12 703.990011801 12 703.990011801 12 723 c 0,24,25
 12 736.045137714 12 736.045137714 17.7215394211 745.746878471 c 0,26,27
 26.4477941276 760.543571234 26.4477941276 760.543571234 44.1938088599 763.629834666 c 0,28,29
 57.8222595301 766 57.8222595301 766 83.5610994732 766 c 0,30,31
 109.299939416 766 109.299939416 766 143.299939416 762.5 c 0,32,33
 177.299939416 759 177.299939416 759 213.276913966 759 c 0,34,35
 249.253888517 759 249.253888517 759 283.253888517 761 c 0,36,37
 317.253888517 763 317.253888517 763 361 763 c 2,38,-1
 370.498096901 763 l 1,39,-1
 377.597817793 756.689136985 l 2,40,41
 393.643546987 742.426266591 393.643546987 742.426266591 396 723.574642484 c 1,42,-1
 396 722 l 2,43,44
 396 705.887571692 396 705.887571692 387.305231713 696.033500967 c 0,45,46
 378.610463426 686.179430242 378.610463426 686.179430242 365.389377712 681.77240167 c 0,47,48
 352.168291997 677.365373099 352.168291997 677.365373099 332.822752375 675.606687678 c 2,49,-1
 300.358461863 672.610009688 l 2,50,51
 291.874591683 671.814646859 291.874591683 671.814646859 286.63297857 668.421699242 c 0,52,53
 278 659.259832835 278 659.259832835 278 610.560642779 c 0,54,55
 278 561.861452723 278 561.861452723 277.608770873 526.649351601 c 0,56,57
 277.217541747 491.437250479 277.217541747 491.437250479 277.09493785 465.837875317 c 1,58,59
 287.962041648 471.242742504 287.962041648 471.242742504 307.441632308 481.330420371 c 0,60,61
 339.484168685 497.923930505 339.484168685 497.923930505 346.099525824 500.570073361 c 0,62,63
 352.714882963 503.216216216 352.714882963 503.216216216 358.11614317 503.216216216 c 0,64,65
 371.452953669 503.216216216 371.452953669 503.216216216 381.504133879 491.8999497 c 0,66,67
 387.036746089 485.670978277 387.036746089 485.670978277 393.739967465 471.845584189 c 0,68,69
 400.443188841 458.020190102 400.443188841 458.020190102 411.165604919 436.575357945 c 0,70,71
 413.2 430.472172701 413.2 430.472172701 413.2 425.78 c 0,72,73
 413.2 411.961751671 413.2 411.961751671 401.450321249 401.680782764 c 0,74,75
 388.890122393 390.690608765 388.890122393 390.690608765 372.050250835 382.832002038 c 0,76,77
 363.092464413 378.651701707 363.092464413 378.651701707 276 333.758678814 c 1,78,-1
 276 204 l 2,79,80
 276 152.263195066 276 152.263195066 278.342487635 128.838318713 c 0,81,82
 282.078938232 91.4738127475 282.078938232 91.4738127475 288.119441699 81.5020450193 c 1,83,84
 307.940340313 67.8734032216 307.940340313 67.8734032216 333.489945519 64.8227040705 c 0,85,86
 347.769797992 63.1176470588 347.769797992 63.1176470588 362.398750894 63.1176470588 c 0,87,88
 377.027703796 63.1176470588 377.027703796 63.1176470588 399.015474233 66.2587571213 c 0,89,90
 421.00324467 69.3998671837 421.00324467 69.3998671837 443.439586325 77.3185760029 c 0,91,92
 465.875927979 85.2372848221 465.875927979 85.2372848221 473.145331547 90.891265375 c 1,93,94
 486.551588315 98.4322848071 486.551588315 98.4322848071 502.991392283 118.870960011 c 0,95,96
 519.431196251 139.309635214 519.431196251 139.309635214 533.92921781 163.473004478 c 0,97,98
 548.427239368 187.636373742 548.427239368 187.636373742 557.466433609 203.356711552 c 0,99,100
 574.463167646 232.916249007 574.463167646 232.916249007 580.670692589 237.744323963 c 0,101,102
 594.059569298 248.157894737 594.059569298 248.157894737 610.620498615 248.157894737 c 0,103,104
 616.179688445 248.157894737 616.179688445 248.157894737 621.827358801 246.930140312 c 0,105,106
 645.699106215 241.740630004 645.699106215 241.740630004 654.857764131 221.133649694 c 2,107,-1
 660.284757193 208.922915303 l 1,108,-1
 653.128287403 197.637712941 l 2,109,110
 628.687339878 159.096218767 628.687339878 159.096218767 615.30960813 120.396351925 c 0,111,112
 601.931876382 81.6964850823 601.931876382 81.6964850823 593.534487585 50.0827860812 c 0,113,114
 585.137098787 18.46908708 585.137098787 18.46908708 581.057633248 3.63466693536 c 0,115,116
 576.978167708 -11.1997532093 576.978167708 -11.1997532093 573.586625268 -18.2525020141 c 0,117,118
 570.195082828 -25.305250819 570.195082828 -25.305250819 565.398196323 -30.2251344134 c 0,119,120
 555.867702376 -40 555.867702376 -40 543 -40 c 0,121,122
 473.41450482 -40 473.41450482 -40 401.91450482 -31 c 0,123,124
 330.41450482 -22 330.41450482 -22 264 -22 c 0,125,126
 231.012641865 -22 231.012641865 -22 206.558159836 -23.9563585623 c 0,127,128
 182.103677807 -25.9127171246 182.103677807 -25.9127171246 159.190083267 -27.9052036064 c 0,129,130
 136.103677807 -29.9127171246 136.103677807 -29.9127171246 110.558159836 -31.9563585623 c 0,131,132
 85.012641865 -34 85.012641865 -34 50 -34 c 0,133,134
 31.9892099118 -34 31.9892099118 -34 20.4689561643 -19.5996828156 c 0,135,136
 11 -7.76348761029 11 -7.76348761029 11 5.49761447251 c 0,137,138
 11 37.9308189134 11 37.9308189134 36.7297772273 48.2221739218 c 0,139,140
 50.4036156721 53.6917092997 50.4036156721 53.6917092997 67.4012109107 54.7883283473 c 0,141,142
 84.3988061493 55.884947395 84.3988061493 55.884947395 100.939181931 58.247858221 c 0,143,144
 110.50432046 59.6143065822 110.50432046 59.6143065822 118.543647631 66.9049550231 c 0,145,146
 124.674321597 73.7377699671 124.674321597 73.7377699671 128.350667362 97.4297800968 c 0,147,148
 135.449888584 143.180324756 135.449888584 143.180324756 131.034088905 228.184468584 c 0,149,150
 130.191261384 244.408898367 130.191261384 244.408898367 129.524972129 259.309202173 c 1,151,152
 82.6208534968 235.857142857 82.6208534968 235.857142857 66.9591836735 235.857142857 c 0,153,154
 60.5353317624 235.857142857 60.5353317624 235.857142857 54.0252503421 238.895180853 c 0,155,156
 47.5151689219 241.933218849 47.5151689219 241.933218849 43.4022086352 249.120375309 c 0,157,158
 38.7505767094 255.565122352 38.7505767094 255.565122352 33.9975063096 265.599386615 c 0,159,160
 29.2444359098 275.633650877 29.2444359098 275.633650877 18.104852274 300.950886413 c 0,0,1
EndSplineSet
Validated: 33
EndChar

StartChar: lslash
Encoding: 29 29 15
Width: 324
Flags: W
LayerCount: 2
Fore
SplineSet
228 666 m 1,0,-1
 227 527 l 1,1,-1
 227 494.075190332 l 1,2,3
 243.216495709 502.588851093 243.216495709 502.588851093 255.733695905 509.328881968 c 0,4,5
 285.307680639 525.253335286 285.307680639 525.253335286 289.011281801 526.734775751 c 0,6,7
 292.714882963 528.216216216 292.714882963 528.216216216 298.110299489 528.216216216 c 0,8,9
 311.721280176 528.216216216 311.721280176 528.216216216 321.700201775 516.528673508 c 0,10,11
 327.098587805 510.205959511 327.098587805 510.205959511 333.238884289 496.697307247 c 0,12,13
 339.379180772 483.188654983 339.379180772 483.188654983 351.010390727 462.04100052 c 1,14,15
 353.2 455.472172701 353.2 455.472172701 353.2 450.76 c 0,16,17
 353.2 431.461474984 353.2 431.461474984 327.575811357 415.692743511 c 0,18,19
 319.512831434 410.730909713 319.512831434 410.730909713 312.095494342 407.552050959 c 0,20,21
 304.678157251 404.373192206 304.678157251 404.373192206 299.452816697 401.772775535 c 2,22,-1
 227 363.018943348 l 1,23,-1
 227 78 l 2,24,25
 227 62.1482566255 227 62.1482566255 229.736957406 59.125518952 c 2,26,-1
 230.649276542 58.1179397276 l 1,27,28
 244.90807683 51.3881986533 244.90807683 51.3881986533 267.786605708 48.8461398891 c 2,29,-1
 276.213620502 47.9098049121 l 2,30,31
 290.884824819 46.8892068142 290.884824819 46.8892068142 300.919272534 39.2158056201 c 0,32,33
 316 27.6834846168 316 27.6834846168 316 7 c 0,34,35
 316 -4.78375834719 316 -4.78375834719 310.295245315 -14.3392224442 c 0,36,37
 304.59049063 -23.8946865413 304.59049063 -23.8946865413 293.261523225 -29.0407322843 c 0,38,39
 286.86065487 -33 286.86065487 -33 275 -33 c 2,40,-1
 271 -33 l 2,41,42
 245.657096124 -33 245.657096124 -33 222.157096124 -30.5 c 0,43,44
 198.657096124 -28 198.657096124 -28 172.993012606 -28 c 0,45,46
 147.328929089 -28 147.328929089 -28 118.828929089 -31 c 0,47,48
 90.3289290889 -34 90.3289290889 -34 59 -34 c 0,49,50
 52.1160166139 -34 52.1160166139 -34 40.7007881989 -32.2877157378 c 0,51,52
 29.2855597839 -30.5754314755 29.2855597839 -30.5754314755 21.607335415 -24.509634224 c 0,53,54
 9 -14.5498392462 9 -14.5498392462 9 2.22250554143 c 0,55,56
 9 18.9948503291 9 18.9948503291 16.1673949395 28.551376915 c 0,57,58
 23.334789879 38.107903501 23.334789879 38.107903501 33.9255978091 40.7556054835 c 2,59,-1
 51.9429467954 46.9883893902 l 2,60,61
 67.7544223021 51.6388233627 67.7544223021 51.6388233627 82.6059463139 57.6722549925 c 0,62,63
 88.5651059671 60.0931636016 88.5651059671 60.0931636016 90.9688247742 66.3812972956 c 0,64,65
 95 76.9268605657 95 76.9268605657 95 101 c 2,66,-1
 95 294.431643435 l 1,67,-1
 82.6921268143 287.900935214 l 2,68,69
 76.9166536196 284.836398417 76.9166536196 284.836398417 59.8118501416 277.994477026 c 0,70,71
 42.7070466637 271.152555635 42.7070466637 271.152555635 36.1162211087 269.504849246 c 0,72,73
 29.5253955537 267.857142857 29.5253955537 267.857142857 24.030363658 267.857142857 c 0,74,75
 18.5353317624 267.857142857 18.5353317624 267.857142857 12.0252503421 270.895180853 c 0,76,77
 5.51516892182 273.933218849 5.51516892182 273.933218849 1.40220863515 281.120375309 c 0,78,79
 -3.24942329067 287.565122352 -3.24942329067 287.565122352 -8.00249369043 297.599386615 c 0,80,81
 -22.2495969914 327.676618273 -22.2495969914 327.676618273 -24.1962270671 333.5165085 c 0,82,83
 -26.1428571429 339.356398727 -26.1428571429 339.356398727 -26.1428571429 346.192850352 c 0,84,85
 -26.1428571429 353.029301977 -26.1428571429 353.029301977 -21.5809531012 359.505576464 c 0,86,87
 -17.0190490596 365.981850952 -17.0190490596 365.981850952 -10.3139140094 371.01070224 c 0,88,89
 2.3764271672 380.528458122 2.3764271672 380.528458122 18.7956609068 388.305989894 c 0,90,91
 35.2148946464 396.083521665 35.2148946464 396.083521665 41.1119357046 399.6217463 c 1,92,93
 49.4636599655 402.753642898 49.4636599655 402.753642898 60.16562447 408.74674302 c 0,94,95
 70.8675889746 414.739843143 70.8675889746 414.739843143 96 427.423600775 c 1,96,-1
 96 472 l 1,97,-1
 97 584 l 1,98,-1
 97 645 l 2,99,100
 97 658.945517659 97 658.945517659 95.587134413 675.899904702 c 0,101,102
 94.8081143218 685.248145797 94.8081143218 685.248145797 89.880628159 691.661918016 c 0,103,104
 87.8328306851 693.130299643 87.8328306851 693.130299643 82.191733591 695.950848751 c 0,105,106
 65.1945671186 704.44943368 65.1945671186 704.44943368 53.4241886433 711.692743511 c 0,107,108
 35 723.030705753 35 723.030705753 35 742 c 2,109,-1
 35 746 l 2,110,111
 35 764.453283891 35 764.453283891 50.843948875 772.375258329 c 2,112,-1
 56.0934322174 775 l 1,113,-1
 62 775 l 2,114,115
 69.1046554747 775.479849335 69.1046554747 775.479849335 88.647644187 781.12560163 c 0,116,117
 140.652779589 796.149307413 140.652779589 796.149307413 171 812.513379246 c 1,118,-1
 171 847.711006323 l 1,119,-1
 209.842247627 821.816174571 l 1,120,-1
 215.842247627 817.816174571 l 1,121,-1
 227 810.377672989 l 1,122,-1
 227 797 l 1,123,-1
 228 741 l 1,124,-1
 228 666 l 1,0,-1
EndSplineSet
Validated: 1
EndChar

StartChar: Zcaron
Encoding: 30 30 16
Width: 775
Flags: W
LayerCount: 2
Fore
SplineSet
541.166290899 669.679619932 m 1,0,1
 524.008376597 668.999994299 524.008376597 668.999994299 523 669 c 2,2,-1
 452 669 l 2,3,4
 417.212544133 669 417.212544133 669 328.060994331 667.505948025 c 0,5,6
 238.909444529 666.011896049 238.909444529 666.011896049 212.63596059 664.604694976 c 0,7,8
 186.362476652 663.197493903 186.362476652 663.197493903 164.547636789 656.611882065 c 0,9,10
 142.732796925 650.026270227 142.732796925 650.026270227 123.371742057 629.051794119 c 0,11,12
 116.830391829 622.243568772 116.830391829 622.243568772 110.870282008 611.60051552 c 0,13,14
 104.910172187 600.957462268 104.910172187 600.957462268 97.8609213132 587.943338234 c 0,15,16
 75.1418268172 546 75.1418268172 546 49 546 c 0,17,18
 40.130198478 546 40.130198478 546 29.4125858703 549.384509245 c 0,19,20
 2.28 557.952694256 2.28 557.952694256 2.28 581.448 c 0,21,22
 2.28 586.657289075 2.28 586.657289075 3.88878044736 591.758196662 c 0,23,24
 10.2057525918 619.948397247 10.2057525918 619.948397247 18.1392038706 645.979839526 c 0,25,26
 20.7356263444 654.499287038 20.7356263444 654.499287038 34.2217381251 698.750591319 c 0,27,28
 42.3273720607 722.054288884 42.3273720607 722.054288884 47.5186334011 737.628072905 c 0,29,30
 59.9759424329 775 59.9759424329 775 92 775 c 0,31,32
 115.906567783 775 115.906567783 775 129.156051125 768.375258329 c 0,33,34
 136.297037422 764.80476518 136.297037422 764.80476518 152.579728707 763.324520518 c 1,35,-1
 157.842247627 759.816174571 l 2,36,37
 161.766912961 757.199731015 161.766912961 757.199731015 176.565668907 755.599865508 c 0,38,39
 191.364424853 754 191.364424853 754 207 754 c 2,40,-1
 226 754 l 2,41,42
 271.774707813 754 271.774707813 754 328.223351089 754.999091031 c 0,43,44
 358.674359448 755.538046932 358.674359448 755.538046932 389.867788521 755.931759446 c 1,45,46
 385.235696998 759.579944719 385.235696998 759.579944719 381.915409369 764.560376462 c 0,47,48
 351.698525135 813.914620711 351.698525135 813.914620711 324.052546052 858.455316518 c 0,49,50
 296.406566969 902.996012326 296.406566969 902.996012326 281.398966198 943.730928705 c 0,51,52
 278 953.927827299 278 953.927827299 278 963.425904368 c 0,53,54
 278 972.923981437 278 972.923981437 284.873620087 981.516006547 c 0,55,56
 294.149703739 993.111111111 294.149703739 993.111111111 310.111111111 993.111111111 c 0,57,58
 322.900277032 993.111111111 322.900277032 993.111111111 334.286285722 983.243236912 c 0,59,60
 345.321923313 973.679017667 345.321923313 973.679017667 368.424599895 943.645538111 c 0,61,62
 402.608806425 899.206069621 402.608806425 899.206069621 413.264690805 888.070055092 c 1,63,64
 424.253773182 900.570298919 424.253773182 900.570298919 441.820573254 925.569206714 c 0,65,66
 459.387373326 950.568114509 459.387373326 950.568114509 473.382359244 966.177906494 c 0,67,68
 493.843546525 989 493.843546525 989 512.829739062 989 c 0,69,70
 532.48791821 989 532.48791821 989 541.268034725 974.366472476 c 0,71,72
 546 966.479863684 546 966.479863684 546 958.349891265 c 0,73,74
 546 950.219918847 546 950.219918847 543.618825345 943.717480365 c 0,75,76
 536.876298684 925.305196022 536.876298684 925.305196022 522.353249838 899.55979125 c 0,77,78
 507.830200993 873.814386479 507.830200993 873.814386479 495.214735233 851.106548111 c 0,79,80
 473.773069139 812.511549141 473.773069139 812.511549141 448.42671445 773.825007774 c 0,81,82
 441.228767409 762.838667554 441.228767409 762.838667554 435.63089767 756.427591555 c 1,83,84
 439.645453736 756.464036869 439.645453736 756.464036869 443.671891903 756.498157727 c 0,85,86
 502.671789441 756.998133392 502.671789441 756.998133392 559.223248627 757.999066696 c 0,87,88
 615.774707813 759 615.774707813 759 663 759 c 0,89,90
 670.911047135 759 670.911047135 759 685.433206682 761.420359925 c 0,91,92
 708.111047135 765.2 708.111047135 765.2 722.203047894 765.2 c 0,93,94
 736.295048653 765.2 736.295048653 765.2 747.7924938 759.789437578 c 0,95,96
 759.289938946 754.378875156 759.289938946 754.378875156 764.036273821 745.226096395 c 0,97,98
 768.782608696 736.073317634 768.782608696 736.073317634 768.782608696 729.083167223 c 0,99,100
 768.782608696 714.280626177 768.782608696 714.280626177 763.040753944 705.815612371 c 0,101,102
 751.627514062 688.989475632 751.627514062 688.989475632 698.417809151 627.663036074 c 0,103,104
 599.410385091 513.139579091 599.410385091 513.139579091 557.695369614 463.937290703 c 0,105,106
 515.980354137 414.735002315 515.980354137 414.735002315 476.48810975 369.24393467 c 0,107,108
 442.079128078 329.608271083 442.079128078 329.608271083 384.465163854 261.682997124 c 0,109,110
 326.85119963 193.757723166 326.85119963 193.757723166 319.976627963 184.968514039 c 0,111,112
 311.517270367 173.377605242 311.517270367 173.377605242 294.41272864 152.751542853 c 0,113,114
 277.308186912 132.125480465 277.308186912 132.125480465 259.651914384 110.545620992 c 0,115,116
 231.051294851 75.5893554866 231.051294851 75.5893554866 222.393286832 59.4708469461 c 1,117,118
 224.948249412 59.3333333333 224.948249412 59.3333333333 227.666666667 59.3333333333 c 2,119,-1
 253 60 l 1,120,-1
 453 61 l 2,121,122
 488.540616379 61 488.540616379 61 527.991968272 62.4259524781 c 0,123,124
 567.443320165 63.8519049561 567.443320165 63.8519049561 600.118550214 72.765286449 c 0,125,126
 618.809680257 80.1844533298 618.809680257 80.1844533298 628.255676037 92.3293074109 c 0,127,128
 641.134343542 108.887594204 641.134343542 108.887594204 654.197647046 131.241174431 c 0,129,130
 658.771445165 139.719186024 658.771445165 139.719186024 662.749193374 153.641304462 c 0,131,132
 674.859849924 196.028601502 674.859849924 196.028601502 701.543592185 204.367270958 c 0,133,134
 706.768325119 206 706.768325119 206 712.36 206 c 0,135,136
 728.444790326 206 728.444790326 206 744.989281283 192.212924202 c 2,137,-1
 752.03552478 186.341054622 l 1,138,139
 757 158.209028373 757 158.209028373 757 139.056102124 c 0,140,141
 757 119.903175875 757 119.903175875 752.24143868 100.868930595 c 0,142,143
 744.360413261 69.3448289192 744.360413261 69.3448289192 741.965486511 46.9921677489 c 0,144,145
 739.57055976 24.6395065787 739.57055976 24.6395065787 734.011603161 7.96263678279 c 0,146,147
 728.452646563 -8.71423301311 728.452646563 -8.71423301311 713.707716606 -20.8571165066 c 0,148,149
 698.96278665 -33 698.96278665 -33 674 -33 c 0,150,151
 634.349093531 -33 634.349093531 -33 595.349093531 -31 c 0,152,153
 556.349093531 -29 556.349093531 -29 518 -29 c 2,154,-1
 429 -29 l 2,155,156
 336.479642952 -29 336.479642952 -29 235.478073018 -32.4993759805 c 0,157,158
 134.476503084 -35.998751961 134.476503084 -35.998751961 41 -36 c 0,159,160
 25.5607052265 -36 25.5607052265 -36 14.9592691955 -28.0489229768 c 0,161,162
 1.73385799671e-014 -16.8294710801 1.73385799671e-014 -16.8294710801 3.5527136788e-015 4 c 0,163,164
 -1.46661993593e-015 10.9858874835 -1.46661993593e-015 10.9858874835 2.63881370855 15.6437934994 c 0,165,166
 7.42220027579 24.0871955461 7.42220027579 24.0871955461 22.9042596736 43.7916347796 c 0,167,168
 80.2801399 116.815482341 80.2801399 116.815482341 123.099410007 168.955741891 c 0,169,170
 202.709080476 265.895014107 202.709080476 265.895014107 202.709080476 265.895223396 c 2,171,-1
 278.210648201 357.397123164 l 2,172,173
 381.637915405 482.717733845 381.637915405 482.717733845 401.476405159 507.064971271 c 0,174,175
 433.563556877 546.44465747 433.563556877 546.44465747 455.187604094 570.771664045 c 0,176,177
 517.79520422 641.20507943 517.79520422 641.20507943 527.711291787 653.162714437 c 0,178,179
 537.627379353 665.120349443 537.627379353 665.120349443 541.166290899 669.679619932 c 1,0,1
EndSplineSet
Validated: 1
EndChar

StartChar: zcaron
Encoding: 31 31 17
Width: 476
Flags: W
LayerCount: 2
Fore
SplineSet
287.796804643 402.74697182 m 1,0,-1
 260 402 l 1,1,-1
 228 402 l 2,2,3
 201.219473664 402 201.219473664 402 173.76471743 401.526642134 c 0,4,5
 146.309961196 401.053284268 146.309961196 401.053284268 128.22753393 396.532677451 c 0,6,7
 117.746524259 394.683087509 117.746524259 394.683087509 113.211855754 390.375152429 c 0,8,9
 104.744538588 382.331201121 104.744538588 382.331201121 97.3419354124 372.461063554 c 0,10,11
 89.9393322372 362.590925987 89.9393322372 362.590925987 81.174203125 353.825796875 c 0,12,13
 66.34840625 339 66.34840625 339 44 339 c 0,14,15
 19.16750852 339 19.16750852 339 9.71346561698 354.666699668 c 0,16,17
 2.691536805 366.303038842 2.691536805 366.303038842 6.49060055611 379.144099045 c 0,18,19
 12.1017150043 398.109997791 12.1017150043 398.109997791 14.4680550427 402.842677868 c 0,20,21
 17.397380158 408.701328099 17.397380158 408.701328099 21.8866075132 423.642057365 c 0,22,23
 27.0634661144 444.262571045 27.0634661144 444.262571045 31.3945659452 457.255870537 c 0,24,25
 43.6426090995 494 43.6426090995 494 75 494 c 0,26,27
 93.926427191 494 93.926427191 494 109.450081344 487.64941421 c 0,28,29
 115.926427191 485 115.926427191 485 133 485 c 2,30,-1
 238.147975896 485 l 1,31,32
 221.703039298 494.246191151 221.703039298 494.246191151 217.363519558 497.547999649 c 0,33,34
 212.41204104 501.315428957 212.41204104 501.315428957 208.915409369 506.560376462 c 0,35,36
 178.698525135 555.914620711 178.698525135 555.914620711 151.052546052 600.455316518 c 0,37,38
 123.406566969 644.996012326 123.406566969 644.996012326 108.398966198 685.730928705 c 0,39,40
 105 695.927827299 105 695.927827299 105 702 c 0,41,42
 105 719.34019386 105 719.34019386 118.312917392 728.807157339 c 0,43,44
 127.021602385 735 127.021602385 735 139 735 c 2,45,-1
 141.495643334 735 l 2,46,47
 152.588333808 732.781461905 152.588333808 732.781461905 160.024325586 726.336935697 c 0,48,49
 172.321923313 715.679017667 172.321923313 715.679017667 203.826554903 674.7229966 c 0,50,51
 229.608806425 641.206069621 229.608806425 641.206069621 240.264690805 630.070055092 c 1,52,53
 251.253773182 642.570298919 251.253773182 642.570298919 268.820573254 667.569206714 c 0,54,55
 286.387373326 692.568114509 286.387373326 692.568114509 300.382359244 708.177906494 c 0,56,57
 320.843546525 731 320.843546525 731 339.829739062 731 c 0,58,59
 359.48791821 731 359.48791821 731 368.268034725 716.366472476 c 0,60,61
 373 708.479863684 373 708.479863684 373 700.349891265 c 0,62,63
 373 692.219918847 373 692.219918847 370.618825345 685.717480365 c 0,64,65
 363.876298684 667.305196022 363.876298684 667.305196022 349.353249838 641.55979125 c 0,66,67
 334.830200993 615.814386478 334.830200993 615.814386478 322.214735233 593.106548111 c 0,68,69
 300.773069139 554.511549141 300.773069139 554.511549141 275.42671445 515.825007774 c 0,70,71
 263.51003079 497.636385346 263.51003079 497.636385346 255.979002409 491.98811406 c 2,72,-1
 246.661516996 485 l 1,73,-1
 293 485 l 2,74,75
 310.332046234 485 310.332046234 485 329.332046234 486 c 0,76,77
 348.332046234 487 348.332046234 487 368 487 c 2,78,-1
 383 487 l 2,79,80
 398.441412497 487 398.441412497 487 414.13261132 485.206720135 c 0,81,82
 429.823810143 483.413440269 429.823810143 483.413440269 439.102518245 480.190310086 c 0,83,84
 448.381226346 476.967179904 448.381226346 476.967179904 456.147289445 469.201116805 c 0,85,86
 464.777777778 457.118433139 464.777777778 457.118433139 464.777777778 446.402407076 c 0,87,88
 464.777777778 435.686381013 464.777777778 435.686381013 459.809571181 424.50791617 c 0,89,90
 409.22325793 354.306501863 409.22325793 354.306501863 361.642813459 289.697165961 c 0,91,92
 314.16987998 225.233919447 314.16987998 225.233919447 265.172754578 157.237908685 c 0,93,94
 242.887511019 126.848940196 242.887511019 126.848940196 222.924568129 101.710419519 c 0,95,96
 202.961625238 76.571898842 202.961625238 76.571898842 193.453981553 61 c 1,97,-1
 220 61 l 2,98,99
 280.428247694 61 280.428247694 61 306.797319425 63.866203449 c 0,100,101
 352.48406269 68.8321538039 352.48406269 68.8321538039 362.921644899 74.1479117831 c 0,102,103
 367.140642322 78.1454024558 367.140642322 78.1454024558 372.178317645 99.30363881 c 2,104,-1
 377.178317645 120.30363881 l 2,105,106
 381.598798189 138.869657096 381.598798189 138.869657096 394.010718717 149.212924202 c 2,107,-1
 400.955209674 155 l 1,108,-1
 410 155 l 1,109,-1
 413.896452749 155 l 2,110,111
 416.059510153 155.166666667 416.059510153 155.166666667 418.138888889 155.166666667 c 0,112,113
 439.654584877 155.166666667 439.654584877 155.166666667 449.45321991 138.835608279 c 0,114,115
 456 127.924308129 456 127.924308129 456 112 c 2,116,-1
 456 88 l 2,117,118
 456 39.5043566662 456 39.5043566662 449.514689853 7.07780593112 c 0,119,120
 446.174098904 -9.6251488144 446.174098904 -9.6251488144 438.359161754 -17.1953160556 c 0,121,122
 428.26282915 -29.6751238873 428.26282915 -29.6751238873 414.074795919 -29.6751238873 c 0,123,124
 413.705451042 -29.6751238873 413.705451042 -29.6751238873 413.333333333 -29.6666666667 c 0,125,126
 405.426765551 -29.6666666667 405.426765551 -29.6666666667 397.843948875 -25.8752583288 c 0,127,128
 396.093432217 -25 396.093432217 -25 394.999984845 -25 c 0,129,130
 318.158768739 -25 318.158768739 -25 246.661698366 -26.0000940727 c 0,131,132
 175.164627992 -27.0001881453 175.164627992 -27.0001881453 98 -27 c 2,133,-1
 84 -27 l 2,134,135
 42.1771473176 -27 42.1771473176 -27 25.1757280044 -19.2720821304 c 0,136,137
 14.8272473302 -14.5682272785 14.8272473302 -14.5682272785 9.91362366512 -6.78411363924 c 0,138,139
 5 1 5 1 5 11.2832547419 c 0,140,141
 5 21.5665094838 5 21.5665094838 11.1838254287 30.8422476269 c 0,142,143
 11.8131318331 31.8584871598 11.8131318331 31.8584871598 13.7408519067 36.6777873439 c 0,144,145
 24.4001152097 52.6666822983 24.4001152097 52.6666822983 35.142219 63.9203148405 c 0,146,147
 44.6835573297 73.9160026146 44.6835573297 73.9160026146 54.4028548441 86.5166978779 c 0,148,149
 100.042780896 144.062691595 100.042780896 144.062691595 142.242668056 202.646064359 c 2,150,-1
 227.465428905 320.26344292 l 2,151,152
 233.964350858 329.956504159 233.964350858 329.956504159 246.439086041 345.92416632 c 0,153,154
 258.59594197 361.484943008 258.59594197 361.484943008 287.796804643 402.74697182 c 1,0,-1
EndSplineSet
Validated: 1
EndChar

StartChar: exclam
Encoding: 33 33 18
Width: 247
Flags: W
LayerCount: 2
Fore
SplineSet
208 46 m 0,0,1
 208 4.98920991177 208 4.98920991177 178.599682816 -18.5310438357 c 0,2,3
 151.76348761 -40 151.76348761 -40 116.087043059 -40 c 0,4,5
 80.4105985084 -40 80.4105985084 -40 57.2052992542 -12.5755554269 c 0,6,7
 34 14.8488891463 34 14.8488891463 34 47 c 0,8,9
 34 83.9547855357 34 83.9547855357 59.1266805357 110.477392768 c 0,10,11
 84.2533610714 137 84.2533610714 137 121.282796548 137 c 0,12,13
 158.312232025 137 158.312232025 137 183.156116012 108.70557657 c 0,14,15
 208 80.4111531394 208 80.4111531394 208 46 c 0,0,1
141.774067167 194.774833104 m 0,16,17
 134.662944665 190.833333333 134.662944665 190.833333333 128.867472834 190.833333333 c 0,18,19
 109.227371893 190.833333333 109.227371893 190.833333333 97.0209975906 199.98811406 c 2,20,-1
 88.1069934968 206.673617131 l 1,21,22
 82.559432618 267.696786797 82.559432618 267.696786797 67.3466859538 400.042397611 c 0,23,24
 52.1339392895 532.388008424 52.1339392895 532.388008424 46.0987043366 596.762988239 c 0,25,26
 40.0634693837 661.137968054 40.0634693837 661.137968054 38.0306232119 715.703529244 c 0,27,28
 36.5276309716 739.201829052 36.5276309716 739.201829052 45.0052813887 751.312758219 c 0,29,30
 56.4063506351 767.6 56.4063506351 767.6 79.7 767.6 c 0,31,32
 88.5070901631 767.6 88.5070901631 767.6 99.7570901631 765.8 c 0,33,34
 111.007090163 764 111.007090163 764 125.747287188 764 c 0,35,36
 140.487484213 764 140.487484213 764 152.987484213 765.5 c 0,37,38
 165.487484213 767 165.487484213 767 176 767 c 0,39,40
 195.917800748 767 195.917800748 767 208.72556704 756.520918488 c 0,41,42
 221.533333333 746.041836975 221.533333333 746.041836975 221.533333333 724.715555556 c 0,43,44
 221.533333333 713.100719631 221.533333333 713.100719631 211.17216747 631.506542313 c 0,45,46
 200.811001607 549.912364994 200.811001607 549.912364994 192.304684371 479.360214238 c 0,47,48
 173.409592456 322.642643466 173.409592456 322.642643466 156.697253805 216.101484571 c 0,49,50
 154.113592409 201.614292822 154.113592409 201.614292822 141.774067167 194.774833104 c 0,16,17
EndSplineSet
Validated: 1
EndChar

StartChar: quotedbl
Encoding: 34 34 19
Width: 304
Flags: W
LayerCount: 2
Fore
SplineSet
221 770 m 1,0,-1
 250.539889712 769.01212183 l 1,1,2
 256.321846728 769.857750739 256.321846728 769.857750739 258.204081633 769.857142857 c 0,3,4
 270.013456297 769.857142857 270.013456297 769.857142857 277.372409843 763.635805319 c 0,5,6
 292.727272727 750.654641044 292.727272727 750.654641044 292.727272727 730.966942149 c 0,7,8
 292.727272727 725.803835347 292.727272727 725.803835347 291.321529086 720.934590275 c 0,9,10
 287.987571442 701.220429883 287.987571442 701.220429883 281.893294536 645.501326739 c 0,11,12
 275.799017629 589.782223594 275.799017629 589.782223594 271.539795214 561.03247229 c 0,13,14
 267.280572799 532.282720986 267.280572799 532.282720986 263.082265913 522.385683992 c 0,15,16
 256.822921485 507.238232343 256.822921485 507.238232343 241.034373244 501.496944383 c 0,17,18
 232.517776192 498.4 232.517776192 498.4 226.984160893 498.4 c 0,19,20
 221.450545595 498.4 221.450545595 498.4 219.211894991 498.603513691 c 0,21,22
 207.119300208 499.70284049 207.119300208 499.70284049 196.687241781 507.005281389 c 0,23,24
 182.851068827 516.690602456 182.851068827 516.690602456 180.271852236 534.302919727 c 0,25,26
 163.622379315 643.912150535 163.622379315 643.912150535 160.362759557 677.812196015 c 0,27,28
 156.714287792 715.756302377 156.714287792 715.756302377 156.714286753 730.533859902 c 0,29,30
 156.714283979 770 156.714283979 770 198 770 c 2,31,-1
 221 770 l 1,0,-1
77 770 m 1,32,-1
 106.534073607 769.010823485 l 2,33,34
 110.324420869 769.857142653 110.324420869 769.857142653 114.204081633 769.857142857 c 0,35,36
 126.013456297 769.857142857 126.013456297 769.857142857 133.372409843 763.635805319 c 0,37,38
 148.727272727 750.654641044 148.727272727 750.654641044 148.727272727 730.966942149 c 0,39,40
 148.727272727 725.803835347 148.727272727 725.803835347 147.321529086 720.934590275 c 0,41,42
 145.449735462 709.866411352 145.449735462 709.866411352 142.132318809 681.905323713 c 0,43,44
 132.824818109 603.456376829 132.824818109 603.456376829 127.552809992 567.870322041 c 0,45,46
 122.280801875 532.284267253 122.280801875 532.284267253 118.083172802 522.387815712 c 0,47,48
 112.006045545 507.672155939 112.006045545 507.672155939 97.2702227727 501.777826078 c 0,49,50
 88.8256575771 498.4 88.8256575771 498.4 83.138101586 498.4 c 0,51,52
 77.4505455949 498.4 77.4505455949 498.4 75.2118949911 498.603513691 c 0,53,54
 63.7003126938 499.650021173 63.7003126938 499.650021173 53.1043224302 506.392924068 c 0,55,56
 37.9529107575 516.034731496 37.9529107575 516.034731496 35.2723140007 534.299879773 c 0,57,58
 12.7142918237 682.807131087 12.7142918237 682.807131087 12.7142857143 732.734693878 c 0,59,60
 12.7142857143 745.311417428 12.7142857143 745.311417428 18.3788975191 754.374796316 c 0,61,62
 28.1446498217 770 28.1446498217 770 53 770 c 2,63,-1
 77 770 l 1,32,-1
EndSplineSet
Validated: 1
EndChar

StartChar: numbersign
Encoding: 35 35 20
Width: 524
Flags: W
LayerCount: 2
Fore
SplineSet
282.631023915 263 m 1,0,1
 285.799726878 277.867984387 285.799726878 277.867984387 288.540415691 289.578530076 c 0,2,3
 291.281104504 301.289075766 291.281104504 301.289075766 293.334566785 310.772060303 c 1,4,5
 285.808233134 310.664235211 285.808233134 310.664235211 274.058916552 310.424463327 c 0,6,7
 262.30959997 310.184691442 262.30959997 310.184691442 245.196525907 310.067525814 c 1,8,9
 241.041377289 290.546408975 241.041377289 290.546408975 238.92954917 279.752620815 c 0,10,11
 236.817721052 268.958832656 236.817721052 268.958832656 235.560571756 263 c 1,12,-1
 282.631023915 263 l 1,0,1
269.847248542 423.823255392 m 1,13,-1
 314.911388973 423.099464243 l 1,14,15
 319.246017436 448.712093673 319.246017436 448.712093673 324.79757426 482.448400828 c 0,16,17
 330.349131084 516.184707983 330.349131084 516.184707983 342.000920806 583.506159709 c 1,18,-1
 356.814490657 587.950230664 l 2,19,20
 370.313721776 592 370.313721776 592 385.553096263 592 c 0,21,22
 413.495643334 592 413.495643334 592 425.922194069 589.514689853 c 2,23,-1
 448.496063272 584.999916012 l 1,24,25
 440.717471369 518.104025652 440.717471369 518.104025652 434.024456618 484.220638473 c 0,26,27
 427.331441867 450.337251294 427.331441867 450.337251294 421.718895096 423 c 1,28,-1
 509.499128667 423 l 1,29,-1
 513.514689853 402.922194069 l 1,30,-1
 516.514689853 387.922194069 l 1,31,-1
 517 385.495643334 l 1,32,-1
 517 383 l 1,33,-1
 517 369 l 2,34,35
 517 359.736804934 517 359.736804934 515.875023727 348.4870422 c 0,36,37
 514.115727811 330.894083047 514.115727811 330.894083047 504.212924202 319.010718717 c 2,38,-1
 495.706516015 308.803028892 l 1,39,40
 473.736804934 311 473.736804934 311 464 311 c 2,41,-1
 440 311 l 1,42,-1
 398.214646765 311 l 1,43,44
 389.454434696 270.119390689 389.454434696 270.119390689 387.835276257 263 c 1,45,-1
 457.779526514 263 l 1,46,-1
 465.280071058 252.614630632 l 2,47,48
 481.266666667 230.479344405 481.266666667 230.479344405 481.266666667 208.677777778 c 0,49,50
 481.266666667 187.068875546 481.266666667 187.068875546 467.11001313 160.328529976 c 2,51,-1
 460.395390753 147.645354376 l 1,52,53
 408.194553239 145.375752745 408.194553239 145.375752745 363.660138152 145.069780122 c 1,54,55
 359.670321439 123.599990149 359.670321439 123.599990149 354.664233852 92.7291166985 c 0,56,57
 349.658146265 61.8582432475 349.658146265 61.8582432475 335.073135707 -23 c 1,58,-1
 314 -23 l 1,59,-1
 286.666666667 -24.3333333333 l 2,60,61
 274.359341525 -24.3333333333 274.359341525 -24.3333333333 228.675380806 -20.8191825088 c 1,62,63
 242.788920586 60.7257139945 242.788920586 60.7257139945 247.88356543 86.3443951964 c 0,64,65
 252.978210275 111.963076398 252.978210275 111.963076398 255.496436219 124.641541523 c 0,66,67
 258.014662163 137.320006648 258.014662163 137.320006648 259.540487684 145 c 1,68,-1
 210.646594567 145 l 1,69,70
 206.047957191 120.252616857 206.047957191 120.252616857 183.354473333 -23 c 1,71,-1
 162 -23 l 1,72,-1
 133.888888889 -24.3333333333 l 2,73,74
 121.359341525 -24.3333333333 121.359341525 -24.3333333333 75.6753808063 -20.8191825088 c 1,75,76
 89.416679558 58.5749880563 89.416679558 58.5749880563 93.4442266749 78.9644890497 c 0,77,78
 97.4717737917 99.3539900432 97.4717737917 99.3539900432 106.649344548 146.159649642 c 1,79,80
 68.9242246123 146.5761612 68.9242246123 146.5761612 19 149.349729234 c 1,81,-1
 19 173 l 2,82,83
 19 177.927827299 19 177.927827299 16.5 185.427827299 c 0,84,85
 14 192.927827299 14 192.927827299 14 204.176824321 c 0,86,87
 14 215.425821344 14 215.425821344 16.7397052541 225.288760258 c 0,88,89
 19.4794105082 235.151699173 19.4794105082 235.151699173 20.252141779 240.560818069 c 2,90,-1
 23.3148820549 262 l 1,91,-1
 45 262 l 2,92,93
 62.7685723919 262 62.7685723919 262 85.8912718904 262.420412718 c 0,94,95
 109.013971389 262.840825436 109.013971389 262.840825436 130.556605608 262.949725825 c 1,96,97
 133.561378976 277.488084454 133.561378976 277.488084454 136.053573242 288.952309611 c 0,98,99
 138.545767508 300.416534769 138.545767508 300.416534769 140.525649878 310 c 1,100,-1
 76.4007473265 310 l 1,101,-1
 68.9953942302 321.444636603 l 2,102,103
 52.9285714286 346.275180933 52.9285714286 346.275180933 52.9285714286 366.340540797 c 0,104,105
 52.9285714286 386.405900661 52.9285714286 386.405900661 68.4609194684 412.691412729 c 2,106,-1
 75.7341755833 425 l 1,107,-1
 90 425 l 1,108,-1
 161.999576512 424.105479983 l 1,109,110
 177.601139826 513.514214075 177.601139826 513.514214075 188.78971316 583.442797415 c 1,111,-1
 203.814490657 587.950230664 l 2,112,113
 217.313721776 592 217.313721776 592 233.079344945 592 c 0,114,115
 260.495643334 592 260.495643334 592 272.922194069 589.514689853 c 2,116,-1
 295.496063272 584.999916012 l 1,117,118
 287.737765555 518.278555648 287.737765555 518.278555648 281.506461543 484.214093718 c 0,119,120
 275.275157532 450.149631788 275.275157532 450.149631788 269.847248542 423.823255392 c 1,13,-1
EndSplineSet
Validated: 37
EndChar

StartChar: dollar
Encoding: 36 36 21
Width: 633
Flags: W
LayerCount: 2
Fore
SplineSet
259.126843688 688.494140625 m 1,0,1
 233.768883369 680.806640625 233.768883369 680.806640625 213.346278137 665.138671875 c 0,2,3
 183.276494905 642.0703125 183.276494905 642.0703125 183.276494905 602.600585938 c 128,-1,4
 183.276494905 563.130859375 183.276494905 563.130859375 214.525116229 536.40625 c 0,5,6
 234.15947643 519.614257812 234.15947643 519.614257812 258.025653614 504.892578125 c 1,7,8
 258.152714007 555.803710938 258.152714007 555.803710938 258.579778106 601.43359375 c 128,-1,9
 259.00566572 647.064453125 259.00566572 647.064453125 259.126843688 688.494140625 c 1,0,1
444.737371922 153.247070312 m 128,-1,11
 444.737371922 200.07421875 444.737371922 200.07421875 411.798141478 229.487304688 c 0,12,13
 391.363771395 247.733398438 391.363771395 247.733398438 365.189330402 263.928710938 c 1,14,-1
 365.189330402 49.34765625 l 1,15,16
 393.560269117 58.712890625 393.560269117 58.712890625 414.372290925 78.1142578125 c 0,17,10
 444.737371922 106.420898438 444.737371922 106.420898438 444.737371922 153.247070312 c 128,-1,11
365.189330402 763.9453125 m 1,18,19
 365.189330402 737.884765625 365.189330402 737.884765625 365.189330402 754.916992188 c 1,20,21
 396.088535644 748.323242188 396.088535644 748.323242188 442.704405631 729.041015625 c 1,22,23
 450.6539156 742.139648438 450.6539156 742.139648438 463.145834625 753.166992188 c 0,24,25
 478.779296875 769.6171875 478.779296875 769.6171875 505 769.6171875 c 0,26,27
 521.28515625 769.6171875 521.28515625 769.6171875 531.150390625 757.34765625 c 128,-1,28
 541 745.095703125 541 745.095703125 541 712.899414062 c 0,29,30
 541 698.508789062 541 698.508789062 539.508789062 683.939453125 c 128,-1,31
 538.016601562 669.370117188 538.016601562 669.370117188 538.108398438 659.709960938 c 128,-1,32
 538.200195312 650.048828125 538.200195312 650.048828125 538.200195312 624.407226562 c 128,-1,33
 538.200195312 598.764648438 538.200195312 598.764648438 534.796875 555.338867188 c 1,34,35
 526.725585938 521.002929688 526.725585938 521.002929688 498 521.002929688 c 0,36,37
 490.903320312 521.002929688 490.903320312 521.002929688 486.995117188 521.926757812 c 128,-1,38
 483.086914062 522.849609375 483.086914062 522.849609375 482.745117188 522.89453125 c 0,39,40
 460.929336655 523.036132812 460.929336655 523.036132812 447.260932509 544.487304688 c 0,41,42
 440.246728212 555.495117188 440.246728212 555.495117188 436.206678303 569.233398438 c 128,-1,43
 432.165451909 582.970703125 432.165451909 582.970703125 429.047766336 594.388671875 c 128,-1,44
 425.930080763 605.807617188 425.930080763 605.807617188 420.104126439 613.424804688 c 1,45,46
 405.388650533 641.46875 405.388650533 641.46875 380.296575853 656.9921875 c 0,47,48
 372.142357472 662.037109375 372.142357472 662.037109375 363.984609637 665.815429688 c 1,49,50
 363.984609637 546.7421875 363.984609637 546.7421875 363.984609637 448.642578125 c 1,51,52
 391.787306039 433.784179688 391.787306039 433.784179688 419.59000244 426.827148438 c 2,53,54
 457.009288229 412.146484375 457.009288229 412.146484375 483.592773438 397.153320312 c 1,55,56
 532.237304688 366.140625 532.237304688 366.140625 559.059570312 317.54296875 c 128,-1,57
 585.8828125 268.9453125 585.8828125 268.9453125 586.995117188 214.241210938 c 1,58,59
 586.995117188 222.296875 586.995117188 222.296875 586.995117188 213.779296875 c 2,60,61
 586.995117188 107.63671875 586.995117188 107.63671875 523.252929688 46.8427734375 c 0,62,63
 467.408203125 -6.4140625 467.408203125 -6.4140625 363.984609637 -21.2861328125 c 1,64,65
 363.984609637 -6.0869140625 363.984609637 -6.0869140625 363.984609637 -33.890625 c 1,66,67
 363.984609637 -19.193359375 363.984609637 -19.193359375 363.984609637 -49.015625 c 2,68,69
 363.984609637 -58.275390625 363.984609637 -58.275390625 362.47635571 -66.560546875 c 2,70,71
 360.631627039 -52.2802734375 360.631627039 -52.2802734375 358.786898368 -88 c 1,72,-1
 332.66186975 -88 l 1,73,-1
 307.362733688 -88 l 2,74,75
 288.000141551 -88 288.000141551 -88 279.772981093 -85.7236328125 c 2,76,77
 271.166992426 -58.3427734375 271.166992426 -58.3427734375 262.562180244 -80.9609375 c 1,78,79
 261.072750079 -48.5478515625 261.072750079 -48.5478515625 259.5844964 -66.1337890625 c 2,80,81
 257.969182328 -58.5234375 257.969182328 -58.5234375 257.969182328 -49.9248046875 c 2,82,83
 257.969182328 -19.990234375 257.969182328 -19.990234375 257.969182328 -34.7890625 c 1,84,85
 257.969182328 -8.3212890625 257.969182328 -8.3212890625 257.969182328 -25.2548828125 c 1,86,87
 234.590069984 -22.1435546875 234.590069984 -22.1435546875 206.493252302 -13.4765625 c 128,-1,88
 178.39643462 -4.80859375 178.39643462 -4.80859375 166.147460938 -0.8779296875 c 0,89,90
 155.345703125 3.0517578125 155.345703125 3.0517578125 152.39453125 3.0517578125 c 128,-1,91
 149.443359375 3.0517578125 149.443359375 3.0517578125 148.98828125 3.0263671875 c 0,92,93
 145.778320312 -0.6181640625 145.778320312 -0.6181640625 142.870117188 -5.5703125 c 0,94,95
 135.93359375 -17.3818359375 135.93359375 -17.3818359375 126.002929688 -26.10546875 c 0,96,97
 111.810546875 -38.5732421875 111.810546875 -38.5732421875 86 -38.5732421875 c 0,98,99
 69.474609375 -38.5732421875 69.474609375 -38.5732421875 61.794921875 -28.0126953125 c 128,-1,100
 54.1142578125 -17.453125 54.1142578125 -17.453125 52.0576171875 -4.802734375 c 128,-1,101
 50 7.8466796875 50 7.8466796875 50 25.328125 c 128,-1,102
 50 42.8095703125 50 42.8095703125 51.5 60.310546875 c 128,-1,103
 53 77.8115234375 53 77.8115234375 53 95.9169921875 c 0,104,105
 53 149.407226562 53 149.407226562 56.154296875 181.646484375 c 0,106,107
 58.3447265625 200.299804688 58.3447265625 200.299804688 70.0078125 208.575195312 c 128,-1,108
 81.671875 216.850585938 81.671875 216.850585938 94 216.850585938 c 0,109,110
 101.194335938 216.850585938 101.194335938 216.850585938 108.54296875 214.954101562 c 1,111,112
 121.61328125 214.74609375 121.61328125 214.74609375 131.413085938 206.537109375 c 0,113,114
 143.491210938 196.420898438 143.491210938 196.420898438 150.361328125 168.259765625 c 0,115,116
 157.383789062 139.470703125 157.383789062 139.470703125 165.051757812 122.896484375 c 0,117,118
 179.538801673 94.0361328125 179.538801673 94.0361328125 213.90510857 77.6923828125 c 0,119,120
 235.518316746 67.4130859375 235.518316746 67.4130859375 257.969182328 62.396484375 c 1,121,122
 257.969182328 200.9296875 257.969182328 200.9296875 257.969182328 319.944335938 c 1,123,124
 222.405213576 334.903320312 222.405213576 334.903320312 182.50119121 352.80859375 c 0,125,126
 147.234375 370.713867188 147.234375 370.713867188 117.090820312 396.637695312 c 128,-1,127
 86.9462890625 422.561523438 86.9462890625 422.561523438 66.9736328125 458.192382812 c 128,-1,128
 47 493.823242188 47 493.823242188 47 541.676757812 c 128,-1,129
 47 589.530273438 47 589.530273438 63.908203125 628.451171875 c 128,-1,130
 80.8154296875 667.373046875 80.8154296875 667.373046875 110.830078125 695.23046875 c 0,131,132
 163.279296875 743.912109375 163.279296875 743.912109375 259.173903093 756.927734375 c 1,133,134
 259.173903093 753.193359375 259.173903093 753.193359375 259.173903093 792.97265625 c 1,135,136
 259.173903093 778.30859375 259.173903093 778.30859375 259.173903093 810.024414062 c 1,137,138
 291.623715726 819.002929688 291.623715726 819.002929688 298.929688333 819 c 2,139,-1
 309.772175217 819 l 2,140,141
 316.968734708 819 316.968734708 819 325.964139951 818.42578125 c 0,142,143
 344.86554992 817.21875 344.86554992 817.21875 357.568059782 806.673828125 c 2,144,145
 363.051656935 777.123046875 363.051656935 777.123046875 368.534077603 797.571289062 c 1,146,147
 365.189330402 781.822265625 365.189330402 781.822265625 365.189330402 777.1796875 c 2,148,149
 365.189330402 748.407226562 365.189330402 748.407226562 365.189330402 763.9453125 c 1,18,19
482.663085938 532.009765625 m 1,150,-1
 482.663085938 532.009765625 l 1,150,-1
EndSplineSet
Validated: 524325
EndChar

StartChar: percent
Encoding: 37 37 22
Width: 898
Flags: W
LayerCount: 2
Fore
SplineSet
705.104106532 214.287109375 m 128,-1,1
 683.09442239 233 683.09442239 233 652.469500632 233 c 0,2,3
 628.973690684 233 628.973690684 233 607.0895493 215.634765625 c 128,-1,4
 585.205407915 198.268554688 585.205407915 198.268554688 584.339484792 167.796875 c 2,5,6
 584.331973687 178.029296875 584.331973687 178.029296875 584.325535597 167.440429688 c 2,7,8
 584.191408719 164.782226562 584.191408719 164.782226562 584.191408719 162.23046875 c 0,9,10
 584.191408719 131.678710938 584.191408719 131.678710938 604.238548385 116.338867188 c 128,-1,11
 624.284615036 101 624.284615036 101 652.997424023 101 c 128,-1,12
 681.711306026 101 681.711306026 101 703.992462968 115.91796875 c 128,-1,13
 726.168945312 130.8359375 726.168945312 130.8359375 727 161.758789062 c 0,14,0
 726.935546875 195.573242188 726.935546875 195.573242188 705.104106532 214.287109375 c 128,-1,1
291.967570501 604.287109375 m 128,-1,16
 269.957886359 623 269.957886359 623 239.332964602 623 c 0,17,18
 215.980938667 623 215.980938667 623 194.025978291 605.267578125 c 128,-1,19
 172.071017915 587.53515625 172.071017915 587.53515625 171.202948762 556.956054688 c 2,20,21
 171.195437657 546.303710938 171.195437657 546.303710938 171.188999567 556.599609375 c 2,22,23
 171.054872689 553.94140625 171.054872689 553.94140625 171.054872689 551.391601562 c 0,24,25
 171.054872689 520.984375 171.054872689 520.984375 191.024755273 505.9921875 c 128,-1,26
 210.994637857 491 210.994637857 491 239.784703926 491 c 128,-1,27
 268.574769995 491 268.574769995 491 290.855926938 505.91796875 c 128,-1,28
 313.136010866 520.8359375 313.136010866 520.8359375 314.04914665 551.758789062 c 0,29,15
 313.978327658 585.573242188 313.978327658 585.573242188 291.967570501 604.287109375 c 128,-1,16
671.386755479 740 m 1,30,-1
 685.432522124 740 l 2,31,32
 705.433522144 740 705.433522144 740 730.778320312 725.181640625 c 0,33,34
 747.623046875 714.592773438 747.623046875 714.592773438 757.9453125 708.962890625 c 2,35,36
 770.014648438 727.379882812 770.014648438 727.379882812 782.083984375 695.795898438 c 1,37,38
 774.413085938 709.420898438 774.413085938 709.420898438 766.741210938 673.046875 c 2,39,40
 737.266601562 629.341796875 737.266601562 629.341796875 703.526774449 588.458007812 c 0,41,42
 668.587259285 547.57421875 668.587259285 547.57421875 632.254970623 506.489257812 c 0,43,44
 526.758279639 383.47265625 526.758279639 383.47265625 422.058838817 263.739257812 c 128,-1,45
 317.352959904 143.998046875 317.352959904 143.998046875 206.37208914 1.46875 c 1,46,47
 196.334033604 30.123046875 196.334033604 30.123046875 186.294905054 8.77734375 c 2,48,49
 177.830962556 11.859375 177.830962556 11.859375 163.762695312 21.1923828125 c 0,50,51
 150.5 30.5263671875 150.5 30.5263671875 130.793945312 37.3798828125 c 2,52,53
 114.665039062 67.990234375 114.665039062 67.990234375 98.5361328125 48.6005859375 c 1,54,55
 250.526657317 242.24609375 250.526657317 242.24609375 389.997149944 401.663085938 c 128,-1,56
 529.477299706 561.090820312 529.477299706 561.090820312 671.386755479 740 c 1,30,-1
730.904296875 331.1171875 m 0,57,58
 764.809570312 318.271484375 764.809570312 318.271484375 790.764648438 295.171875 c 128,-1,59
 816.749023438 272.045898438 816.749023438 272.045898438 832.375 240.244140625 c 128,-1,60
 848 208.442382812 848 208.442382812 848 171.588867188 c 128,-1,61
 848 134.735351562 848 134.735351562 834.32421875 101.829101562 c 128,-1,62
 820.580078125 68.7607421875 820.580078125 68.7607421875 795.763671875 44.03515625 c 128,-1,63
 770.875 19.236328125 770.875 19.236328125 736.665039062 4.6552734375 c 0,64,65
 700.217596119 -11 700.217596119 -11 654.667035398 -11 c 128,-1,66
 609.195877789 -11 609.195877789 -11 570.557679843 1.6826171875 c 0,67,68
 531.920554912 13.5009765625 531.920554912 13.5009765625 503.944907245 37.2294921875 c 0,69,70
 476.170986402 60.7861328125 476.170986402 60.7861328125 461.585493201 93.05859375 c 128,-1,71
 447 125.330078125 447 125.330078125 447 163.170898438 c 128,-1,72
 447 201.01171875 447 201.01171875 461.471753609 233.56640625 c 128,-1,73
 475.944580232 266.12109375 475.944580232 266.12109375 503.296806171 290.939453125 c 128,-1,74
 530.842174815 315.932617188 530.842174815 315.932617188 569.049020721 329.975585938 c 128,-1,75
 607.208653967 344 607.208653967 344 650.661470319 344 c 128,-1,76
 694.113213656 344 694.113213656 344 730.904296875 331.1171875 c 0,57,58
318.33906071 720.16796875 m 0,77,78
 355.593069277 707.315429688 355.593069277 707.315429688 384.111662545 684.202148438 c 128,-1,79
 412.727900181 661.010742188 412.727900181 661.010742188 429.86395009 628.712890625 c 128,-1,80
 447 596.416015625 447 596.416015625 447 559.545898438 c 128,-1,81
 447 522.676757812 447 522.676757812 431.918773858 490.165039062 c 128,-1,82
 416.818233447 457.614257812 416.818233447 457.614257812 389.604426445 432.922851562 c 128,-1,83
 362.392765474 408.233398438 362.392765474 408.233398438 324.837239686 393.1171875 c 128,-1,84
 287.280640883 378 287.280640883 378 241.530499368 378 c 128,-1,85
 195.778211823 378 195.778211823 378 158.731445312 390.3671875 c 0,86,87
 124.102539062 402.734375 124.102539062 402.734375 98.826171875 426.28515625 c 128,-1,88
 73.7353515625 449.661132812 73.7353515625 449.661132812 59.83203125 481.504882812 c 128,-1,89
 46 513.184570312 46 513.184570312 46 551.189453125 c 128,-1,90
 46 589.193359375 46 589.193359375 59.67578125 622.109375 c 128,-1,91
 73.419921875 655.188476562 73.419921875 655.188476562 98.3349609375 680.020507812 c 128,-1,92
 123.25 704.853515625 123.25 704.853515625 157.4375 718.889648438 c 0,93,94
 193.984130705 734 193.984130705 734 237.480940673 734 c 128,-1,95
 280.976677626 734 280.976677626 734 318.33906071 720.16796875 c 0,77,78
EndSplineSet
Validated: 524321
EndChar

StartChar: ampersand
Encoding: 38 38 23
Width: 811
Flags: W
LayerCount: 2
Fore
SplineSet
332.266083597 459.56535912 m 0,0,1
 352.645230601 473.532921304 352.645230601 473.532921304 363.822615301 497.085263865 c 0,2,3
 375 520.637606425 375 520.637606425 375 549.404287623 c 0,4,5
 375 578.170968821 375 578.170968821 359.542578912 597.308728264 c 0,6,7
 346.061167125 614 346.061167125 614 318.947955096 614 c 0,8,9
 291.834743066 614 291.834743066 614 276.917371533 598.065534953 c 0,10,11
 262 582.131069906 262 582.131069906 262 556 c 0,12,13
 262 539.628095535 262 539.628095535 268.936588108 524.984187308 c 0,14,15
 272.056512238 517.184376982 272.056512238 517.184376982 279.977164362 506.345589865 c 0,16,17
 293.07701108 488.419483831 293.07701108 488.419483831 322.564955336 463.649610655 c 0,18,19
 326.170126225 460.621267109 326.170126225 460.621267109 329.59373779 458.094102225 c 0,20,21
 330.915845125 458.854284337 330.915845125 458.854284337 332.266083597 459.56535912 c 0,0,1
175 198 m 0,22,23
 175 143.582721814 175 143.582721814 212.745247373 107.593067343 c 0,24,25
 230.969923004 90.2160510431 230.969923004 90.2160510431 254.555315887 80.1080255215 c 0,26,27
 278.140708771 70 278.140708771 70 306 70 c 0,28,29
 348.217105824 70 348.217105824 70 378.831503322 87.9312899631 c 0,30,31
 409.44590082 105.862579926 409.44590082 105.862579926 440.19289656 137.54130281 c 0,32,33
 445.440862217 142.789268467 445.440862217 142.789268467 448.377365111 147.327500212 c 0,34,35
 451.313868005 151.865731958 451.313868005 151.865731958 453.183906396 154.72653259 c 0,36,37
 450.16685718 159.519896704 450.16685718 159.519896704 442.643107558 168.069612184 c 0,38,39
 428.418432168 184.234016036 428.418432168 184.234016036 422.510583237 191.348424209 c 0,40,41
 356.243452224 273.73458709 356.243452224 273.73458709 266.155622691 336.640105901 c 1,42,43
 228.871517076 319.207604468 228.871517076 319.207604468 203.484792497 285.484940478 c 0,44,45
 175 247.646932534 175 247.646932534 175 198 c 0,22,23
188.875152429 640.211855754 m 0,46,47
 211.256134744 663.770784507 211.256134744 663.770784507 242.425893518 677.885392253 c 0,48,49
 273.595652292 692 273.595652292 692 309.215086682 692 c 0,50,51
 385.492991352 692 385.492991352 692 433.767800678 661.687910423 c 0,52,53
 460.546404551 644.873438224 460.546404551 644.873438224 476.773202275 616.788596008 c 0,54,55
 493 588.703753792 493 588.703753792 493 549 c 0,56,57
 493 517.713591263 493 517.713591263 479.602945002 492.746352402 c 0,58,59
 466.205890003 467.779113542 466.205890003 467.779113542 446.904442391 449.045355565 c 0,60,61
 424.9749733 427.76087086 424.9749733 427.76087086 396.069529988 410.186603748 c 1,62,63
 421.445138121 390.903268129 421.445138121 390.903268129 443.282140603 369.066265647 c 0,64,65
 473.636429032 338.711977218 473.636429032 338.711977218 522.26339236 283.513905153 c 0,66,67
 530.393209044 274.285464593 530.393209044 274.285464593 538.229320181 265.448000877 c 1,68,69
 545.385253279 274.328554237 545.385253279 274.328554237 555.248621692 285.770061596 c 0,70,71
 592 328.401660434 592 328.401660434 592 357 c 0,72,73
 592 364.056770521 592 364.056770521 590.933093792 369.255181965 c 1,74,75
 585.184381971 371.454525123 585.184381971 371.454525123 579.843948875 374.124741671 c 0,76,77
 561 383.546716109 561 383.546716109 561 412 c 0,78,79
 561 422.096820944 561 422.096820944 567.713692544 430.488936623 c 0,80,81
 574.427385088 438.881052303 574.427385088 438.881052303 586.665280481 441.940526152 c 0,82,83
 598.903175875 445 598.903175875 445 609 445 c 2,84,-1
 676 445 l 2,85,86
 697.850545595 445 697.850545595 445 719.850545595 447 c 0,87,88
 741.850545595 449 741.850545595 449 767 449 c 0,89,90
 780.87664195 449 780.87664195 449 792.312758219 440.994718611 c 0,91,92
 808 430.013649365 808 430.013649365 808 410.501429638 c 0,93,94
 808 390.989209912 808 390.989209912 793.599682816 379.468956164 c 0,95,96
 778.034707938 367.016976262 778.034707938 367.016976262 752.988141851 365.543648845 c 0,97,98
 743.746111483 365 743.746111483 365 737.702774882 365 c 0,99,100
 731.659438281 365 731.659438281 365 719.441574208 355.373804064 c 0,101,102
 707.223710135 345.747608127 707.223710135 345.747608127 693.014378414 329.704814249 c 0,103,104
 678.805046693 313.66202037 678.805046693 313.66202037 667.595588695 297.091517244 c 0,105,106
 641.705286301 258.818896313 641.705286301 258.818896313 589.216335102 192.951902488 c 1,107,108
 625.195341879 142.85224397 625.195341879 142.85224397 659.62316136 112.16657878 c 0,109,110
 680.418662464 93.6314582311 680.418662464 93.6314582311 702.918982128 81.5159014888 c 0,111,112
 725.419301792 69.4003447465 725.419301792 69.4003447465 755.283413445 66.5102694252 c 1,113,114
 764.472559233 62.5720640877 764.472559233 62.5720640877 774.329045885 59.6730974253 c 0,115,116
 784.185532537 56.7741307629 784.185532537 56.7741307629 793.181943157 50.2312866762 c 0,117,118
 809.533333333 38.3393665476 809.533333333 38.3393665476 809.533333333 18.0488888889 c 0,119,120
 809.533333333 3.9884412035 809.533333333 3.9884412035 799.107075932 -12.3956775698 c 2,121,-1
 794.32067407 -19.9171662105 l 1,122,123
 777.954044655 -25.3727093488 777.954044655 -25.3727093488 766.751666192 -27.1415059483 c 0,124,125
 755.791161621 -28.8721119331 755.791161621 -28.8721119331 733.712934467 -29.9360559666 c 0,126,127
 711.634707312 -31 711.634707312 -31 703 -31 c 0,128,129
 648.345196022 -31 648.345196022 -31 612.503651274 -13.9325977388 c 0,130,131
 576.662106525 3.13480452247 576.662106525 3.13480452247 552.88439554 25.806575462 c 0,132,133
 529.106684554 48.4783464016 529.106684554 48.4783464016 511.768713324 72.3180568434 c 0,134,135
 507.20275219 78.5962534019 507.20275219 78.5962534019 502.63684454 84.1555154243 c 1,136,137
 463.632855786 34.9378702545 463.632855786 34.9378702545 402.780625736 -7.51717396661 c 0,138,139
 378.816066296 -24.2366340411 378.816066296 -24.2366340411 356.958369447 -32.3466563898 c 0,140,141
 312.873551426 -49.9076187307 312.873551426 -49.9076187307 258.50865709 -50.9949175238 c 2,142,-1
 258.254533278 -51 l 2,143,144
 221.828975188 -51 221.828975188 -51 191.682998959 -42.2059096648 c 0,145,146
 156.834648697 -34.1981437449 156.834648697 -34.1981437449 127.795363368 -15.4080175746 c 0,147,148
 70.8344022123 21.4490756617 70.8344022123 21.4490756617 47.4025180227 88.2299456023 c 0,149,150
 36 120.727121967 36 120.727121967 36 157 c 2,151,-1
 36 176 l 2,152,153
 36 237.301444062 36 237.301444062 70.8185324519 283.913350409 c 0,154,155
 105.637064904 330.525256756 105.637064904 330.525256756 152.444636603 361.00460577 c 0,156,157
 170.791831609 372.876320185 170.791831609 372.876320185 185.300975898 379.815476149 c 0,158,159
 199.810120186 386.754632113 199.810120186 386.754632113 204.004468897 389.07015224 c 1,160,161
 182.967340095 410.311001967 182.967340095 410.311001967 165.248227911 438.834450849 c 0,162,163
 141 477.868183584 141 477.868183584 141 516.43044436 c 0,164,165
 141 554.992705136 141 554.992705136 153.836453165 585.916887762 c 0,166,167
 166.67290633 616.841070387 166.67290633 616.841070387 188.875152429 640.211855754 c 0,46,47
EndSplineSet
Validated: 1
EndChar

StartChar: quotesingle
Encoding: 39 39 24
Width: 159
Flags: W
LayerCount: 2
Fore
SplineSet
77 770 m 1,0,-1
 106.534073607 769.010823485 l 2,1,2
 110.324420869 769.857142653 110.324420869 769.857142653 114.204081633 769.857142857 c 0,3,4
 126.013456297 769.857142857 126.013456297 769.857142857 133.372409843 763.635805319 c 0,5,6
 148.727272727 750.654641044 148.727272727 750.654641044 148.727272727 730.966942149 c 0,7,8
 148.727272727 725.803835347 148.727272727 725.803835347 147.321529086 720.934590275 c 0,9,10
 145.449735462 709.866411352 145.449735462 709.866411352 142.132318809 681.905323713 c 0,11,12
 132.824818109 603.456376829 132.824818109 603.456376829 127.552809992 567.870322041 c 0,13,14
 122.280801875 532.284267253 122.280801875 532.284267253 118.083172802 522.387815712 c 0,15,16
 112.006045545 507.672155939 112.006045545 507.672155939 97.2702227727 501.777826078 c 0,17,18
 88.8256575771 498.4 88.8256575771 498.4 83.138101586 498.4 c 0,19,20
 77.4505455949 498.4 77.4505455949 498.4 75.2118949911 498.603513691 c 0,21,22
 63.7003126938 499.650021173 63.7003126938 499.650021173 53.1043224302 506.392924068 c 0,23,24
 37.9529107575 516.034731496 37.9529107575 516.034731496 35.2723140007 534.299879773 c 0,25,26
 12.7142918237 682.807131087 12.7142918237 682.807131087 12.7142857143 732.734693878 c 0,27,28
 12.7142857143 745.311417428 12.7142857143 745.311417428 18.3788975191 754.374796316 c 0,29,30
 28.1446498217 770 28.1446498217 770 53 770 c 2,31,-1
 77 770 l 1,0,-1
EndSplineSet
Validated: 1
EndChar

StartChar: parenleft
Encoding: 40 40 25
Width: 361
Flags: W
LayerCount: 2
Fore
SplineSet
162 269 m 0,0,1
 162 151.172736164 162 151.172736164 199.661072996 41.0865227909 c 0,2,3
 211.828766789 5.51941785744 211.828766789 5.51941785744 229.67268759 -24.5335013866 c 2,4,-1
 276.332849392 -107.819389207 l 2,5,6
 297.668240869 -145.950727166 297.668240869 -145.950727166 332.203003822 -175.688995265 c 1,7,8
 343.9 -190.727990351 343.9 -190.727990351 343.9 -206.335 c 0,9,10
 343.9 -212.869127363 343.9 -212.869127363 342.041900077 -219.372477092 c 0,11,12
 337.743428678 -234.417126989 337.743428678 -234.417126989 325.449486582 -242.123777259 c 0,13,14
 316.075512209 -248 316.075512209 -248 305.264670377 -248 c 0,15,16
 286.003207046 -248 286.003207046 -248 264.576549375 -230.267593651 c 0,17,18
 249.175539248 -217.521930098 249.175539248 -217.521930098 242.13735112 -210.48374197 c 0,19,20
 146.282951555 -112.567957468 146.282951555 -112.567957468 90.1414757776 2.83396496349 c 0,21,22
 34 118.235887395 34 118.235887395 34 259 c 0,23,24
 34 378.903617172 34 378.903617172 83.8057943367 502.339838268 c 0,25,26
 132.06355506 621.935158321 132.06355506 621.935158321 218.288635069 710.612696683 c 0,27,28
 234.055984635 729.887642586 234.055984635 729.887642586 254.185469574 746.357221172 c 0,29,30
 265.596411315 755.693446233 265.596411315 755.693446233 278.242795141 765.178234102 c 0,31,32
 290.889178967 774.663021972 290.889178967 774.663021972 302.866598449 776.659258552 c 2,33,-1
 311.792940146 778.146982169 l 1,34,-1
 319.569962987 773.610385512 l 2,35,36
 337.614133241 763.08461953 337.614133241 763.08461953 346.962985905 745.945056313 c 2,37,-1
 351.080785107 738.395757776 l 1,38,-1
 349.659258552 729.866598449 l 2,39,40
 347.241527433 715.360211733 347.241527433 715.360211733 334.070175051 703.721000221 c 0,41,42
 299.121964358 668.683477654 299.121964358 668.683477654 276.586659503 635.81948751 c 0,43,44
 220.728306156 554.921182663 220.728306156 554.921182663 191.354218974 461.501954577 c 0,45,46
 162 368.145913905 162 368.145913905 162 269 c 0,0,1
EndSplineSet
Validated: 1
EndChar

StartChar: parenright
Encoding: 41 41 26
Width: 361
Flags: W
LayerCount: 2
Fore
SplineSet
322 269 m 0,0,1
 322 176.172515904 322 176.172515904 293.978109431 86.3986813023 c 0,2,3
 257.857587861 -29.3207674289 257.857587861 -29.3207674289 189.231286676 -123.681943157 c 0,4,5
 153.262466159 -173.139071368 153.262466159 -173.139071368 111.238822867 -211.062847021 c 0,6,7
 88.7253514318 -231.379882219 88.7253514318 -231.379882219 65.3767414352 -244.721945074 c 2,8,-1
 56.3475393989 -249.881489095 l 1,9,-1
 46.3029842106 -247.091334876 l 2,10,11
 33.099037499 -243.423571901 33.099037499 -243.423571901 23.7047405193 -235.535907455 c 0,12,13
 10.9278236621 -224.808118773 10.9278236621 -224.808118773 6.74439451645 -208.074402191 c 2,14,-1
 3.62779880894 -195.608019361 l 1,15,16
 45.5075331016 -146.337743722 45.5075331016 -146.337743722 76.6239680827 -105.497586235 c 0,17,18
 153.831171834 -4.16353680882 153.831171834 -4.16353680882 179.030542081 116.143134048 c 0,19,20
 194 187.610223465 194 187.610223465 194 262 c 0,21,22
 194 419.917980615 194 419.917980615 133.752708483 551.62136207 c 0,23,24
 113.285265492 596.364144424 113.285265492 596.364144424 85.6005686196 634.549933213 c 0,25,26
 57.9158717475 672.735722002 57.9158717475 672.735722002 41.9225277587 688.729065991 c 0,27,28
 25.9291837698 704.72240998 25.9291837698 704.72240998 15.549431286 718.994569645 c 1,29,30
 11.5294117647 727.034608688 11.5294117647 727.034608688 11.5294117647 734.000738904 c 0,31,32
 11.5294117647 746.196991463 11.5294117647 746.196991463 21.2199289423 759.614630632 c 0,33,34
 35.2204734856 779 35.2204734856 779 53 779 c 0,35,36
 68.4447903264 779 68.4447903264 779 90.9892812834 760.212924202 c 0,37,38
 96.9022275803 755.285468955 96.9022275803 755.285468955 102.844179295 750.423872097 c 0,39,40
 108.786131011 745.562275239 108.786131011 745.562275239 112.674203125 741.674203125 c 0,41,42
 208.719142521 645.629263729 208.719142521 645.629263729 265.35957126 527.152036641 c 0,43,44
 322 408.674809553 322 408.674809553 322 269 c 0,0,1
EndSplineSet
Validated: 1
EndChar

StartChar: asterisk
Encoding: 42 42 27
Width: 532
Flags: W
LayerCount: 2
Fore
SplineSet
5.63033911396 553.385414286 m 0,0,1
 1.66666666667 560.520024691 1.66666666667 560.520024691 1.66666666667 569.812958037 c 0,2,3
 1.66666666667 580.239922 1.66666666667 580.239922 12.1247416712 601.156051125 c 0,4,5
 12.8343950812 602.575357945 12.8343950812 602.575357945 13.7448283979 605.306657895 c 0,6,7
 14.6552617147 608.037957846 14.6552617147 608.037957846 16.7026876669 612.644666238 c 0,8,9
 18.750113619 617.25137463 18.750113619 617.25137463 22.6875553508 626.665539784 c 0,10,11
 24.0587430244 634.393957511 24.0587430244 634.393957511 28.1937608281 640.659135675 c 0,12,13
 37.6587312826 655 37.6587312826 655 54.3494428807 655 c 0,14,15
 71.0401544787 655 71.0401544787 655 83.6510973052 645.285217434 c 0,16,17
 92.4422095478 639.592103504 92.4422095478 639.592103504 116.817003648 626.209865343 c 0,18,19
 170.533271362 596.718584935 170.533271362 596.718584935 208.994793672 573.805337601 c 0,20,21
 215.822580563 569.737719879 215.822580563 569.737719879 221.679030864 566.150447596 c 1,22,23
 219.419488313 580.808318486 219.419488313 580.808318486 213.754518382 617.412132971 c 0,24,25
 203.025651627 686.735969302 203.025651627 686.735969302 199.887293164 730.672987794 c 0,26,27
 201.72198755 745.350542882 201.72198755 745.350542882 205.99990658 753.906380942 c 0,28,29
 215.546716109 773 215.546716109 773 243 773 c 2,30,-1
 261 773 l 2,31,32
 266.495643334 773 266.495643334 773 273.922194069 771.514689853 c 2,33,-1
 274.023521779 771.498644239 l 2,34,35
 276.604116178 771.101629716 276.604116178 771.101629716 283.840315621 771.013132258 c 0,36,37
 288.270180359 771.444582776 288.270180359 771.444582776 289.703703704 771.444444444 c 0,38,39
 298.841346077 771.444444444 298.841346077 771.444444444 307.582405044 766.581868595 c 0,40,41
 316.323464011 761.719292746 316.323464011 761.719292746 320.561732005 751.830000758 c 0,42,43
 324.8 741.940708771 324.8 741.940708771 324.8 734.969398702 c 0,44,45
 324.8 727.998088634 324.8 727.998088634 323.333753881 722.959177645 c 0,46,47
 321.585669228 712.038698211 321.585669228 712.038698211 319.241896766 684.382181647 c 0,48,49
 312.705056007 607.247456454 312.705056007 607.247456454 307.69344857 569.180510025 c 1,50,51
 355.640309439 597.13207024 355.640309439 597.13207024 398.304169366 620.476591113 c 0,52,53
 441.455897786 644.088061087 441.455897786 644.088061087 450.668929383 650.997834784 c 0,54,55
 462.174342423 655.6 462.174342423 655.6 472.28 655.6 c 0,56,57
 491.614582408 655.6 491.614582408 655.6 501.400098137 641.663053356 c 0,58,59
 505.42607862 635.929081153 505.42607862 635.929081153 507.011440674 628.870169083 c 0,60,61
 510.995889519 620.831900259 510.995889519 620.831900259 513.27208213 615.824271996 c 0,62,63
 515.581424499 610.743718784 515.581424499 610.743718784 518.615337709 604.675892365 c 0,64,65
 521.649250918 598.608065946 521.649250918 598.608065946 524.712990052 591.476315761 c 0,66,67
 529.941823742 581.115277416 529.941823742 581.115277416 529.941823742 571.524733032 c 0,68,69
 529.941823742 571.418028169 529.941823742 571.418028169 529.941176471 571.311418685 c 0,70,71
 529.941176471 547.554395555 529.941176471 547.554395555 500.867248574 536.620502373 c 0,72,73
 486.672825372 531.170569732 486.672825372 531.170569732 460.181437291 524.038273701 c 0,74,75
 433.690049211 516.905977671 433.690049211 516.905977671 405.58264962 508.875292073 c 0,76,77
 369.946391302 498.693503982 369.946391302 498.693503982 332.902071006 489.685965133 c 1,78,79
 335.606404736 487.143124426 335.606404736 487.143124426 338.537859063 484.284956456 c 0,80,81
 373.637335326 450.0629671 373.637335326 450.0629671 408.709248057 412.360660915 c 0,82,83
 443.781160788 374.658354729 443.781160788 374.658354729 450.067579145 369.150879694 c 0,84,85
 461.660755656 359.585010846 461.660755656 359.585010846 464.945684204 344.255342318 c 0,86,87
 465.736842105 340.563272111 465.736842105 340.563272111 465.736842105 336.889196676 c 0,88,89
 465.736842105 323.647544306 465.736842105 323.647544306 456.436294074 314.236858206 c 0,90,91
 452.692249202 310.44847596 452.692249202 310.44847596 447.909150632 307.890683945 c 0,92,93
 441.999244027 302.501056506 441.999244027 302.501056506 438.133940187 298.152587748 c 0,94,95
 432.080927293 291.342945206 432.080927293 291.342945206 422.842247627 285.183825429 c 2,96,-1
 414.432294365 279.577189921 l 2,97,98
 402.601852555 270.833333333 402.601852555 270.833333333 389.340277778 270.833333333 c 0,99,100
 370.507353076 270.833333333 370.507353076 270.833333333 354.850248813 289.099954974 c 0,101,102
 346.856601187 301.661401243 346.856601187 301.661401243 318.038784823 350.688904085 c 0,103,104
 286.444871322 404.439357083 286.444871322 404.439357083 268.373320748 438.172850794 c 1,105,106
 257.310431022 420.612416259 257.310431022 420.612416259 236.234972268 390.423245599 c 0,107,108
 208.633266737 350.885667406 208.633266737 350.885667406 192.701953353 327.230080865 c 0,109,110
 176.770639968 303.574494325 176.770639968 303.574494325 169.334685515 293.745345519 c 0,111,112
 162.862341626 282.023556685 162.862341626 282.023556685 148.829882979 276.009646089 c 0,113,114
 142.231617862 273.181818182 142.231617862 273.181818182 135.330578512 273.181818182 c 0,115,116
 119.933714735 273.181818182 119.933714735 273.181818182 109.00177955 286.336930722 c 0,117,118
 101.726587665 292.027418316 101.726587665 292.027418316 98.2438153162 295.012654234 c 0,119,120
 94.8764906189 297.898932546 94.8764906189 297.898932546 91.5050023755 300.708506082 c 0,121,122
 88.1335141321 303.518079618 88.1335141321 303.518079618 85.6335141321 306.018079618 c 2,123,-1
 76.325796875 314.325796875 l 2,124,125
 66.2325594706 324.419034279 66.2325594706 324.419034279 63.6162797353 331.021052674 c 0,126,127
 55.1980615491 352.263900128 55.1980615491 352.263900128 74.8398727593 372.184893702 c 0,128,129
 96.1559301442 395.727473558 96.1559301442 395.727473558 145.956711019 439.737465959 c 0,130,131
 177.241177555 467.384203828 177.241177555 467.384203828 198.295534535 484.239495072 c 1,132,133
 148.905319964 496.917383194 148.905319964 496.917383194 124.094141869 504.31720824 c 0,134,135
 94.9501200452 513.009284924 94.9501200452 513.009284924 68.3952263316 520.669303316 c 0,136,137
 41.840332618 528.329321707 41.840332618 528.329321707 27.9887284017 535.06048622 c 0,138,139
 12.4065786166 541.188181428 12.4065786166 541.188181428 5.63033911396 553.385414286 c 0,0,1
EndSplineSet
Validated: 1
EndChar

StartChar: plus
Encoding: 43 43 28
Width: 491
Flags: W
LayerCount: 2
Fore
SplineSet
393.12 198.6 m 2,0,-1
 299 198.019994265 l 1,1,-1
 299 29.5008713332 l 1,2,3
 266.489300471 22.9987314274 266.489300471 22.9987314274 259.151737926 22.9987314274 c 0,4,5
 259.072613023 22.9987314274 259.072613023 22.9987314274 259 23 c 2,6,-1
 245 23 l 2,7,8
 236.365292688 23 236.365292688 23 225.73344566 23.5315923514 c 0,9,10
 207.418395864 24.4473448412 207.418395864 24.4473448412 195.010718717 34.7870757975 c 2,11,-1
 185.117987935 43.0310181155 l 1,12,13
 187.6 76.5381809938 187.6 76.5381809938 187.6 104.88 c 2,14,-1
 187.021254267 197 l 1,15,-1
 35.4007473265 197 l 1,16,-1
 27.9953942302 208.444636603 l 2,17,18
 11.9285714286 233.275180933 11.9285714286 233.275180933 11.9285714286 253.247851699 c 128,-1,19
 11.9285714286 273.220522464 11.9285714286 273.220522464 27.2201060429 300.274776013 c 2,20,-1
 34.7924698519 313.672035059 l 1,21,22
 71.5772411526 312 71.5772411526 312 91 312 c 2,23,-1
 186 312 l 1,24,-1
 186 463.599252673 l 1,25,-1
 197.444636603 471.00460577 l 2,26,27
 222.275180933 487.071428571 222.275180933 487.071428571 242.340540797 487.071428571 c 128,-1,28
 262.405900661 487.071428571 262.405900661 487.071428571 288.691412729 471.539080532 c 2,29,-1
 301.657037108 463.877575217 l 1,30,31
 300 427.422758847 300 427.422758847 300 407 c 2,32,-1
 300 311 l 1,33,-1
 469.499128667 311 l 1,34,-1
 473.514689853 290.922194069 l 2,35,36
 476 278.495643334 476 278.495643334 476 270 c 2,37,-1
 476 256 l 2,38,39
 476 247.365292688 476 247.365292688 475.468407649 236.73344566 c 0,40,41
 474.488752687 217.140346437 474.488752687 217.140346437 461.674203125 204.325796875 c 2,42,-1
 453.570020923 196.221614673 l 1,43,44
 421.461819006 198.6 421.461819006 198.6 393.12 198.6 c 2,0,-1
EndSplineSet
Validated: 37
EndChar

StartChar: comma
Encoding: 44 44 29
Width: 264
Flags: W
LayerCount: 2
Fore
SplineSet
242 -9 m 0,0,1
 242 -50.9065677826 242 -50.9065677826 223.750073981 -87.4064198213 c 0,2,3
 205.500147961 -123.90627186 205.500147961 -123.90627186 177.492767361 -150.855445102 c 0,4,5
 156.629850744 -171.674030306 156.629850744 -171.674030306 126.929573945 -190.727038609 c 0,6,7
 97.2292971453 -209.780046912 97.2292971453 -209.780046912 72.1566772635 -213.658106867 c 0,8,9
 69.3833444018 -214.14285659 69.3833444018 -214.14285659 66.5612244898 -214.142857143 c 0,10,11
 51.2231490148 -214.142857143 51.2231490148 -214.142857143 39.5346514305 -201.391768869 c 0,12,13
 27.8461538462 -188.640680595 27.8461538462 -188.640680595 27.8461538462 -174.562130178 c 0,14,15
 27.8461538462 -160.695498337 27.8461538462 -160.695498337 39.7498824254 -148.63090856 c 0,16,17
 46.3904114285 -141.900642679 46.3904114285 -141.900642679 59.4473282386 -133.740069673 c 0,18,19
 96.6265880224 -110.503032308 96.6265880224 -110.503032308 117.98811406 -82.0209975906 c 0,20,21
 128 -68.6718163376 128 -68.6718163376 128 -50 c 0,22,23
 128 -35.5545848771 128 -35.5545848771 123.418830983 -32.8058834671 c 0,24,25
 118.837661967 -30.0571820571 118.837661967 -30.0571820571 109.876274227 -27.3687657353 c 0,26,27
 93.4964240393 -22.4548106789 93.4964240393 -22.4548106789 85.377286504 -18.634040074 c 0,28,29
 65.3931003651 -9.22971718516 65.3931003651 -9.22971718516 49.8658442187 3.90873032332 c 0,30,31
 28 22.4105985084 28 22.4105985084 28 54 c 0,32,33
 28 76.2782254632 28 76.2782254632 38.4899343365 92.7624079919 c 0,34,35
 48.979868673 109.246590521 48.979868673 109.246590521 63.4777108102 118.221445177 c 0,36,37
 92.1969147549 136 92.1969147549 136 124.660938546 136 c 0,38,39
 157.124962336 136 157.124962336 136 178.825533973 120.217766082 c 0,40,41
 200.52610561 104.435532164 200.52610561 104.435532164 214.285332441 82.8993510378 c 0,42,43
 228.044559272 61.363169911 228.044559272 61.363169911 235.041900077 36.8724770923 c 0,44,45
 242 12.5191273633 242 12.5191273633 242 -9 c 0,0,1
EndSplineSet
Validated: 1
EndChar

StartChar: hyphen
Encoding: 45 45 30
Width: 386
Flags: W
LayerCount: 2
Fore
SplineSet
23.1235547175 220.379342446 m 0,0,1
 22.2570672736 224.714003786 22.2570672736 224.714003786 22.2570672736 227.555852299 c 128,-1,2
 22.2570672736 230.397700812 22.2570672736 230.397700812 23 278 c 0,3,4
 23 292.577534195 23 292.577534195 35.2768564238 301.290141979 c 0,5,6
 44.4866098453 307.826096021 44.4866098453 307.826096021 61.3343656861 308.91304801 c 128,-1,7
 78.1821215269 310 78.1821215269 310 93 310 c 2,8,-1
 111 310 l 1,9,-1
 256.71875 308.75 l 2,10,11
 299.843508568 308.75 299.843508568 308.75 342.690096565 310.966202827 c 1,12,-1
 344 311 l 2,13,14
 359.778202674 311 359.778202674 311 368.486166483 297.212390635 c 0,15,16
 375 286.8988209 375 286.8988209 375 267 c 2,17,-1
 375 226 l 2,18,19
 375 218.438597158 375 218.438597158 370.913678351 211.04430084 c 0,20,21
 363.525770938 197.675706475 363.525770938 197.675706475 343.060818069 194.752141779 c 0,22,23
 330.795825616 193 330.795825616 193 316 193 c 2,24,-1
 85 193 l 2,25,26
 59.314578637 193 59.314578637 193 50.4749367087 194.955120803 c 128,-1,27
 41.6352947804 196.910241606 41.6352947804 196.910241606 37.2003768878 199.393795626 c 0,28,29
 24.4461227785 206.536177927 24.4461227785 206.536177927 23.1235547175 220.379342446 c 0,0,1
EndSplineSet
Validated: 33
EndChar

StartChar: period
Encoding: 46 46 31
Width: 257
Flags: W
LayerCount: 2
Fore
SplineSet
185.826554903 105.7229966 m 0,0,1
 206 79.4975179741 206 79.4975179741 206 42.7435142507 c 0,2,3
 206 5.9895105272 206 5.9895105272 180.84948643 -17.0052447364 c 0,4,5
 155.698972861 -40 155.698972861 -40 119.490684594 -40 c 0,6,7
 83.2823963278 -40 83.2823963278 -40 57.6411981639 -16.4955683498 c 0,8,9
 32 7.00886330047 32 7.00886330047 32 45.8777511145 c 0,10,11
 32 84.7466389286 32 84.7466389286 58.5226072321 109.873319464 c 0,12,13
 85.0452144643 135 85.0452144643 135 122 135 c 0,14,15
 163.305783057 135 163.305783057 135 185.826554903 105.7229966 c 0,0,1
EndSplineSet
Validated: 1
EndChar

StartChar: slash
Encoding: 47 47 32
Width: 387
Flags: W
LayerCount: 2
Fore
SplineSet
77 -56 m 1,0,-1
 48.8888888889 -57.3333333333 l 2,1,2
 36.3593415247 -57.3333333333 36.3593415247 -57.3333333333 -14.7106592033 -53.4048717389 c 1,3,4
 67.562610023 173.715702463 67.562610023 173.715702463 140.497679687 364.046387766 c 0,5,6
 213.436252361 554.386214492 213.436252361 554.386214492 282.336451823 763.206819014 c 1,7,-1
 294.814490657 766.950230664 l 2,8,9
 308.313721776 771 308.313721776 771 324.079344945 771 c 0,10,11
 351.495643334 771 351.495643334 771 363.922194069 768.514689853 c 2,12,-1
 390.350672397 763.228994187 l 1,13,-1
 383.077602438 737.253744337 l 2,14,15
 368.748439536 686.078162542 368.748439536 686.078162542 350.072051488 638.123518668 c 2,16,-1
 203.87011486 252.108598129 l 2,17,18
 149.575162571 109.646613225 149.575162571 109.646613225 95.1007729872 -56 c 1,19,-1
 77 -56 l 1,0,-1
EndSplineSet
Validated: 33
EndChar

StartChar: zero
Encoding: 48 48 33
Width: 723
Flags: W
LayerCount: 2
Fore
SplineSet
227.675408996 464.103515625 m 128,-1,1
 216.659662248 403.608398438 216.659662248 403.608398438 216.659662248 346.484375 c 0,2,3
 216.659662248 220.24609375 216.659662248 220.24609375 254.707397561 143.405273438 c 0,4,5
 274.531231678 103.549804688 274.531231678 103.549804688 303.525083021 80.5654296875 c 128,-1,6
 332.518934364 57.580078125 332.518934364 57.580078125 373.522993932 57.580078125 c 0,7,8
 404.873335623 57.580078125 404.873335623 57.580078125 428.582560046 76.435546875 c 0,9,10
 456.156879643 98.36328125 456.156879643 98.36328125 476.572655115 138.634765625 c 128,-1,11
 496.988430588 178.905273438 496.988430588 178.905273438 507.778675867 232.240234375 c 128,-1,12
 518.568921146 285.575195312 518.568921146 285.575195312 519.686280923 342.045898438 c 0,13,14
 519.660348254 400.506835938 519.660348254 400.506835938 509.799169027 459.73046875 c 0,15,16
 488.99891355 581.899414062 488.99891355 581.899414062 427.556528363 633.323242188 c 0,17,18
 406.086533525 651.291992188 406.086533525 651.291992188 378.069103541 654.657226562 c 1,19,20
 371.300676957 651.059570312 371.300676957 651.059570312 362.547837448 651.059570312 c 128,-1,21
 353.793870432 651.059570312 353.793870432 651.059570312 346.866465312 654.907226562 c 1,22,23
 325.421275635 651.982421875 325.421275635 651.982421875 306.527635077 635.260742188 c 0,24,25
 278.944295421 610.846679688 278.944295421 610.846679688 258.817161829 567.72265625 c 128,-1,0
 238.691155744 524.59765625 238.691155744 524.59765625 227.675408996 464.103515625 c 128,-1,1
53.181640625 329.584960938 m 128,-1,27
 53.181640625 405.734375 53.181640625 405.734375 72.515625 472.361328125 c 0,28,29
 112.462890625 610.01953125 112.462890625 610.01953125 224.798010255 672.5546875 c 0,30,31
 286.898859731 704.34375 286.898859731 704.34375 361.419202597 704.34375 c 128,-1,32
 435.940672971 704.34375 435.940672971 704.34375 498.376392128 675.776367188 c 0,33,34
 560.303710938 647.208007812 560.303710938 647.208007812 598.349609375 599.444335938 c 128,-1,35
 636.39453125 551.6796875 636.39453125 551.6796875 658.14453125 486.40234375 c 128,-1,36
 679.89453125 421.124023438 679.89453125 421.124023438 679.89453125 347.40234375 c 128,-1,37
 679.89453125 273.6796875 679.89453125 273.6796875 660.502929688 206.857421875 c 128,-1,38
 641.111328125 140.03515625 641.111328125 140.03515625 605.48046875 88.05078125 c 0,39,40
 569.45703125 35.494140625 569.45703125 35.494140625 508.389784847 3.935546875 c 0,41,42
 445.39820457 -27.623046875 445.39820457 -27.623046875 369.140372887 -27.623046875 c 128,-1,43
 292.881413696 -27.623046875 292.881413696 -27.623046875 228.329363255 -0.4677734375 c 0,44,45
 166.698242188 26.583984375 166.698242188 26.583984375 129.491210938 75.462890625 c 128,-1,46
 92.28515625 124.340820312 92.28515625 124.340820312 72.7333984375 188.8203125 c 128,-1,26
 53.181640625 253.299804688 53.181640625 253.299804688 53.181640625 329.584960938 c 128,-1,27
EndSplineSet
Validated: 524289
EndChar

StartChar: one
Encoding: 49 49 34
Width: 427
Flags: W
LayerCount: 2
Fore
SplineSet
282.977539062 578.750976562 m 2,0,1
 282.99035279 578.2695221 282.99035279 578.2695221 282.990234375 578.263671875 c 2,2,3
 283 577 283 577 282 529.341796875 c 0,4,5
 282 445 282 445 280.497070312 359.995117188 c 128,-1,6
 279 275 279 275 279 191.041992188 c 2,7,8
 279 185 279 185 279 169.465820312 c 2,9,10
 279 157 279 157 282.603515625 129.731445312 c 0,11,12
 285 111 285 111 293.603515625 99.9267578125 c 0,13,14
 299 93 299 93 312.0234375 89.224609375 c 0,15,16
 325 86 325 86 340.2578125 81.8330078125 c 0,17,18
 355 78 355 78 368.393554688 72.2626953125 c 0,19,20
 390 63 390 63 390 38.6474609375 c 0,21,22
 390 24 390 24 384.598632812 13.91015625 c 0,23,24
 377 -0 377 -0 359.931640625 -2.244140625 c 0,25,26
 339 -5 339 -5 334.326171875 -4.787109375 c 0,27,28
 330 -5 330 -5 327.379882812 -4.7255859375 c 0,29,30
 325 -5 325 -5 322.743164062 -4.7587890625 c 0,31,32
 273 -5 273 -5 267.538085938 -0.125 c 0,33,34
 263.435822278 4.5078125 263.435822278 4.5078125 201.13115863 4.5078125 c 2,35,-1
 199.924868434 4.5078125 l 2,36,37
 167 5 167 5 151.8671875 0.3798828125 c 0,38,39
 136 -4 136 -4 127.280273438 -4.330078125 c 0,40,41
 119 -5 119 -5 115 -5.1787109375 c 1,42,43
 115 4 115 4 115 -6.259765625 c 1,44,-1
 105 -6.259765625 l 1,45,-1
 97.5 -6.259765625 l 1,46,-1
 83.416015625 -6.259765625 l 2,47,48
 69 -6 69 -6 55.2197265625 1.2060546875 c 0,49,50
 36 11 36 11 36 38.755859375 c 0,51,52
 36 61 36 61 54.220703125 72.0859375 c 0,53,54
 63 78 63 78 82.837890625 83.56640625 c 0,55,56
 96 87 96 87 111.311523438 92.0458984375 c 0,57,58
 121 95 121 95 129.169921875 105.3125 c 0,59,60
 135 112 135 112 137.745117188 140.51171875 c 0,61,62
 140 169 140 169 140 196.880859375 c 2,63,64
 140 216 140 216 140 227.782226562 c 1,65,66
 140 240 140 240 141 334.571289062 c 2,67,68
 141 342 141 342 142 485.3125 c 1,69,70
 142 496 142 496 142 514.595703125 c 2,71,72
 142 556 142 556 140.572265625 561.954101562 c 0,73,74
 140 564 140 564 137.040039062 563.96484375 c 0,75,76
 135 564 135 564 106.91015625 565.90625 c 1,77,-1
 89.5 565.90625 l 2,78,79
 74 566 74 566 56.1240234375 573.970703125 c 0,80,81
 37 582 37 582 36.2490234375 612.5390625 c 0,82,83
 35.9970486705 619.076572534 35.9970486705 619.076572534 37.6923828125 630.190429688 c 2,84,85
 37.6755087592 630.20087553 37.6755087592 630.20087553 37.7099609375 630.305664062 c 2,86,87
 40 648 40 648 45.298828125 653.387695312 c 0,88,89
 50 659 50 659 56.1181640625 659.66015625 c 0,90,91
 75 664 75 664 80.0234375 664.807617188 c 0,92,93
 107 670 107 670 151.5859375 690.623046875 c 0,94,95
 177.486466604 702.217773438 177.486466604 702.217773438 232.299445228 702.217773438 c 2,96,-1
 235.495455399 702.217773438 l 1,97,98
 241 700 241 700 249 700 c 0,99,100
 258 700 258 700 258 700 c 1,101,102
 264 701 264 701 264 701 c 1,103,104
 274 701 274 701 274 701 c 1,105,-1
 277 701 l 1,106,107
 278 701 278 701 279 701 c 1,108,109
 279 701 279 701 281 701 c 1,110,111
 281 701 281 701 285 700 c 1,112,113
 293.329095759 696.87658909 293.329095759 696.87658909 294.30078125 689.799804688 c 2,114,115
 298 686 298 686 298 662.858398438 c 0,116,117
 298 649 298 649 295.958007812 630.125976562 c 1,118,119
 296 622 296 622 295.948242188 627.490234375 c 1,120,121
 296 620 296 620 295.859375 626.299804688 c 2,122,123
 296 626 296 626 296.022460938 625.709960938 c 0,124,125
 296 625 296 625 295.01953125 623.432617188 c 0,126,127
 293 610 293 610 287.900390625 601.833984375 c 0,128,129
 281 591 281 591 282.904296875 581.502929688 c 0,130,131
 283 581 283 581 282.977539062 578.750976562 c 2,0,1
272.997070312 591.627929688 m 1,132,-1
 264.785427173 583.987304688 l 1,133,-1
 280.90625 583.83984375 l 1,134,-1
 272.997070312 591.627929688 l 1,132,-1
EndSplineSet
Validated: 524325
EndChar

StartChar: two
Encoding: 50 50 35
Width: 566
Flags: W
LayerCount: 2
Fore
SplineSet
64.158203125 465.361328125 m 0,0,1
 47 482.576171875 47 482.576171875 47 513.245117188 c 0,2,3
 47 527.1484375 47 527.1484375 52.2021484375 545.04296875 c 128,-1,4
 57.4033203125 562.9375 57.4033203125 562.9375 64.095703125 575.526367188 c 128,-1,5
 70.7880859375 588.116210938 70.7880859375 588.116210938 76.021484375 599.930664062 c 128,-1,6
 81.255859375 611.747070312 81.255859375 611.747070312 85.6396484375 618.561523438 c 0,7,8
 107.625 656.44921875 107.625 656.44921875 127.921875 676.522460938 c 0,9,10
 164.09765625 712.30078125 164.09765625 712.30078125 212.303710938 716.3359375 c 0,11,12
 231.818359375 717.924804688 231.818359375 717.924804688 251.338867188 717.924804688 c 0,13,14
 358.2734375 717.924804688 358.2734375 717.924804688 408.78515625 642.028320312 c 0,15,16
 439.091796875 595.204101562 439.091796875 595.204101562 439.091796875 530.962890625 c 0,17,18
 439.091796875 493.084960938 439.091796875 493.084960938 428.979492188 449.412109375 c 0,19,20
 416.109375 394.162109375 416.109375 394.162109375 356.498046875 303.817382812 c 0,21,22
 299.751953125 217.818359375 299.751953125 217.818359375 223.4453125 133.110351562 c 1,23,24
 239.803710938 132.265625 239.803710938 132.265625 256.858398438 132.265625 c 128,-1,25
 273.71484375 132.265625 273.71484375 132.265625 302.493164062 133.793945312 c 128,-1,26
 331.2734375 135.322265625 331.2734375 135.322265625 357.158203125 141.864257812 c 128,-1,27
 383.04296875 148.407226562 383.04296875 148.407226562 392.823242188 155.194335938 c 0,28,29
 421.233398438 200.41796875 421.233398438 200.41796875 439.16796875 234.334960938 c 0,30,31
 454.434570312 268.25 454.434570312 268.25 462.907226562 286.254882812 c 0,32,33
 466.5234375 293.936523438 466.5234375 293.936523438 473.768554688 309.590820312 c 0,34,35
 486.950195312 336.869140625 486.950195312 336.869140625 507.369140625 336.869140625 c 0,36,37
 515.0625 336.869140625 515.0625 336.869140625 522.767578125 332.520507812 c 0,38,39
 544.591796875 320.204101562 544.591796875 320.204101562 552.857421875 292.2109375 c 2,40,41
 555.571289062 320.647460938 555.571289062 320.647460938 558.28515625 273.833984375 c 1,42,43
 554.706054688 302.966796875 554.706054688 302.966796875 551.127929688 256.849609375 c 2,44,45
 527.014648438 199.623046875 527.014648438 199.623046875 518.221679688 154.349609375 c 0,46,47
 505.19140625 87.2578125 505.19140625 87.2578125 501.896484375 32.716796875 c 0,48,49
 499.905273438 -0.240234375 499.905273438 -0.240234375 482.815429688 -12.2177734375 c 0,50,51
 476.505859375 -16.6396484375 476.505859375 -16.6396484375 472.013671875 -16.6396484375 c 0,52,53
 450.701171875 -16.6396484375 450.701171875 -16.6396484375 393.341796875 -5.26171875 c 0,54,55
 332.432617188 6.119140625 332.432617188 6.119140625 254.552734375 9.0703125 c 0,56,57
 222.006835938 9.0703125 222.006835938 9.0703125 184.435546875 8.375 c 0,58,59
 151.198242188 7.6796875 151.198242188 7.6796875 127.342773438 7.5830078125 c 1,60,61
 115.171875 -15.5830078125 115.171875 -15.5830078125 99.6142578125 -15.5830078125 c 0,62,63
 97.119140625 -15.5830078125 97.119140625 -15.5830078125 94.5859375 -14.896484375 c 0,64,65
 78.7939453125 -13.8271484375 78.7939453125 -13.8271484375 67.818359375 -1.8134765625 c 0,66,67
 52 13.44140625 52 13.44140625 52 47.5537109375 c 0,68,69
 52 67.4296875 52 67.4296875 63.8134765625 83.55859375 c 0,70,71
 116.575195312 160.834960938 116.575195312 160.834960938 173.602539062 269.200195312 c 0,72,73
 231.924804688 360.278320312 231.924804688 360.278320312 263.483398438 439.33203125 c 0,74,75
 274.234375 479.424804688 274.234375 479.424804688 274.747070312 493.397460938 c 0,76,77
 274.747070312 512.8671875 274.747070312 512.8671875 266.349609375 526.423828125 c 0,78,79
 248.41015625 555.384765625 248.41015625 555.384765625 200.827148438 555.384765625 c 0,80,81
 168.90625 555.384765625 168.90625 555.384765625 155.752929688 545.486328125 c 0,82,83
 134.626953125 529.58984375 134.626953125 529.58984375 123.661132812 498.083007812 c 0,84,85
 108.883789062 455.624023438 108.883789062 455.624023438 84.857421875 455.624023438 c 0,86,87
 73.8623046875 455.624023438 73.8623046875 455.624023438 64.158203125 465.361328125 c 0,0,1
EndSplineSet
Validated: 524289
EndChar

StartChar: three
Encoding: 51 51 36
Width: 516
Flags: W
LayerCount: 2
Fore
SplineSet
45.416015625 597.955078125 m 4,0,1
 45.185546875 600.954101562 45.185546875 600.954101562 45.185546875 602.875 c 4,2,3
 45.185546875 623.837890625 45.185546875 623.837890625 61.5263671875 644.578125 c 4,4,5
 94.267578125 686.134765625 94.267578125 686.134765625 151.986328125 709.22265625 c 4,6,7
 186.127929688 721 186.127929688 721 224 721 c 4,8,9
 309.58203125 721 309.58203125 721 363.822265625 691.866210938 c 4,10,11
 386.913085938 675.471679688 386.913085938 675.471679688 400.584960938 650.401367188 c 132,-1,12
 414.256835938 625.331054688 414.256835938 625.331054688 414.256835938 589.65234375 c 4,13,14
 414.256835938 563.194335938 414.256835938 563.194335938 398.291992188 534.84375 c 4,15,16
 371.705078125 487.62890625 371.705078125 487.62890625 314.78515625 443.848632812 c 5,17,18
 384.69140625 434.2421875 384.69140625 434.2421875 423.563476562 399.23046875 c 4,19,20
 452.5 373.169921875 452.5 373.169921875 467.877929688 336.83203125 c 132,-1,21
 483.256835938 300.494140625 483.256835938 300.494140625 483.256835938 259.408203125 c 4,22,23
 483.256835938 198.63671875 483.256835938 198.63671875 449.478515625 144.456054688 c 132,-1,24
 415.700195312 90.2744140625 415.700195312 90.2744140625 365.576171875 50.2529296875 c 4,25,26
 299.669921875 10.2314453125 299.669921875 10.2314453125 217.932617188 -13.3720703125 c 4,27,28
 144.48046875 -36.974609375 144.48046875 -36.974609375 85.7275390625 -37.99609375 c 5,29,-1
 85.2568359375 -37.99609375 l 6,30,31
 66.39453125 -37.99609375 66.39453125 -37.99609375 56.400390625 -24.0078125 c 4,32,33
 49.673828125 -15.2236328125 49.673828125 -15.2236328125 49.673828125 -4.0615234375 c 4,34,35
 49.673828125 8.8251953125 49.673828125 8.8251953125 57.5478515625 19.1083984375 c 132,-1,36
 65.421875 29.3916015625 65.421875 29.3916015625 79.31640625 31.576171875 c 4,37,38
 123.165039062 43.0419921875 123.165039062 43.0419921875 163.137695312 61.251953125 c 4,39,40
 272.56640625 98.724609375 272.56640625 98.724609375 317.897460938 160.482421875 c 4,41,42
 339.9453125 190.520507812 339.9453125 190.520507812 339.9453125 228.787109375 c 4,43,44
 339.9453125 270.653320312 339.9453125 270.653320312 308.127929688 304.817382812 c 4,45,46
 276.615234375 340.01171875 276.615234375 340.01171875 222.483398438 347.485351562 c 4,47,48
 183.142578125 353.307617188 183.142578125 353.307617188 165.000976562 353.307617188 c 4,49,50
 150.778320312 353.307617188 150.778320312 353.307617188 136.758789062 346.297851562 c 4,51,52
 131.608398438 344.08984375 131.608398438 344.08984375 121.977539062 337.15625 c 4,53,54
 102.31640625 323 102.31640625 323 88.2568359375 323 c 4,55,56
 66.5458984375 323 66.5458984375 323 55.4033203125 338.431640625 c 4,57,58
 48.2568359375 348.330078125 48.2568359375 348.330078125 48.2568359375 362.702148438 c 4,59,60
 48.2568359375 385.748046875 48.2568359375 385.748046875 76.7509765625 397.962890625 c 4,61,62
 90.1708984375 403.715820312 90.1708984375 403.715820312 95.9091796875 406.356445312 c 4,63,64
 116.962890625 416.524414062 116.962890625 416.524414062 142.276367188 434.26953125 c 132,-1,65
 167.588867188 452.014648438 167.588867188 452.014648438 197.478515625 473.40625 c 132,-1,66
 227.534179688 494.797851562 227.534179688 494.797851562 245.901367188 516.759765625 c 132,-1,67
 264.26953125 538.72265625 264.26953125 538.72265625 264.26953125 558.444335938 c 4,68,69
 264.26953125 593.7109375 264.26953125 593.7109375 240.689453125 608.85546875 c 132,-1,70
 217.110351562 624 217.110351562 624 185.943359375 624 c 4,71,72
 158.232421875 624 158.232421875 624 145.150390625 613.208007812 c 4,73,74
 126.46875 597.795898438 126.46875 597.795898438 103.62890625 573.051757812 c 4,75,76
 94.083984375 563.1171875 94.083984375 563.1171875 81.7001953125 563.1171875 c 132,-1,77
 69.3173828125 563.1171875 69.3173828125 563.1171875 58.6728515625 572.697265625 c 132,-1,78
 48.029296875 582.27734375 48.029296875 582.27734375 45.416015625 597.955078125 c 4,0,1
EndSplineSet
Validated: 524289
EndChar

StartChar: four
Encoding: 52 52 37
Width: 691
Flags: W
LayerCount: 2
Fore
SplineSet
175.110351562 340.873046875 m 4,0,1
 168.328125 331.938476562 168.328125 331.938476562 157.279296875 320.202148438 c 5,2,-1
 345.498046875 325 l 6,3,4
 347.815429688 325 347.815429688 325 350.030273438 325.10546875 c 6,5,-1
 350.030273438 383 l 5,6,-1
 348.897460938 539 l 5,7,-1
 348.897460938 542.255859375 l 5,8,9
 324.009765625 514.095703125 324.009765625 514.095703125 295.661132812 482.881835938 c 4,10,11
 236.818359375 418.092773438 236.818359375 418.092773438 175.110351562 340.873046875 c 4,0,1
496.200195312 322 m 5,12,-1
 548.322265625 322 l 5,13,-1
 619.270507812 323 l 6,14,15
 643.263671875 323 643.263671875 323 661.266601562 305.853515625 c 132,-1,16
 679.270507812 288.708007812 679.270507812 288.708007812 679.270507812 264.237304688 c 132,-1,17
 679.270507812 239.766601562 679.270507812 239.766601562 663.080078125 226.814453125 c 4,18,19
 650.811523438 217 650.811523438 217 632.270507812 217 c 4,20,21
 619.2578125 217 619.2578125 217 606.7578125 218 c 132,-1,22
 594.2578125 219 594.2578125 219 582.270507812 219 c 6,23,-1
 562.270507812 219 l 5,24,-1
 516.666992188 219.625 l 6,25,26
 505.318359375 219.625 505.318359375 219.625 498.466796875 218.678710938 c 5,27,28
 498.466796875 135.140625 498.466796875 135.140625 498.466796875 35.064453125 c 6,29,30
 498.466796875 26.3427734375 498.466796875 26.3427734375 497.782226562 21.943359375 c 132,-1,31
 497.09765625 17.5439453125 497.09765625 17.5439453125 497.09765625 17.341796875 c 132,-1,32
 497.09765625 17.140625 497.09765625 17.140625 501.580078125 9.9345703125 c 5,33,34
 501.046875 25.501953125 501.046875 25.501953125 500.512695312 3.0693359375 c 6,35,36
 498.1953125 -11.8349609375 498.1953125 -11.8349609375 487.95703125 -21.3642578125 c 132,-1,37
 477.719726562 -30.8935546875 477.719726562 -30.8935546875 464.211914062 -35.796875 c 4,38,39
 441.122070312 -45 441.122070312 -45 417.146484375 -45 c 132,-1,40
 393.170898438 -45 393.170898438 -45 375.58203125 -38.6494140625 c 4,41,42
 345.498046875 -28.744140625 345.498046875 -28.744140625 345.498046875 -7.962890625 c 134,-1,43
 345.498046875 12.75 345.498046875 12.75 345.498046875 -6.6103515625 c 6,44,45
 348.896484375 16.6396484375 348.896484375 16.6396484375 348.897460938 84.142578125 c 6,46,47
 348.897460938 134.799804688 348.897460938 134.799804688 348.897460938 168.953125 c 5,48,49
 349.463867188 188.024414062 349.463867188 188.024414062 350.030273438 200.87109375 c 5,50,51
 348.822265625 209.2421875 348.822265625 209.2421875 347.615234375 215.487304688 c 6,52,53
 342.943359375 220.25 342.943359375 220.25 330.024414062 220.25 c 6,54,-1
 295.642578125 219 l 6,55,56
 230.938476562 219 230.938476562 219 166.91796875 215 c 4,57,58
 106.166992188 211 106.166992188 211 47.2705078125 211 c 4,59,60
 34.236328125 211 34.236328125 211 25.7041015625 217.3359375 c 4,61,62
 7.841796875 230.598632812 7.841796875 230.598632812 7.841796875 249.923828125 c 4,63,64
 7.841796875 261.870117188 7.841796875 261.870117188 15.4541015625 272.743164062 c 4,65,66
 41.478515625 309.913085938 41.478515625 309.913085938 90.6123046875 373.619140625 c 4,67,68
 140.217773438 436.452148438 140.217773438 436.452148438 180.489257812 482.686523438 c 4,69,70
 252.407226562 565.256835938 252.407226562 565.256835938 281.384765625 595.249023438 c 4,71,72
 303.30078125 618.947265625 303.30078125 618.947265625 311.279296875 632.358398438 c 132,-1,73
 319.259765625 645.76953125 319.259765625 645.76953125 325.875976562 655.87890625 c 4,74,75
 335.05859375 669.908203125 335.05859375 669.908203125 348.336914062 686.447265625 c 4,76,77
 362.055664062 702.916992188 362.055664062 702.916992188 387.567382812 709.041992188 c 4,78,79
 407.229492188 714 407.229492188 714 429 714 c 132,-1,80
 450.770507812 714 450.770507812 714 468.049804688 706.375 c 4,81,82
 494.037109375 695.608398438 494.037109375 695.608398438 494.037109375 674.502929688 c 4,83,84
 494.037109375 670.577148438 494.037109375 670.577148438 495.119140625 661.166992188 c 132,-1,85
 496.200195312 651.755859375 496.200195312 651.755859375 496.200195312 616.82421875 c 6,86,-1
 496.200195312 322 l 5,12,-1
EndSplineSet
Validated: 524293
EndChar

StartChar: five
Encoding: 53 53 38
Width: 598
Flags: W
LayerCount: 2
Fore
SplineSet
154.018554688 677.709960938 m 4,0,1
 162.6328125 678.143554688 162.6328125 678.143554688 177.2734375 678.143554688 c 6,2,3
 234.567382812 659.14453125 234.567382812 659.14453125 291.861328125 676.81640625 c 6,4,5
 355.490234375 676.81640625 355.490234375 676.81640625 407.581054688 679.399414062 c 5,6,7
 435.594726562 697.482421875 435.594726562 697.482421875 459.3359375 757.434570312 c 5,8,9
 471.16796875 774 471.16796875 774 489 774 c 4,10,11
 495.676757812 774 495.676757812 774 503.11328125 771.2109375 c 132,-1,12
 510.549804688 768.421875 510.549804688 768.421875 520.560546875 764.41796875 c 5,13,14
 522.3828125 737.595703125 522.3828125 737.595703125 524.204101562 760.7734375 c 6,15,16
 533.780273438 751.8203125 533.780273438 751.8203125 533.780273438 736.62109375 c 4,17,18
 533.780273438 725.186523438 533.780273438 725.186523438 529.229492188 708.7734375 c 132,-1,19
 524.678710938 692.361328125 524.678710938 692.361328125 519.788085938 675.896484375 c 132,-1,20
 514.896484375 659.431640625 514.896484375 659.431640625 510.848632812 639.561523438 c 5,21,22
 507.276367188 628.426757812 507.276367188 628.426757812 502.668945312 616.580078125 c 132,-1,23
 498.061523438 604.732421875 498.061523438 604.732421875 489.052734375 591.7734375 c 132,-1,24
 480.044921875 578.814453125 480.044921875 578.814453125 463.475585938 570.36328125 c 132,-1,25
 446.907226562 561.9140625 446.907226562 561.9140625 421.3046875 561.9140625 c 6,26,-1
 296.115234375 561.9140625 l 6,27,28
 227.602539062 561.9140625 227.602539062 561.9140625 202.336914062 558.501953125 c 5,29,30
 201.71875 547.998046875 201.71875 547.998046875 201.1015625 557.931640625 c 5,31,32
 191.668945312 544.719726562 191.668945312 544.719726562 182.8359375 521.163085938 c 132,-1,33
 174.00390625 497.606445312 174.00390625 497.606445312 169.32421875 484.799804688 c 5,34,35
 182.913085938 489.84765625 182.913085938 489.84765625 206.659179688 496.931640625 c 132,-1,36
 230.405273438 504.014648438 230.405273438 504.014648438 260.047851562 508.653320312 c 132,-1,37
 289.689453125 513.291015625 289.689453125 513.291015625 312.671875 513.291015625 c 132,-1,38
 335.653320312 513.291015625 335.653320312 513.291015625 360.372070312 510.208007812 c 4,39,40
 421.305664062 502.916015625 421.305664062 502.916015625 461.92578125 480.665039062 c 4,41,42
 537.231445312 435.85546875 537.231445312 435.85546875 556.471679688 352.25390625 c 4,43,44
 562.381835938 326.571289062 562.381835938 326.571289062 562.381835938 304.856445312 c 132,-1,45
 562.381835938 283.142578125 562.381835938 283.142578125 560.36328125 266.528320312 c 4,46,47
 551.655273438 196.301757812 551.655273438 196.301757812 509.72265625 138.99609375 c 132,-1,48
 467.7890625 81.6904296875 467.7890625 81.6904296875 401.690429688 41 c 4,49,50
 370.872070312 22 370.872070312 22 350.083007812 20.099609375 c 5,51,-1
 348.37890625 20.099609375 l 6,52,53
 322.428710938 20.099609375 322.428710938 20.099609375 297.48828125 45.2294921875 c 4,54,55
 290.5703125 52.1865234375 290.5703125 52.1865234375 290.5703125 59.193359375 c 4,56,57
 290.5703125 69.9814453125 290.5703125 69.9814453125 298.909179688 78.8095703125 c 4,58,59
 303.849609375 84.0380859375 303.849609375 84.0380859375 315.649414062 92.4306640625 c 132,-1,60
 327.44921875 100.823242188 327.44921875 100.823242188 348.260742188 120.325195312 c 132,-1,61
 369.069335938 139.826171875 369.069335938 139.826171875 389.045898438 169.327148438 c 4,62,63
 422.333007812 218.485351562 422.333007812 218.485351562 422.333007812 288.845703125 c 4,64,65
 422.333007812 322.026367188 422.333007812 322.026367188 410.334960938 340.515625 c 132,-1,66
 398.337890625 359.004882812 398.337890625 359.004882812 376.88671875 372.151367188 c 4,67,68
 348.599609375 389.489257812 348.599609375 389.489257812 314.095703125 399.14453125 c 4,69,70
 307.50390625 401.118164062 307.50390625 401.118164062 301.237304688 401.118164062 c 4,71,72
 289.655273438 401.118164062 289.655273438 401.118164062 274.418945312 400.334960938 c 132,-1,73
 259.182617188 399.552734375 259.182617188 399.552734375 231.686523438 394.796875 c 132,-1,74
 204.262695312 390.052734375 204.262695312 390.052734375 179.155273438 382.315429688 c 4,75,76
 154.783203125 374.62890625 154.783203125 374.62890625 141.55078125 367.002929688 c 5,77,78
 140.423828125 368.014648438 140.423828125 368.014648438 139.297851562 366.211914062 c 5,79,80
 139.1796875 367.602539062 139.1796875 367.602539062 139.0625 366.122070312 c 5,81,82
 133.677734375 358.28125 133.677734375 358.28125 127.12109375 351.024414062 c 4,83,84
 116.5078125 339.27734375 116.5078125 339.27734375 99.4013671875 335.061523438 c 4,85,86
 93.4892578125 333.604492188 93.4892578125 333.604492188 83.890625 333.604492188 c 132,-1,87
 74.29296875 333.604492188 74.29296875 333.604492188 55.9912109375 340.4609375 c 5,88,89
 54.5966796875 344.48046875 54.5966796875 344.48046875 53.201171875 342.493164062 c 6,90,91
 34.5302734375 356.092773438 34.5302734375 356.092773438 34.5302734375 378.228515625 c 132,-1,92
 34.5302734375 400.364257812 34.5302734375 400.364257812 47.69921875 420.486328125 c 4,93,94
 55.951171875 433.094726562 55.951171875 433.094726562 58.0634765625 438.369140625 c 4,95,96
 80.015625 494.169921875 80.015625 494.169921875 91.1845703125 530.77734375 c 4,97,98
 115.579101562 610.739257812 115.579101562 610.739257812 118.754882812 643.446289062 c 4,99,100
 120.461914062 651.442382812 120.461914062 651.442382812 123.307617188 658.10546875 c 4,101,102
 128.106445312 669.340820312 128.106445312 669.340820312 139.774414062 674.422851562 c 4,103,104
 146.329101562 677.27734375 146.329101562 677.27734375 154.018554688 677.709960938 c 4,0,1
EndSplineSet
Validated: 524321
EndChar

StartChar: six
Encoding: 54 54 39
Width: 685
Flags: W
LayerCount: 2
Fore
SplineSet
416.783489665 630.778320312 m 0,0,1
 297.918222932 550.6328125 297.918222932 550.6328125 244.496590618 429.52734375 c 1,2,3
 317.792953422 466 317.792953422 466 392.902194448 466 c 0,4,5
 450.995075037 466 450.995075037 466 499.317338249 449.307617188 c 0,6,7
 540.950195312 432.616210938 540.950195312 432.616210938 569.489257812 402.3125 c 128,-1,8
 598.029296875 372.009765625 598.029296875 372.009765625 612.514648438 331.868164062 c 128,-1,9
 627 291.7265625 627 291.7265625 627 244.06640625 c 128,-1,10
 627 196.407226562 627 196.407226562 609.494140625 150.25 c 128,-1,11
 591.989257812 104.09375 591.989257812 104.09375 559.342773438 67.8974609375 c 128,-1,12
 526.696289062 31.7021484375 526.696289062 31.7021484375 476.565774273 9.947265625 c 0,13,14
 422.332904919 -13 422.332904919 -13 357.446635351 -13 c 128,-1,15
 292.560365783 -13 292.560365783 -13 229.128091478 8.91015625 c 0,16,17
 176.881835938 26.6533203125 176.881835938 26.6533203125 145.793945312 55.2822265625 c 0,18,19
 85.8271484375 110.5078125 85.8271484375 110.5078125 65.6240234375 193.653320312 c 0,20,21
 56 233.2578125 56 233.2578125 56 274.357421875 c 0,22,23
 56 354.419921875 56 354.419921875 83.8505859375 426.850585938 c 128,-1,24
 111.700195312 499.28125 111.700195312 499.28125 159.74609375 560.493164062 c 0,25,26
 213.044134352 621.705078125 213.044134352 621.705078125 288.597651709 669.959960938 c 0,27,28
 381.19753258 729.102539062 381.19753258 729.102539062 482.388679113 761.22265625 c 0,29,30
 504.08782747 768.567382812 504.08782747 768.567382812 518.711914062 769.896484375 c 2,31,32
 522.787109375 745.266601562 522.787109375 745.266601562 526.862304688 770.637695312 c 1,33,34
 540.497070312 762.456054688 540.497070312 762.456054688 547.989257812 756.212890625 c 0,35,36
 563 744.696289062 563 744.696289062 563 727.475585938 c 0,37,38
 563 704.758789062 563 704.758789062 524.118164062 685.916992188 c 0,39,40
 507.440429688 677.8359375 507.440429688 677.8359375 486.388320051 670.877929688 c 0,41,42
 453.702275741 655.708984375 453.702275741 655.708984375 416.783489665 630.778320312 c 0,0,1
407.767565068 358.735351562 m 0,43,44
 382.660759559 370 382.660759559 370 345.635808749 370 c 128,-1,45
 308.777028826 370 308.777028826 370 267.65550406 347.043945312 c 0,46,47
 231.654119757 326.9453125 231.654119757 326.9453125 212.231743348 309.15234375 c 1,48,49
 210.432712701 295.61328125 210.432712701 295.61328125 208.907171639 283.293945312 c 128,-1,50
 207.381630577 270.974609375 207.381630577 270.974609375 207.381630577 247.094726562 c 128,-1,51
 207.381630577 223.213867188 207.381630577 223.213867188 214.520054941 189.311523438 c 128,-1,52
 221.658479304 155.408203125 221.658479304 155.408203125 238.704842819 127.954101562 c 128,-1,53
 255.752360298 100.499023438 255.752360298 100.499023438 282.685891603 84.25 c 128,-1,54
 309.620576872 68 309.620576872 68 348.317622234 68 c 128,-1,55
 387.014667597 68 387.014667597 68 411.228304588 81.4658203125 c 128,-1,56
 435.441941578 94.9306640625 435.441941578 94.9306640625 452.166348999 117.904296875 c 128,-1,57
 468.889602455 140.877929688 468.889602455 140.877929688 476.39037167 169.349609375 c 128,-1,58
 483.889986921 197.8203125 483.889986921 197.8203125 483.889986921 225.703125 c 128,-1,59
 483.889986921 253.5859375 483.889986921 253.5859375 475.461430252 280.346679688 c 0,60,61
 457.850778099 336.263671875 457.850778099 336.263671875 407.767565068 358.735351562 c 0,43,44
EndSplineSet
Validated: 524289
EndChar

StartChar: seven
Encoding: 55 55 40
Width: 594
Flags: W
LayerCount: 2
Fore
SplineSet
574.96875 650.344726562 m 132,-1,1
 574.96875 636.619140625 574.96875 636.619140625 551.958007812 592.186523438 c 4,2,3
 542.693359375 574.297851562 542.693359375 574.297851562 532.66796875 552.606445312 c 132,-1,4
 522.641601562 530.915039062 522.641601562 530.915039062 512.095703125 511.07421875 c 132,-1,5
 501.549804688 491.233398438 501.549804688 491.233398438 494.166015625 475.951171875 c 132,-1,6
 486.78125 460.66796875 486.78125 460.66796875 483.5703125 454.584960938 c 4,7,8
 417.056640625 327.727539062 417.056640625 327.727539062 344.857421875 203.610351562 c 132,-1,9
 272.66015625 79.4931640625 272.66015625 79.4931640625 183.840820312 -42.96875 c 4,10,11
 171.767578125 -59.8896484375 171.767578125 -59.8896484375 146.7734375 -59.8896484375 c 4,12,13
 131.533203125 -59.8896484375 131.533203125 -59.8896484375 117.194335938 -53.1416015625 c 132,-1,14
 102.85546875 -46.3935546875 102.85546875 -46.3935546875 94.142578125 -35.06640625 c 4,15,16
 85.3974609375 -24.3681640625 85.3974609375 -24.3681640625 85.3974609375 -12.7216796875 c 4,17,18
 85.3974609375 -6.720703125 85.3974609375 -6.720703125 88.0888671875 -0.3896484375 c 6,19,20
 136.8125 109.401367188 136.8125 109.401367188 194.532226562 187.280273438 c 5,21,22
 252.73046875 285.487304688 252.73046875 285.487304688 310.927734375 373.828125 c 5,23,24
 339.108398438 418.547851562 339.108398438 418.547851562 367.288085938 470.061523438 c 6,25,26
 394.338867188 516.057617188 394.338867188 516.057617188 418.57421875 563.395507812 c 5,27,28
 418.788085938 552.4609375 418.788085938 552.4609375 419.001953125 565.084960938 c 5,29,-1
 62.96875 565.084960938 l 6,30,31
 36.7529296875 565.084960938 36.7529296875 565.084960938 24.615234375 576.078125 c 4,32,33
 15.150390625 584.651367188 15.150390625 584.651367188 15.150390625 597.125976562 c 4,34,35
 15.150390625 602.999023438 15.150390625 602.999023438 17.4833984375 608.927734375 c 4,36,37
 28.322265625 637.276367188 28.322265625 637.276367188 40.7744140625 679.266601562 c 132,-1,38
 53.2265625 721.2578125 53.2265625 721.2578125 59.26171875 735.715820312 c 4,39,40
 70.92578125 763.65625 70.92578125 763.65625 93.96875 763.65625 c 4,41,42
 102.5859375 763.65625 102.5859375 763.65625 113.640625 760.405273438 c 132,-1,43
 124.694335938 757.153320312 124.694335938 757.153320312 131.423828125 750.107421875 c 4,44,45
 141.525390625 740.70703125 141.525390625 740.70703125 141.525390625 727.106445312 c 6,46,47
 141.525390625 704.657226562 141.525390625 704.657226562 141.525390625 726.478515625 c 6,48,49
 140.731445312 714.5625 140.731445312 714.5625 140.731445312 707.067382812 c 132,-1,50
 140.731445312 699.573242188 140.731445312 699.573242188 140.911132812 695.048828125 c 132,-1,51
 141.08984375 690.525390625 141.08984375 690.525390625 141.12109375 686.060546875 c 5,52,53
 149.837890625 666.1796875 149.837890625 666.1796875 158.5546875 685.715820312 c 5,54,-1
 304.466796875 685.715820312 l 6,55,56
 329.876953125 685.715820312 329.876953125 685.715820312 352.913085938 686.626953125 c 6,57,58
 353.208007812 666.8828125 353.208007812 666.8828125 353.50390625 686.645507812 c 6,59,60
 392.524414062 687.581054688 392.524414062 687.581054688 432 689 c 4,61,62
 468.388671875 690.418945312 468.388671875 690.418945312 501.96875 690.418945312 c 6,63,-1
 514.96875 690.418945312 l 6,64,65
 530.041015625 690.418945312 530.041015625 690.418945312 543.618164062 686.162109375 c 132,-1,66
 557.1953125 681.904296875 557.1953125 681.904296875 564.50390625 674.571289062 c 4,67,0
 574.96875 664.0703125 574.96875 664.0703125 574.96875 650.344726562 c 132,-1,1
EndSplineSet
Validated: 524289
EndChar

StartChar: eight
Encoding: 56 56 41
Width: 607
Flags: W
LayerCount: 2
Fore
SplineSet
564.060546875 190.728515625 m 128,-1,1
 564.060546875 151.296875 564.060546875 151.296875 547.09375 114.4765625 c 128,-1,2
 530.125976562 77.65625 530.125976562 77.65625 499.655273438 48.658203125 c 128,-1,3
 469.184570312 19.6611328125 469.184570312 19.6611328125 424.425272356 3.884765625 c 0,4,5
 373.283653524 -13 373.283653524 -13 318.867215563 -13 c 128,-1,6
 264.450777602 -13 264.450777602 -13 212.842697898 -3.720703125 c 0,7,8
 163.193359375 4.953125 163.193359375 4.953125 128.799804688 25.8486328125 c 128,-1,9
 94.40625 46.7451171875 94.40625 46.7451171875 72.2880859375 82.1083984375 c 0,10,11
 48.9169921875 119.474609375 48.9169921875 119.474609375 48.9130859375 173.166015625 c 0,12,13
 48.9130859375 232.174804688 48.9130859375 232.174804688 92.46875 283.064453125 c 0,14,15
 112.46484375 306.427734375 112.46484375 306.427734375 135.640625 322.673828125 c 128,-1,16
 158.815429688 338.920898438 158.815429688 338.920898438 181.007043172 350.41015625 c 1,17,18
 160.266601562 362.123046875 160.266601562 362.123046875 138.965820312 377.608398438 c 128,-1,19
 117.666015625 393.092773438 117.666015625 393.092773438 97.7998046875 414.756835938 c 128,-1,20
 77.93359375 436.419921875 77.93359375 436.419921875 64.060546875 462.896484375 c 128,-1,21
 50.1865234375 489.373046875 50.1865234375 489.373046875 49.013671875 523.358398438 c 2,22,23
 49.009765625 512.413085938 49.009765625 512.413085938 49.0068359375 523.583984375 c 2,24,25
 48.9443359375 526.134765625 48.9443359375 526.134765625 48.9443359375 528.66796875 c 0,26,27
 48.9443359375 572.448242188 48.9443359375 572.448242188 67.826171875 608.784179688 c 128,-1,28
 86.7080078125 645.12109375 86.7080078125 645.12109375 118.922851562 671.533203125 c 128,-1,29
 151.13671875 697.946289062 151.13671875 697.946289062 198.333246612 711.983398438 c 0,30,31
 250.236311855 727 250.236311855 727 302.982364226 727 c 128,-1,32
 355.728416597 727 355.728416597 727 404.607280506 715.389648438 c 0,33,34
 451.201171875 704.541992188 451.201171875 704.541992188 483.134765625 682.697265625 c 128,-1,35
 515.069335938 660.852539062 515.069335938 660.852539062 535.952148438 626.70703125 c 0,36,37
 558.0703125 590.540039062 558.0703125 590.540039062 558.07421875 543.642578125 c 0,38,39
 558.07421875 475.10546875 558.07421875 475.10546875 505.234375 428.086914062 c 0,40,41
 482.09375 407.495117188 482.09375 407.495117188 452.045898438 391.16015625 c 0,42,43
 443.134765625 386.31640625 443.134765625 386.31640625 432.45463482 381.6640625 c 1,44,45
 516.380859375 332.815429688 516.380859375 332.815429688 550.4453125 259.47265625 c 0,46,0
 564.059570312 230.161132812 564.059570312 230.161132812 564.060546875 190.728515625 c 128,-1,1
202.93190328 278.364257812 m 128,-1,48
 176.79210753 243.916992188 176.79210753 243.916992188 176.79210753 202.147460938 c 0,49,50
 176.79210753 172.703125 176.79210753 172.703125 184.411368148 146.9296875 c 128,-1,51
 192.030628765 121.155273438 192.030628765 121.155273438 205.755850204 104.387695312 c 128,-1,52
 219.482270771 87.6201171875 219.482270771 87.6201171875 239.867450263 77.810546875 c 128,-1,53
 260.252629755 68 260.252629755 68 286.880470684 68 c 128,-1,54
 313.507112485 68 313.507112485 68 331.627138797 70.1083984375 c 128,-1,55
 349.74596598 72.2158203125 349.74596598 72.2158203125 368.905636446 79.607421875 c 0,56,57
 403.008842608 92.7216796875 403.008842608 92.7216796875 415.993002816 115.694335938 c 128,-1,58
 428.977163024 138.666992188 428.977163024 138.666992188 428.977163024 166.655273438 c 0,59,60
 428.977163024 203.8359375 428.977163024 203.8359375 414.70034261 229.326171875 c 0,61,62
 387.928606297 277.125 387.928606297 277.125 327.110022847 306.4765625 c 0,63,64
 301.146498943 319.006835938 301.146498943 319.006835938 272.736753501 328.935546875 c 1,65,47
 229.07169903 312.8125 229.07169903 312.8125 202.93190328 278.364257812 c 128,-1,48
390.602662195 615.193359375 m 0,66,67
 355.61929593 648 355.61929593 648 294.837885455 648 c 0,68,69
 241.889180417 648 241.889180417 648 209.48034241 619.63671875 c 128,-1,70
 177.071504402 591.2734375 177.071504402 591.2734375 176.958786351 546.33203125 c 0,71,72
 178.058386915 515.153320312 178.058386915 515.153320312 203.182521075 486.5078125 c 0,73,74
 211.421730974 477.282226562 211.421730974 477.282226562 228.398988106 463.456054688 c 0,75,76
 267.299906218 431.775390625 267.299906218 431.775390625 306.589341868 413.110351562 c 0,77,78
 319.767760845 406.849609375 319.767760845 406.849609375 330.770961258 403.31640625 c 1,79,80
 349.760355519 408.8984375 349.760355519 408.8984375 367.725694292 421.27734375 c 128,-1,81
 385.689833937 433.657226562 385.689833937 433.657226562 399.768798197 451.493164062 c 128,-1,82
 413.901723226 469.397460938 413.901723226 469.397460938 421.260773022 490.372070312 c 128,-1,83
 428.601835896 511.294921875 428.601835896 511.294921875 428.678580101 531.564453125 c 0,84,85
 427.556196101 556.124023438 427.556196101 556.124023438 417.207719688 578.038085938 c 128,-1,86
 406.860442404 599.946289062 406.860442404 599.946289062 390.602662195 615.193359375 c 0,66,67
EndSplineSet
Validated: 524289
EndChar

StartChar: nine
Encoding: 57 57 42
Width: 685
Flags: W
LayerCount: 2
Fore
SplineSet
338.409179688 324 m 128,-1,1
 374.357421875 324 374.357421875 324 416.98046875 347.133789062 c 0,2,3
 448.276367188 364.119140625 448.276367188 364.119140625 472.733398438 385.295898438 c 1,4,5
 474.49609375 398.577148438 474.49609375 398.577148438 476.008789062 410.80078125 c 128,-1,6
 477.5234375 423.025390625 477.5234375 423.025390625 477.5234375 446.905273438 c 128,-1,7
 477.5234375 470.786132812 477.5234375 470.786132812 470.384765625 504.688476562 c 128,-1,8
 463.24609375 538.591796875 463.24609375 538.591796875 446.200195312 566.045898438 c 128,-1,9
 429.15234375 593.500976562 429.15234375 593.500976562 402.21875 609.75 c 128,-1,10
 375.284179688 626 375.284179688 626 336.586914062 626 c 128,-1,11
 297.889648438 626 297.889648438 626 273.62890625 612.5078125 c 128,-1,12
 249.368164062 599.016601562 249.368164062 599.016601562 232.637695312 576.431640625 c 128,-1,13
 215.909179688 553.846679688 215.909179688 553.846679688 207.870117188 524.94921875 c 128,-1,14
 199.833007812 496.051757812 199.833007812 496.051757812 199.833007812 468.317382812 c 128,-1,15
 199.833007812 440.583007812 199.833007812 440.583007812 208.775390625 413.860351562 c 0,16,17
 227.177734375 358.868164062 227.177734375 358.868164062 277.489257812 335.565429688 c 0,18,0
 302.461914062 324 302.461914062 324 338.409179688 324 c 128,-1,1
405.758789062 189.825195312 m 0,19,20
 425.61328125 224.59765625 425.61328125 224.59765625 441.204101562 264.926757812 c 1,21,22
 368.286132812 228 368.286132812 228 292.002929688 228 c 0,23,24
 232.46875 228 232.46875 228 184.764648438 245.251953125 c 0,25,26
 143.732421875 262.446289062 143.732421875 262.446289062 115.221679688 292.181640625 c 128,-1,27
 86.833984375 321.7890625 86.833984375 321.7890625 71.7783203125 361.969726562 c 128,-1,28
 56.72265625 402.150390625 56.72265625 402.150390625 56.72265625 449.946289062 c 128,-1,29
 56.72265625 497.7421875 56.72265625 497.7421875 74.734375 543.801757812 c 128,-1,30
 92.7470703125 589.860351562 92.7470703125 589.860351562 124.795898438 626.533203125 c 128,-1,31
 156.844726562 663.20703125 156.844726562 663.20703125 207.049804688 685.006835938 c 0,32,33
 261.390625 708 261.390625 708 327 708 c 128,-1,34
 392.609375 708 392.609375 708 455.970703125 685.01953125 c 0,35,36
 507.840820312 667.432617188 507.840820312 667.432617188 538.928710938 638.950195312 c 0,37,38
 599.6875 583.28125 599.6875 583.28125 618.6640625 501.013671875 c 0,39,40
 627.72265625 461.7421875 627.72265625 461.7421875 627.72265625 420.994140625 c 0,41,42
 627.72265625 341.682617188 627.72265625 341.682617188 603.552734375 273.05859375 c 128,-1,43
 579.3828125 204.434570312 579.3828125 204.434570312 538.896484375 149.0078125 c 0,44,45
 497.149414062 93.47265625 497.149414062 93.47265625 433.521484375 52.5966796875 c 128,-1,46
 370.049804688 11.8212890625 370.049804688 11.8212890625 301.228515625 -10.0068359375 c 0,47,48
 288.193359375 -15.013671875 288.193359375 -15.013671875 268.39453125 -22.2744140625 c 128,-1,49
 248.598603782 -29.5340925042 248.598603782 -29.5340925042 230.896484375 -30.896484375 c 2,50,51
 228 -32 228 -32 221.265625 -31.6376953125 c 1,52,53
 213 -28 213 -28 213.025390625 -27.453125 c 2,54,55
 204.546391357 -23.1473046794 204.546391357 -23.1473046794 195.244140625 -15.9306640625 c 0,56,57
 178.72265625 -4.1943359375 178.72265625 -4.1943359375 178.72265625 12.125 c 0,58,59
 178.72265625 23.1337890625 178.72265625 23.1337890625 190.797851562 31.9619140625 c 0,60,61
 201.276367188 39.5224609375 201.276367188 39.5224609375 280.497070312 75.62890625 c 0,62,63
 297.067382812 83.1806640625 297.067382812 83.1806640625 304.546875 88.2041015625 c 0,64,65
 371.791015625 133.05078125 371.791015625 133.05078125 405.758789062 189.825195312 c 0,19,20
EndSplineSet
Validated: 524289
EndChar

StartChar: colon
Encoding: 58 58 43
Width: 263
Flags: W
LayerCount: 2
Fore
SplineSet
33 409 m 0,0,1
 33 443.153620544 33 443.153620544 58.7278426301 469.576810272 c 0,2,3
 84.4556852602 496 84.4556852602 496 120.126212711 496 c 0,4,5
 155.796740162 496 155.796740162 496 183.898370081 469.954586904 c 0,6,7
 212 443.909173809 212 443.909173809 212 405.687402383 c 0,8,9
 212 367.465630957 212 367.465630957 184.581727714 340.732815478 c 0,10,11
 157.163455429 314 157.163455429 314 120 314 c 0,12,13
 113.460531109 314 113.460531109 314 107.961970053 315.704491349 c 0,14,15
 93.6035325748 318.033998192 93.6035325748 318.033998192 79.7200413299 326.628540542 c 0,16,17
 54.5597883262 342.20393553 54.5597883262 342.20393553 40.0612213547 375.550639565 c 0,18,19
 33 391.79144868 33 391.79144868 33 409 c 0,0,1
212 51 m 0,20,21
 212 14.1897560934 212 14.1897560934 185.447613242 -14.4051219533 c 0,22,23
 158.895226485 -43 158.895226485 -43 121 -43 c 0,24,25
 102.093432217 -43 102.093432217 -43 85.1544515319 -34.5305096573 c 0,26,27
 68.2154708464 -26.0610193145 68.2154708464 -26.0610193145 57.3826121531 -13.1969996161 c 0,28,29
 46.5497534597 -0.332979917685 46.5497534597 -0.332979917685 39.2748767298 16.2008308319 c 0,30,31
 32 32.7346415815 32 32.7346415815 32 51 c 0,32,33
 32 88.7466389286 32 88.7466389286 58.5226072321 113.873319464 c 0,34,35
 85.0452144643 139 85.0452144643 139 120.913878018 139 c 0,36,37
 156.782541571 139 156.782541571 139 184.391270785 113.461925476 c 0,38,39
 212 87.923850953 212 87.923850953 212 51 c 0,20,21
EndSplineSet
Validated: 1
EndChar

StartChar: semicolon
Encoding: 59 59 44
Width: 264
Flags: W
LayerCount: 2
Fore
SplineSet
221 406 m 0,0,1
 221 367.841334661 221 367.841334661 194.769606191 340.920667331 c 0,2,3
 168.539212381 314 168.539212381 314 130 314 c 0,4,5
 124.358164032 314 124.358164032 314 119.491585303 315.545375335 c 0,6,7
 84.7963787136 320.043952969 84.7963787136 320.043952969 66.3981893568 346.619115904 c 0,8,9
 48 373.19427884 48 373.19427884 48 404 c 0,10,11
 48 442.717603672 48 442.717603672 71.5044316502 468.358801836 c 0,12,13
 95.0088633005 494 95.0088633005 494 132.974090008 494 c 0,14,15
 170.939316716 494 170.939316716 494 195.969658358 466.883796555 c 0,16,17
 221 439.767593109 221 439.767593109 221 406 c 0,0,1
242 -12 m 0,18,19
 242 -55.82029809 242 -55.82029809 224.640675126 -91.1175920001 c 0,20,21
 207.281350252 -126.41488591 207.281350252 -126.41488591 176.10958052 -154.123125672 c 0,22,23
 157.312033849 -169.161163009 157.312033849 -169.161163009 135.919209827 -182.913692738 c 0,24,25
 100.851530086 -205.457201143 100.851530086 -205.457201143 85.3417322697 -210.497885433 c 0,26,27
 77.6429182169 -213 77.6429182169 -213 71 -213 c 0,28,29
 51.6983587725 -213 51.6983587725 -213 41.9488059082 -197.033797527 c 0,30,31
 32 -187.219694769 32 -187.219694769 32 -172 c 0,32,33
 32 -159.661751671 32 -159.661751671 44.5496787508 -148.680782764 c 0,34,35
 63.383616367 -132.20108735 63.383616367 -132.20108735 70.2258531108 -128.469276142 c 0,36,37
 101.295286362 -107.611434521 101.295286362 -107.611434521 112.98811406 -92.0209975906 c 0,38,39
 119.865370311 -82.8513225898 119.865370311 -82.8513225898 123.932685155 -72.1284016359 c 0,40,41
 128 -61.4054806821 128 -61.4054806821 128 -45 c 1,42,-1
 126.310863015 -34.5978177927 l 1,43,44
 119.390220128 -26.8120945455 119.390220128 -26.8120945455 98.4706874967 -22.1633095163 c 0,45,46
 77.5511548653 -17.5145244871 77.5511548653 -17.5145244871 63.012866357 -8.36560989072 c 0,47,48
 47.9219688096 0.541036801329 47.9219688096 0.541036801329 38.9694977165 13.2237092349 c 0,49,50
 27 30.1804976666 27 30.1804976666 27 52 c 0,51,52
 27 93.4571702732 27 93.4571702732 61.7606460109 116.384404876 c 0,53,54
 91.5004192633 136 91.5004192633 136 124 136 c 0,55,56
 156.658483436 136 156.658483436 136 178.867031065 120.976570722 c 0,57,58
 201.075578693 105.953141444 201.075578693 105.953141444 215.683751424 84.0408823477 c 0,59,60
 242 44.5665094838 242 44.5665094838 242 -12 c 0,18,19
EndSplineSet
Validated: 1
EndChar

StartChar: less
Encoding: 60 60 45
Width: 468
Flags: W
LayerCount: 2
Fore
SplineSet
447 450 m 2,0,-1
 447 437.450376663 l 1,1,2
 348.628845147 364.195261347 348.628845147 364.195261347 301.000306665 326.241269744 c 0,3,4
 252.048374246 287.232698598 252.048374246 287.232698598 177.006620726 229.879350683 c 1,5,6
 254.630938381 169.983131177 254.630938381 169.983131177 293.47796916 142.235252048 c 0,7,8
 324.514409979 120.066365749 324.514409979 120.066365749 456 29.1014921499 c 1,9,-1
 456 16 l 2,10,11
 456 2.45394557153 456 2.45394557153 453.357768607 -4.59200480929 c 0,12,13
 450.715537214 -11.6379551901 450.715537214 -11.6379551901 448.824855747 -14.9466477578 c 0,14,15
 446.93417428 -18.2553403256 446.93417428 -18.2553403256 446.27506458 -19.8562432133 c 0,16,17
 446 -22 446 -22 446 -26 c 2,18,-1
 446 -67.3782108031 l 1,19,20
 349.949456256 -16.9109759547 349.949456256 -16.9109759547 308.011161966 7.34249544187 c 0,21,22
 230.016278881 52.4479699973 230.016278881 52.4479699973 142.825007774 109.57328555 c 0,23,24
 99.5941881468 137.896925996 99.5941881468 137.896925996 25 184.074280563 c 1,25,-1
 25 275.383650081 l 1,26,27
 116.872452028 328.797866377 116.872452028 328.797866377 156.889850306 355.224450145 c 0,28,29
 196.907248584 381.651033913 196.907248584 381.651033913 220.930586194 398.667564721 c 0,30,31
 309.684062921 461.534610736 309.684062921 461.534610736 404.425322966 511.160985045 c 2,32,-1
 441 530.319149206 l 1,33,-1
 441 489 l 2,34,35
 441 482.072174131 441 482.072174131 442.446954662 477.731309431 c 0,36,37
 443.893909324 473.39044473 443.893909324 473.39044473 445.446954662 467.954786047 c 0,38,39
 447 462.519127363 447 462.519127363 447 450 c 2,0,-1
EndSplineSet
Validated: 1
EndChar

StartChar: equal
Encoding: 61 61 46
Width: 524
Flags: W
LayerCount: 2
Fore
SplineSet
328 282 m 1,0,-1
 61 281 l 1,1,-1
 47.4007473265 281 l 1,2,-1
 39.9953942302 292.444636603 l 2,3,4
 23.9285714286 317.275180933 23.9285714286 317.275180933 23.9285714286 337.247851699 c 0,5,6
 23.9285714286 357.220522464 23.9285714286 357.220522464 39.2201060429 384.274776013 c 2,7,-1
 46.4126239489 397 l 1,8,-1
 61 397 l 2,9,10
 155.135619386 397 155.135619386 397 241.141850932 396 c 0,11,12
 327.148082479 395 327.148082479 395 389 395 c 2,13,-1
 481.499128667 395 l 1,14,-1
 485.514689853 374.922194069 l 2,15,16
 488 362.495643334 488 362.495643334 488 354 c 2,17,-1
 488 340 l 2,18,19
 488 331.365292688 488 331.365292688 487.468407649 320.73344566 c 0,20,21
 486.552655159 302.418395864 486.552655159 302.418395864 476.212924202 290.010718717 c 2,22,-1
 467.798819661 279.913793267 l 1,23,24
 444.850545595 282 444.850545595 282 432 282 c 2,25,-1
 328 282 l 1,0,-1
57 233 m 1,26,-1
 180 234 l 1,27,-1
 470.779526514 234 l 1,28,-1
 478.280071058 223.614630632 l 2,29,30
 493.903225806 201.982570211 493.903225806 201.982570211 493.903225806 180.916753382 c 0,31,32
 493.903225806 162.218639077 493.903225806 162.218639077 480.857764131 132.866350306 c 2,33,-1
 474.573657249 118.727109823 l 1,34,35
 436.577241153 117 436.577241153 117 412 117 c 2,36,-1
 247 117 l 2,37,38
 123.62597496 117 123.62597496 117 31 119.724293381 c 1,39,-1
 31 144 l 2,40,41
 31 148.927827299 31 148.927827299 28.5 156.427827299 c 0,42,43
 26 163.927827299 26 163.927827299 26 175.090478029 c 0,44,45
 26 186.25312876 26 186.25312876 28.7645854306 196.758553396 c 0,46,47
 31.5291708612 207.263978033 31.5291708612 207.263978033 35.8185078558 233 c 1,48,-1
 57 233 l 1,26,-1
EndSplineSet
Validated: 37
EndChar

StartChar: greater
Encoding: 62 62 47
Width: 468
Flags: W
LayerCount: 2
Fore
SplineSet
23 16 m 2,0,-1
 23 29.0602462804 l 1,1,2
 128.44439109 102.412866169 128.44439109 102.412866169 245.113334613 189.080808376 c 0,3,4
 269.835029819 207.445496243 269.835029819 207.445496243 300.998418096 230.268784325 c 1,5,6
 277.614213745 247.992893999 277.614213745 247.992893999 252.132724199 268.131490575 c 0,7,8
 226.651234653 288.270087152 226.651234653 288.270087152 194.17340559 313.253084153 c 0,9,10
 161.695576527 338.236081153 161.695576527 338.236081153 125.277511471 366.672158434 c 0,11,12
 88.8594464157 395.108235715 88.8594464157 395.108235715 32 437.450376663 c 1,13,-1
 32 450 l 2,14,15
 32 462.519127363 32 462.519127363 33.5530453381 467.954786047 c 0,16,17
 35.1060906762 473.39044473 35.1060906762 473.39044473 36.0256350278 476.149077785 c 0,18,19
 38 482.072172701 38 482.072172701 38 489 c 2,20,-1
 38 531.223250605 l 1,21,-1
 74.9944914906 510.93594882 l 2,22,23
 137.630859813 476.586972644 137.630859813 476.586972644 179.746478113 450.20128407 c 0,24,25
 221.68019989 423.929554764 221.68019989 423.929554764 258.283762047 398.858621779 c 0,26,27
 294.887324205 373.787688795 294.887324205 373.787688795 336.487280433 346.549622217 c 0,28,29
 378.087236661 319.311555639 378.087236661 319.311555639 454 275.424489334 c 1,30,-1
 454 184.074280563 l 1,31,32
 400.338341867 150.855158861 400.338341867 150.855158861 367.886695431 129.886402703 c 0,33,34
 332.053866537 106.732882494 332.053866537 106.732882494 305.922204435 90.2796495861 c 0,35,36
 279.790542351 73.8264166893 279.790542351 73.8264166893 253.391071467 57.232601332 c 0,37,38
 226.991600582 40.6387859748 226.991600582 40.6387859748 199.718242541 24.4767960246 c 0,39,40
 152.382631537 -3.57393642249 152.382631537 -3.57393642249 33 -67.8568918654 c 1,41,-1
 33 -26 l 2,42,43
 33 -19.8901470565 33 -19.8901470565 30.6422313928 -15.7640511233 c 0,44,45
 28.2844627856 -11.6379551901 28.2844627856 -11.6379551901 25.6422313928 -4.59200480929 c 0,46,47
 23 2.45394557153 23 2.45394557153 23 16 c 2,0,-1
EndSplineSet
Validated: 1
EndChar

StartChar: question
Encoding: 63 63 48
Width: 367
Flags: W
LayerCount: 2
Fore
SplineSet
199 40 m 0,0,1
 199 2.44461526567 199 2.44461526567 170.177090059 -22.0548581842 c 0,2,3
 147.728260115 -41.1363636364 147.728260115 -41.1363636364 120.105371901 -41.1363636364 c 0,4,5
 112.87004233 -41.1363636364 112.87004233 -41.1363636364 105.474222892 -39.7821838737 c 0,6,7
 71.2099124533 -36.3549432914 71.2099124533 -36.3549432914 52.6049562266 -11.3098099768 c 0,8,9
 34 13.7353233378 34 13.7353233378 34 44 c 0,10,11
 34 79.8937227652 34 79.8937227652 56.5953726406 103.946861383 c 0,12,13
 79.1907452812 128 79.1907452812 128 117.124949975 128 c 0,14,15
 155.059154668 128 155.059154668 128 178.08018794 99.0380549163 c 0,16,17
 199 72.7195816793 199 72.7195816793 199 40 c 0,0,1
67 237 m 1,18,-1
 68 284 l 2,19,20
 68 302.095092086 68 302.095092086 67.1666666667 313.761758753 c 0,21,22
 66.3333333333 325.42842542 66.3333333333 325.42842542 66.3333333333 331.864899699 c 0,23,24
 66.3333333333 338.301373979 66.3333333333 338.301373979 66.7744992178 347.124691669 c 0,25,26
 67.2156651023 355.948009359 67.2156651023 355.948009359 71.6498729839 368.363791427 c 0,27,28
 76.0840808655 380.779573495 76.0840808655 380.779573495 89.4921111293 390.35673797 c 2,29,-1
 92.0067900581 392.152937204 l 1,30,31
 121.920226448 403.904644358 121.920226448 403.904644358 148.891416522 417.153650008 c 0,32,33
 175.862606597 430.402655659 175.862606597 430.402655659 197.294278771 446.585755055 c 0,34,35
 218.725950945 462.768854452 218.725950945 462.768854452 230.362975472 483.63524326 c 0,36,37
 242 504.501632069 242 504.501632069 242 534 c 0,38,39
 242 575.263673635 242 575.263673635 215.119946945 608.213416089 c 0,40,41
 202.657371724 623.490121199 202.657371724 623.490121199 186.075605298 632.7450606 c 0,42,43
 169.493838873 642 169.493838873 642 153.94150482 642 c 0,44,45
 138.389170768 642 138.389170768 642 120.389170768 635.5 c 0,46,47
 102.389170768 629 102.389170768 629 81 629 c 0,48,49
 54.8488891463 629 54.8488891463 629 33.9244445731 646.705299254 c 0,50,51
 13 664.410598508 13 664.410598508 13 693 c 0,52,53
 13 715.232154234 13 715.232154234 22.7264470654 730.632362087 c 0,54,55
 32.4528941308 746.032569941 32.4528941308 746.032569941 47.9313009878 754.140306866 c 0,56,57
 63.4097078449 762.248043791 63.4097078449 762.248043791 78.4175326805 764.124021896 c 0,58,59
 93.4253575162 766 93.4253575162 766 108 766 c 0,60,61
 158.486835336 766 158.486835336 766 202.781701184 736.84388577 c 0,62,63
 247.076567033 707.687771541 247.076567033 707.687771541 280.500405349 665.638426563 c 0,64,65
 313.924243665 623.589081585 313.924243665 623.589081585 333.462121832 573.65894849 c 0,66,67
 353 523.728815395 353 523.728815395 353 478.861741629 c 0,68,69
 353 433.994667864 353 433.994667864 337.169816877 402.920604697 c 0,70,71
 308.255879455 346.163616423 308.255879455 346.163616423 248.911641096 314.018820646 c 2,72,-1
 202.945056313 289.037014095 l 2,73,74
 182.794480851 278.045791116 182.794480851 278.045791116 167.953278466 266.35272257 c 0,75,76
 157.906322296 258.436938921 157.906322296 258.436938921 155.091334876 248.302984211 c 2,77,-1
 152.817432841 240.116936884 l 1,78,-1
 152.002922317 239.506053991 l 1,79,-1
 152.002922317 239 l 1,80,-1
 152.002922317 212 l 2,81,82
 152.002922317 176.87295399 152.002922317 176.87295399 136.932776671 161.190200798 c 0,83,84
 126.661186756 150.501066577 126.661186756 150.501066577 111.288105009 149.103513691 c 2,85,-1
 107.268140235 148.738062348 l 1,86,-1
 103.364119947 149.638990107 l 2,87,88
 91.1916296568 152.448026328 91.1916296568 152.448026328 81.7089440589 161.151313109 c 0,89,90
 67 174.651302862 67 174.651302862 67 210 c 2,91,-1
 67 237 l 1,18,-1
EndSplineSet
Validated: 33
EndChar

StartChar: at
Encoding: 64 64 49
Width: 898
Flags: W
LayerCount: 2
Fore
SplineSet
398 119 m 0,0,1
 398 98.45789014 398 98.45789014 405.870126608 88.1661861145 c 0,2,3
 411.350151283 81 411.350151283 81 429.72179175 81 c 0,4,5
 448.093432217 81 448.093432217 81 465.299738475 89.6031531287 c 0,6,7
 482.506044732 98.2063062573 482.506044732 98.2063062573 493.351528254 109.655217272 c 0,8,9
 498.355242558 115.599371243 498.355242558 115.599371243 505.091519312 125.703787412 c 0,10,11
 511.827796065 135.808203582 511.827796065 135.808203582 514.209805028 142.481364295 c 1,12,-1
 516 174.704873791 l 1,13,-1
 516 198.01528841 l 1,14,15
 497.608207333 192.43106641 497.608207333 192.43106641 481.064712172 185.957524826 c 0,16,17
 464.521217012 179.483983242 464.521217012 179.483983242 453.838805473 176.246753314 c 0,18,19
 430.585473225 167.830874698 430.585473225 167.830874698 411.860359796 151.6024421 c 0,20,21
 398 139.590130276 398 139.590130276 398 119 c 0,0,1
477 -92 m 0,22,23
 534.857265581 -92 534.857265581 -92 599.388738465 -69.847404831 c 0,24,25
 630.624178411 -59.1247911181 630.624178411 -59.1247911181 657.384600434 -43.7035309693 c 0,26,27
 684.145022457 -28.2822708205 684.145022457 -28.2822708205 701.498916717 -9.19298713441 c 2,28,-1
 711.811827624 2.15121486385 l 1,29,30
 754.5501165 -9.50468210236 754.5501165 -9.50468210236 770.493871587 -12.4035466635 c 2,31,-1
 814.774799638 -20.4546244909 l 1,32,-1
 784.514056469 -53.7927313712 l 2,33,34
 721.920494797 -122.751739994 721.920494797 -122.751739994 642.049113587 -157.895147726 c 0,35,36
 562.265358418 -193 562.265358418 -193 470 -193 c 0,37,38
 403.284332843 -193 403.284332843 -193 340.259628011 -173.93370274 c 0,39,40
 277.317484933 -154.892382145 277.317484933 -154.892382145 223.182007255 -119.33280367 c 0,41,42
 169.046529576 -83.7732251945 169.046529576 -83.7732251945 127.58853283 -32.74799843 c 0,43,44
 85.3604435797 19.2250344932 85.3604435797 19.2250344932 61.5557015421 82.3057553629 c 0,45,46
 36 151.109567207 36 151.109567207 36 236.78968063 c 0,47,48
 36 322.469794053 36 322.469794053 71.6407361388 400.134681758 c 0,49,50
 107.281472278 477.799569464 107.281472278 477.799569464 168.804712542 536.140573163 c 0,51,52
 230.502747254 594.647330217 230.502747254 594.647330217 308.483133236 623.823665109 c 0,53,54
 386.463519219 653 386.463519219 653 471 653 c 0,55,56
 524.155151415 653 524.155151415 653 578.308323122 639.196250349 c 0,57,58
 688.354241197 611.145330056 688.354241197 611.145330056 765.916476216 531.428588508 c 0,59,60
 805.946664753 490.28645029 805.946664753 490.28645029 828.916088812 439.001384554 c 0,61,62
 843.715275605 405.174671885 843.715275605 405.174671885 852.857637803 369.680795118 c 0,63,64
 862 334.186918352 862 334.186918352 862 290.744050529 c 0,65,66
 862 247.301182705 862 247.301182705 847.002369314 197.487623642 c 0,67,68
 832.004738629 147.674064579 832.004738629 147.674064579 804.99847245 103.92391337 c 0,69,70
 777.992206272 60.173762161 777.992206272 60.173762161 736.890433194 27.4034295716 c 0,71,72
 695.788660115 -5.36690301781 695.788660115 -5.36690301781 643.922194069 -15.514689853 c 0,73,74
 631.495643334 -18 631.495643334 -18 616 -18 c 0,75,76
 570.735906569 -18 570.735906569 -18 544.262534041 11.9567110191 c 0,77,78
 534.484617457 23.0211955742 534.484617457 23.0211955742 527.087087767 36.1936635682 c 1,79,80
 481.306406908 -3.69443131339 481.306406908 -3.69443131339 433.442352571 -17.5218247884 c 0,81,82
 407.556361454 -25 407.556361454 -25 384 -25 c 0,83,84
 319.370886684 -25 319.370886684 -25 290.861125827 13.6918183069 c 0,85,86
 265 48.7890605002 265 48.7890605002 265 103 c 0,87,88
 265 132.976070772 265 132.976070772 279.332875608 156.656473951 c 0,89,90
 315.048465011 215.664839051 315.048465011 215.664839051 401.517690251 247.521922035 c 0,91,92
 437.686601776 260.582917863 437.686601776 260.582917863 463.462326581 269.47109883 c 0,93,94
 489.238051386 278.359279798 489.238051386 278.359279798 516 285.451086176 c 1,95,-1
 516 341 l 2,96,97
 516 377.038560591 516 377.038560591 503.582508843 397.605030319 c 0,98,99
 494.891206394 412 494.891206394 412 463 412 c 0,100,101
 438.047865649 412 438.047865649 412 424.688393744 405.139730643 c 0,102,103
 411.328921839 398.279461287 411.328921839 398.279461287 403.943620092 388.784073327 c 0,104,105
 396.558318346 379.288685367 396.558318346 379.288685367 393.326475751 368.785196935 c 0,106,107
 390.094633157 358.281708503 390.094633157 358.281708503 388.081436555 350.228922094 c 0,108,109
 380.402526655 325.656410413 380.402526655 325.656410413 357.181943157 308.768713324 c 0,110,111
 334.124962336 292 334.124962336 292 306 292 c 0,112,113
 293.846764275 292 293.846764275 292 284.626041618 297.854427084 c 0,114,115
 271.686923269 306.069740321 271.686923269 306.069740321 268.843461634 320.287048494 c 0,116,117
 266 334.504356666 266 334.504356666 266 345 c 0,118,119
 266 378.933116316 266 378.933116316 292.160122579 410.835704827 c 0,120,121
 314.790245457 438.433415654 314.790245457 438.433415654 347.024912258 461.380127614 c 0,122,123
 379.218519841 484.297610979 379.218519841 484.297610979 417.856351216 498.648805489 c 0,124,125
 456.494182592 513 456.494182592 513 489 513 c 0,126,127
 502.92774047 513 502.92774047 513 524.847380211 509.187888741 c 0,128,129
 561.161942349 502.872312717 561.161942349 502.872312717 578.156051125 494.375258329 c 0,130,131
 622.083902 472.411332891 622.083902 472.411332891 633.073248143 433.261787258 c 0,132,133
 642 401.460233766 642 401.460233766 642 361.081903889 c 0,134,135
 642 320.703574013 642 320.703574013 641.000034208 278.203558205 c 0,136,137
 640.000068417 235.703542398 640.000068417 235.703542398 640 193 c 2,138,-1
 640 163 l 2,139,140
 640 110.899876333 640 110.899876333 644.473733545 97.3632056025 c 0,141,142
 645.496137747 96 645.496137747 96 652 96 c 0,143,144
 672.500214221 96 672.500214221 96 689.143148453 112.989662028 c 0,145,146
 710.330229274 134.618140366 710.330229274 134.618140366 725.805492678 166.02382198 c 0,147,148
 741.280756081 197.429503593 741.280756081 197.429503593 749.133493441 231.612007395 c 0,149,150
 757 265.85444771 757 265.85444771 757 288 c 0,151,152
 757 347.486598842 757 347.486598842 734.217379496 396.697059132 c 0,153,154
 711.434758991 445.907519421 711.434758991 445.907519421 672.063290697 481.616525548 c 0,155,156
 632.691822404 517.325531675 632.691822404 517.325531675 581.051778269 537.151620048 c 0,157,158
 529.353672348 557 529.353672348 557 471 557 c 0,159,160
 400.733604532 557 400.733604532 557 344.583123052 529.845258957 c 0,161,162
 288.432641573 502.690517913 288.432641573 502.690517913 248.795278521 457.522360017 c 0,163,164
 208.996288285 412.170022306 208.996288285 412.170022306 187.498144143 350.947046596 c 0,165,166
 166 289.724070886 166 289.724070886 166 222.707599798 c 0,167,168
 166 95.1895513352 166 95.1895513352 245.444919144 5.87211154615 c 0,169,170
 288.896072867 -40.2588705704 288.896072867 -40.2588705704 347.133649694 -66.1422358695 c 0,171,172
 405.313618987 -92 405.313618987 -92 477 -92 c 0,22,23
EndSplineSet
Validated: 1
EndChar

StartChar: A
Encoding: 65 65 50
Width: 896
Flags: W
LayerCount: 2
Fore
SplineSet
462.120226113 302 m 2,0,-1
 440.396801324 302 l 1,1,-1
 360.020129602 303 l 2,2,3
 320.905236411 303 320.905236411 303 300.063265039 300.854492188 c 1,4,5
 246.409163665 190.35546875 246.409163665 190.35546875 220.554257452 110.966796875 c 0,6,7
 216.330493901 97.998046875 216.330493901 97.998046875 214.480608509 89.984375 c 0,8,9
 214.525158501 87.5146484375 214.525158501 87.5146484375 214.831704876 86.4091796875 c 0,10,11
 228.709027461 82.0810546875 228.709027461 82.0810546875 249.218995319 80.3388671875 c 128,-1,12
 269.728963177 78.5966796875 269.728963177 78.5966796875 287.272113694 75.4365234375 c 128,-1,13
 304.815264212 72.275390625 304.815264212 72.275390625 314.914323168 63.802734375 c 0,14,15
 328.521163656 52.38671875 328.521163656 52.38671875 328.521163656 34.712890625 c 128,-1,16
 328.521163656 17.0390625 328.521163656 17.0390625 313.704048379 5.5048828125 c 0,17,18
 298.887993815 -7 298.887993815 -7 279.643457879 -7 c 0,19,20
 242.387996508 -7 242.387996508 -7 205.458174365 -3.5 c 128,-1,21
 168.528352223 0 168.528352223 0 139.720417952 0 c 0,22,23
 112.65625 0 112.65625 0 93.65625 -2.5 c 128,-1,24
 74.65625 -5 74.65625 -5 50 -5 c 0,25,26
 30.9892578125 -5 30.9892578125 -5 19.46875 9.400390625 c 0,27,28
 10 20.4697265625 10 20.4697265625 10 34.2783203125 c 0,29,30
 10 60.515625 10 60.515625 31.828125 71.3232421875 c 0,31,32
 43.8134765625 77.2578125 43.8134765625 77.2578125 56.48046875 79.3173828125 c 128,-1,33
 69.146484375 81.3779296875 69.146484375 81.3779296875 80.6474609375 84.6875 c 0,34,35
 84.91796875 85.9169921875 84.91796875 85.9169921875 89.4443359375 92.501953125 c 0,36,37
 91.1875 94.6748046875 91.1875 94.6748046875 96.6455078125 106.586914062 c 128,-1,38
 102.104492188 118.498046875 102.104492188 118.498046875 108.967773438 132.711914062 c 128,-1,39
 115.831054688 146.924804688 115.831054688 146.924804688 121.241210938 160.725585938 c 128,-1,40
 126.651367188 174.525390625 126.651367188 174.525390625 139.80527508 203.76171875 c 0,41,42
 153.496972697 232.997070312 153.496972697 232.997070312 177.366222113 283.446289062 c 128,-1,43
 201.22804653 333.880859375 201.22804653 333.880859375 225.091992376 385.251953125 c 0,44,45
 362.604029152 673.475585938 362.604029152 673.475585938 389.93438868 731.684570312 c 0,46,47
 393.27351667 740.668945312 393.27351667 740.668945312 398.192047956 747.0078125 c 0,48,49
 409.047396067 761 409.047396067 761 431.091156515 761 c 128,-1,50
 453.134916963 761 453.134916963 761 465.630129074 745.181640625 c 0,51,52
 472.107910089 736.981445312 472.107910089 736.981445312 475.593416625 727.833007812 c 0,53,54
 501.54696925 673.833984375 501.54696925 673.833984375 528.076489631 617.4375 c 128,-1,55
 554.604949299 561.043945312 554.604949299 561.043945312 580.766401888 506.6171875 c 1,56,57
 676.123538859 292.805664062 676.123538859 292.805664062 783.607421875 97.4765625 c 0,58,59
 788.299804688 88.212890625 788.299804688 88.212890625 795.916015625 85.490234375 c 0,60,61
 810.763671875 80.181640625 810.763671875 80.181640625 826.763671875 77.4619140625 c 128,-1,62
 842.764648438 74.7412109375 842.764648438 74.7412109375 857.561523438 70.7060546875 c 128,-1,63
 872.359375 66.6708984375 872.359375 66.6708984375 880.3515625 53.5927734375 c 0,64,65
 886 44.3505859375 886 44.3505859375 886 31.2255859375 c 128,-1,66
 886 18.1005859375 886 18.1005859375 875.600585938 8.1923828125 c 0,67,68
 868.771484375 1.2333984375 868.771484375 1.2333984375 856.421875 -2.8837890625 c 128,-1,69
 844.072265625 -7 844.072265625 -7 830 -7 c 2,70,-1
 818 -7 l 2,71,72
 791.42578125 -7 791.42578125 -7 767.42578125 -4 c 0,73,74
 741.72870601 -1 741.72870601 -1 710.044115097 -1 c 128,-1,75
 678.359524184 -1 678.359524184 -1 640.343530802 -4 c 128,-1,76
 602.32753742 -7 602.32753742 -7 562.047980146 -7 c 0,77,78
 542.753590648 -7 542.753590648 -7 527.182307644 4.46875 c 0,79,80
 508.825589411 16.94140625 508.825589411 16.94140625 508.825589411 35.08203125 c 128,-1,81
 508.825589411 53.22265625 508.825589411 53.22265625 524.169879597 63.37890625 c 0,82,83
 533.421427987 69.501953125 533.421427987 69.501953125 548.901489578 71.7685546875 c 128,-1,84
 564.382611883 74.03515625 564.382611883 74.03515625 581.541783895 74.8447265625 c 128,-1,85
 598.700955908 75.654296875 598.700955908 75.654296875 609.302793348 77.7060546875 c 1,86,87
 604.818094129 92.3623046875 604.818094129 92.3623046875 583.183769324 138.1171875 c 128,-1,88
 561.549444519 183.873046875 561.549444519 183.873046875 547.148129169 214.392578125 c 128,-1,89
 532.746813818 244.912109375 532.746813818 244.912109375 515.682045361 278.44921875 c 0,90,91
 510.161028465 287.854492188 510.161028465 287.854492188 507.812607445 292.413085938 c 128,-1,92
 505.465247139 296.970703125 505.465247139 296.970703125 504.708957985 298.282226562 c 0,93,94
 495.506202444 302 495.506202444 302 462.120226113 302 c 2,0,-1
215.174315531 67.498046875 m 1,95,-1
 215.084154832 67.578125 l 1,96,-1
 215.174315531 67.498046875 l 1,95,-1
389.710578004 395.514648438 m 128,-1,98
 419.440272829 395.899414062 419.440272829 395.899414062 470.217717561 395.979492188 c 1,99,100
 452.330895675 441.493164062 452.330895675 441.493164062 444.434939906 461.544921875 c 0,101,102
 434.171470264 487.61328125 434.171470264 487.61328125 411.457338504 547.362304688 c 1,103,104
 400.232861887 524.234375 400.232861887 524.234375 388.900192431 498.400390625 c 0,105,106
 364.933357318 443.759765625 364.933357318 443.759765625 342.488646939 395.033203125 c 1,107,97
 359.979822466 395.12890625 359.979822466 395.12890625 389.710578004 395.514648438 c 128,-1,98
EndSplineSet
Validated: 524289
Substitution2: "'c2sc' Versalien in Kapit+AOQA-lchen in Lateinisch Nachschlagetabelle 0 Subtabelle" uni1D00
EndChar

StartChar: B
Encoding: 66 66 51
Width: 805
Flags: W
LayerCount: 2
Fore
SplineSet
527.572083314 502.78515625 m 128,-1,1
 541.321516123 524.505859375 541.321516123 524.505859375 541.321516123 556.836914062 c 0,2,3
 541.321516123 608.396484375 541.321516123 608.396484375 502.66699716 634.698242188 c 128,-1,4
 464.012478196 661 464.012478196 661 400.471431265 661 c 2,5,-1
 384.821421837 661 l 2,6,7
 373.051165025 661 373.051165025 661 360.060434542 660.61328125 c 0,8,9
 333.933783059 659.8359375 333.933783059 659.8359375 320.353557244 651.3515625 c 0,10,11
 315.514237224 648.328125 315.514237224 648.328125 315.514237224 609.81640625 c 2,12,13
 315.514237224 517.057617188 315.514237224 517.057617188 315.514237224 441.583984375 c 1,14,15
 319.439839478 441 319.439839478 441 325.574957571 441 c 2,16,-1
 363.582123326 441 l 2,17,18
 446.459708832 441 446.459708832 441 491.186029724 467.586914062 c 0,19,0
 513.801909002 481.030273438 513.801909002 481.030273438 527.572083314 502.78515625 c 128,-1,1
552.128930558 121.649414062 m 128,-1,21
 594.978691307 158.297851562 594.978691307 158.297851562 594.978691307 218.709960938 c 0,22,23
 594.978691307 256.28125 594.978691307 256.28125 573.05819819 285.953125 c 0,24,25
 555.98357504 310.821289062 555.98357504 310.821289062 531.404894635 324.375 c 0,26,27
 481.859995227 351.6953125 481.859995227 351.6953125 411.053964148 355.2109375 c 0,28,29
 375.019424441 357 375.019424441 357 338.989251367 357 c 2,30,-1
 319.98566849 357 l 2,31,32
 316.43341328 357 316.43341328 357 313.278521592 356.234375 c 1,33,34
 313.278521592 268.58203125 313.278521592 268.58203125 313.278521592 164.676757812 c 2,35,36
 313.278521592 144.309570312 313.278521592 144.309570312 316.920292759 122.999023438 c 0,37,38
 319.448572742 108.202148438 319.448572742 108.202148438 333.180539023 97.376953125 c 0,39,40
 350.940723411 85 350.940723411 85 416.121440694 85 c 0,41,20
 509.278078152 85 509.278078152 85 552.128930558 121.649414062 c 128,-1,21
313.47283672 358.754882812 m 1,42,-1
 313.47283672 358.754882812 l 1,42,-1
56.55078125 724.29296875 m 0,43,44
 74.474609375 741.5 74.474609375 741.5 130.375 741.5 c 1,45,46
 155.6875 715.75 155.6875 715.75 183.607014897 740 c 1,47,48
 233.632243836 740 233.632243836 740 284.494774479 744.5 c 128,-1,49
 335.357305122 749 335.357305122 749 387.254727572 749 c 128,-1,50
 439.152150021 749 439.152150021 749 493.432661937 738.861328125 c 0,51,52
 547.71426551 729.374023438 547.71426551 729.374023438 595.442645967 707.579101562 c 0,53,54
 642.112304688 685.784179688 642.112304688 685.784179688 670.556640625 647.758789062 c 128,-1,55
 699 609.732421875 699 609.732421875 699 555.5703125 c 0,56,57
 699 491.88671875 699 491.88671875 656.034179688 450.002929688 c 0,58,59
 636.725585938 431.180664062 636.725585938 431.180664062 610.781532859 417.197265625 c 1,60,61
 673.451171875 392.665039062 673.451171875 392.665039062 712.366210938 348.102539062 c 0,62,63
 756 298.135742188 756 298.135742188 756 226.162109375 c 0,64,65
 756 167.233398438 756 167.233398438 732.37890625 123.55078125 c 128,-1,66
 708.758789062 79.8671875 708.758789062 79.8671875 669.614257812 51.6083984375 c 0,67,68
 630.158462781 23.349609375 630.158462781 23.349609375 573.828908754 9.8046875 c 0,69,70
 517.499354728 -4.6689453125 517.499354728 -4.6689453125 454.775959657 -5.9521484375 c 0,71,72
 444.845146615 -7 444.845146615 -7 443.397608076 -7 c 2,73,74
 443.397608076 -32 443.397608076 -32 101 -7 c 0,75,76
 87.8408203125 -7 87.8408203125 -7 70.3037109375 -3.9765625 c 128,-1,77
 52.767578125 -0.953125 52.767578125 -0.953125 43.19921875 13.0693359375 c 0,78,79
 36 22.9267578125 36 22.9267578125 36 36.3623046875 c 0,80,81
 36 53.837890625 36 53.837890625 51.7998046875 63.986328125 c 0,82,83
 60.095703125 69.3154296875 60.095703125 69.3154296875 74.41015625 71.8232421875 c 128,-1,84
 88.7236328125 74.3310546875 88.7236328125 74.3310546875 106.521484375 76.9560546875 c 128,-1,85
 124.319335938 79.58203125 124.319335938 79.58203125 139.229492188 85.154296875 c 0,86,87
 141.8046875 86.1171875 141.8046875 86.1171875 142.8828125 87.19921875 c 128,-1,88
 143.903320312 88.2255859375 143.903320312 88.2255859375 144.741210938 92.9228515625 c 0,89,90
 146.657226562 114.713867188 146.657226562 114.713867188 147.330078125 175.717773438 c 128,-1,91
 148.002929688 236.720703125 148.002929688 236.720703125 149.502929688 293.696289062 c 0,92,93
 152 388.583007812 152 388.583007812 152 525.944335938 c 2,94,95
 152 561.880859375 152 561.880859375 152 624.981445312 c 2,96,97
 152 638.486328125 152 638.486328125 149.57421875 644.53125 c 128,-1,98
 147.147460938 650.575195312 147.147460938 650.575195312 144.387695312 652.508789062 c 128,-1,99
 141.627929688 654.443359375 141.627929688 654.443359375 131.893554688 656.192382812 c 128,-1,100
 122.159179688 657.94140625 122.159179688 657.94140625 106.487304688 660.53515625 c 0,101,102
 93.7939453125 661.041015625 93.7939453125 661.041015625 81.77734375 664.495117188 c 128,-1,103
 69.76171875 667.94921875 69.76171875 667.94921875 62.1640625 672.208007812 c 0,104,105
 45 681.974609375 45 681.974609375 45 697.954101562 c 128,-1,106
 45 713.932617188 45 713.932617188 56.55078125 724.29296875 c 0,43,44
EndSplineSet
Validated: 524321
Substitution2: "'c2sc' Versalien in Kapit+AOQA-lchen in Lateinisch Nachschlagetabelle 0 Subtabelle" uni0299
EndChar

StartChar: C
Encoding: 67 67 52
Width: 844
Flags: W
LayerCount: 2
Fore
SplineSet
714.826171875 759.173828125 m 0,0,1
 731.651367188 776 731.651367188 776 757 776 c 0,2,3
 773.28515625 776 773.28515625 776 783.150390625 763.020507812 c 128,-1,4
 793 750.059570312 793 750.059570312 793 716 c 0,5,6
 793 700.77734375 793 700.77734375 791.5 685.27734375 c 128,-1,7
 790 669.77734375 790 669.77734375 790 651.15234375 c 0,8,9
 790 605.026367188 790 605.026367188 785.7890625 550.288085938 c 1,10,11
 782.056640625 533.491210938 782.056640625 533.491210938 774.987304688 525.244140625 c 0,12,13
 764.4921875 513 764.4921875 513 749 513 c 0,14,15
 741.48046875 513 741.48046875 513 737.923828125 514 c 128,-1,16
 734.3671875 515 734.3671875 515 734 515 c 0,17,18
 711.396484375 515 711.396484375 515 700.948242188 539.815429688 c 0,19,20
 696.161132812 551.18359375 696.161132812 551.18359375 692.810117072 564.611328125 c 0,21,22
 689.237354763 578.0390625 689.237354763 578.0390625 686.082497379 589.420898438 c 128,-1,23
 682.92872265 600.802734375 682.92872265 600.802734375 679.220628436 607.146484375 c 0,24,25
 647.544301275 637.426757812 647.544301275 637.426757812 601.018274772 654.212890625 c 128,-1,26
 554.49224827 671 554.49224827 671 503.301060316 671 c 0,27,28
 431.70939958 671 431.70939958 671 382.315419333 648.36328125 c 0,29,30
 286.439801449 604.423828125 286.439801449 604.423828125 254.153939385 495.91796875 c 0,31,32
 238.336346254 442.759765625 238.336346254 442.759765625 238.336346254 382.1953125 c 128,-1,33
 238.336346254 321.629882812 238.336346254 321.629882812 254.094393346 263.41796875 c 0,34,35
 286.467950485 143.825195312 286.467950485 143.825195312 389.195693415 91.1494140625 c 0,36,37
 440.192003425 65 440.192003425 65 515.496088997 65 c 0,38,39
 564.699521921 65 564.699521921 65 618.971946702 85.560546875 c 0,40,41
 671.797944075 105.573242188 671.797944075 105.573242188 701.021484375 139.04296875 c 0,42,43
 705.170898438 144.97265625 705.170898438 144.97265625 718.908203125 169.502929688 c 128,-1,44
 732.645507812 194.034179688 732.645507812 194.034179688 738.811523438 203.283203125 c 0,45,46
 752.622070312 224 752.622070312 224 771.693359375 224 c 128,-1,47
 790.763671875 224 790.763671875 224 802.599609375 214.53125 c 0,48,49
 817 203.010742188 817 203.010742188 817 180 c 0,50,51
 817 170.299804688 817 170.299804688 814.314453125 150.42578125 c 0,52,53
 808.995117188 111.061523438 808.995117188 111.061523438 796.930664062 71.2490234375 c 0,54,55
 789.631835938 47.1640625 789.631835938 47.1640625 779.528320312 38.25 c 0,56,57
 743.375 6.349609375 743.375 6.349609375 657.159362507 -11.4404296875 c 0,58,59
 619.629118435 -18.7314453125 619.629118435 -18.7314453125 579.851282076 -22.37109375 c 128,-1,60
 540.197951069 -26 540.197951069 -26 508.844255171 -26 c 0,61,62
 402.964902822 -26 402.964902822 -26 317.229433964 9.7333984375 c 0,63,64
 231.49288245 43.150390625 231.49288245 43.150390625 173.00390625 99.46484375 c 0,65,66
 119.180664062 155.779296875 119.180664062 155.779296875 90.08984375 229.4765625 c 128,-1,67
 61 303.174804688 61 303.174804688 61 387.549804688 c 128,-1,68
 61 471.924804688 61 471.924804688 91.4306640625 540.822265625 c 128,-1,69
 121.861328125 609.719726562 121.861328125 609.719726562 175.203125 658.091796875 c 0,70,71
 233.397273026 706.462890625 233.397273026 706.462890625 315.527499919 730.884765625 c 0,72,73
 397.656644156 757 397.656644156 757 494.431948549 757 c 0,74,75
 577.679475654 757 577.679475654 757 655.266881138 740.255859375 c 0,76,77
 665.160184768 738.024414062 665.160184768 738.024414062 675.17582844 735.013671875 c 128,-1,78
 685.191472112 732.001953125 685.191472112 732.001953125 692.848010006 729.987304688 c 0,79,80
 694.125 731.858398438 694.125 731.858398438 695.278320312 733.876953125 c 0,81,82
 702.944335938 747.29296875 702.944335938 747.29296875 714.826171875 759.173828125 c 0,0,1
EndSplineSet
Validated: 524289
Substitution2: "'c2sc' Versalien in Kapit+AOQA-lchen in Lateinisch Nachschlagetabelle 0 Subtabelle" uni1D04
EndChar

StartChar: D
Encoding: 68 68 53
Width: 952
Flags: W
LayerCount: 2
Fore
SplineSet
315.373429725 652.765625 m 0,0,1
 311.495025524 641.16015625 311.495025524 641.16015625 311.495025524 623.73828125 c 2,2,3
 312.03966155 558.215820312 312.03966155 558.215820312 312.584297576 524.149414062 c 2,4,5
 312.584297576 441.028320312 312.584297576 441.028320312 311.495025524 358.959960938 c 128,-1,6
 310.405753472 276.891601562 310.405753472 276.891601562 310.405753472 194.03125 c 0,7,8
 310.405753472 119.40625 310.405753472 119.40625 331.190213065 95.720703125 c 0,9,10
 340.416049498 85.20703125 340.416049498 85.20703125 355.564802713 80.603515625 c 128,-1,11
 370.713555928 76 370.713555928 76 395.368973526 76 c 0,12,13
 468.041715759 76 468.041715759 76 528.171873261 98.482421875 c 128,-1,14
 588.288202114 120.958984375 588.288202114 120.958984375 630.864485201 160.39453125 c 128,-1,15
 673.441832029 199.830078125 673.441832029 199.830078125 697.251574548 253.436523438 c 128,-1,16
 721.061317067 307.043945312 721.061317067 307.043945312 721.061317067 368.311523438 c 0,17,18
 721.061317067 475.22265625 721.061317067 475.22265625 657.781418797 549.625 c 128,-1,19
 594.500456786 624.02734375 594.500456786 624.02734375 471.869060333 654.1015625 c 0,20,21
 448.624164942 659.46484375 448.624164942 659.46484375 425.937734227 663.732421875 c 128,-1,22
 403.250239769 668 403.250239769 668 381.208436851 668 c 2,23,-1
 351.835322426 668 l 2,24,25
 350.71094688 667.883789062 350.71094688 667.883789062 348.866417839 667.787109375 c 0,26,27
 334.816510356 667.053710938 334.816510356 667.053710938 321.638871508 659.245117188 c 0,28,29
 317.612607136 656.859375 317.612607136 656.859375 315.373429725 652.765625 c 0,0,1
139.305664062 648.357421875 m 0,30,31
 127.102539062 651 127.102539062 651 115 651 c 2,32,33
 98.5 625.5 98.5 625.5 82 650 c 2,34,35
 64.205078125 650 64.205078125 650 49.400390625 661.46875 c 0,36,37
 36.154296875 672.06640625 36.154296875 672.06640625 36.154296875 689.520507812 c 0,38,39
 36.154296875 693.497070312 36.154296875 693.497070312 36.9287109375 697.627929688 c 0,40,41
 39.84765625 713.1953125 39.84765625 713.1953125 49.326171875 722.673828125 c 0,42,43
 55.291015625 728.639648438 55.291015625 728.639648438 64.650390625 731.758789062 c 0,44,45
 85.90625 738.844726562 85.90625 738.844726562 127.032226562 742.389648438 c 0,46,47
 168.972712958 745.935546875 168.972712958 745.935546875 205.82499906 747.955078125 c 128,-1,48
 242.691113811 749.975585938 242.691113811 749.975585938 276.835112175 750.986328125 c 0,49,50
 344.815687395 753 344.815687395 753 376.851348643 753 c 0,51,52
 492.219513093 753 492.219513093 753 588.801989615 724.668945312 c 0,53,54
 685.383402396 698.208984375 685.383402396 698.208984375 755.741441519 647.854492188 c 0,55,56
 821.4296875 597.500976562 821.4296875 597.500976562 856.71484375 524.6015625 c 128,-1,57
 892 451.702148438 892 451.702148438 892 362.174804688 c 128,-1,58
 892 272.6484375 892 272.6484375 852.250976562 203.918945312 c 128,-1,59
 812.500976562 135.189453125 812.500976562 135.189453125 746.258179464 88.4873046875 c 0,60,61
 676.143737314 41.78515625 676.143737314 41.78515625 586.870233711 17.7431640625 c 0,62,63
 497.597793849 -8 497.597793849 -8 405.172421994 -8 c 0,64,65
 376.47478389 -8 376.47478389 -8 359.692122597 -6.97265625 c 2,66,67
 326.807595044 20.0400390625 326.807595044 20.0400390625 293.924131233 -2.947265625 c 2,68,69
 277.925447969 -2 277.925447969 -2 241.77310426 -2 c 128,-1,70
 205.62076055 -2 205.62076055 -2 162.594514497 -4.5 c 0,71,72
 122.802734375 -7 122.802734375 -7 79 -7 c 0,73,74
 61.9892578125 -7 61.9892578125 -7 52.2470703125 5.177734375 c 0,75,76
 45 13.5859375 45 13.5859375 45 25.431640625 c 0,77,78
 45 44.318359375 45 44.318359375 57.826171875 56.22265625 c 0,79,80
 74.13671875 71.3603515625 74.13671875 71.3603515625 102.552734375 74.4638671875 c 0,81,82
 104.4609375 74.671875 104.4609375 74.671875 118.705078125 77.4765625 c 128,-1,83
 132.948242188 80.2802734375 132.948242188 80.2802734375 139.2734375 85.259765625 c 0,84,85
 145.881835938 98.0830078125 145.881835938 98.0830078125 147.521484375 139.168945312 c 0,86,87
 148.01953125 150.422851562 148.01953125 150.422851562 149.013671875 172.260742188 c 0,88,89
 151 215.907226562 151 215.907226562 151 316.869140625 c 2,90,91
 151 420.618164062 151 420.618164062 151 538.694335938 c 2,92,93
 151 577.625976562 151 577.625976562 149.055664062 599.279296875 c 0,94,95
 145.673828125 636.948242188 145.673828125 636.948242188 143.747070312 645.115234375 c 0,96,97
 142.336914062 647.701171875 142.336914062 647.701171875 139.305664062 648.357421875 c 0,30,31
EndSplineSet
Validated: 524321
Substitution2: "'c2sc' Versalien in Kapit+AOQA-lchen in Lateinisch Nachschlagetabelle 0 Subtabelle" uni1D05
EndChar

